<svg width="335" height="120" viewBox="0 80 335 120" fill="none" xmlns="http://www.w3.org/2000/svg">
<g clip-path="url(#clip0_1453_15574)">
<path d="M17.8991 175.621L16.2968 181.601L10.083 179.936L15.266 160.592L28.8896 164.243C30.5536 164.688 31.8874 165.222 32.8911 165.844C33.9168 166.453 34.6737 167.13 35.1618 167.874C35.6671 168.622 35.943 169.43 35.9894 170.297C36.0577 171.151 35.9641 172.055 35.7087 173.008L35.6251 173.32C35.3743 174.256 35.0011 175.095 34.5055 175.835C34.0319 176.562 33.3868 177.133 32.5702 177.546C31.7537 177.958 30.7466 178.181 29.5491 178.213C28.3689 178.25 26.9555 178.047 25.3088 177.606L17.8991 175.621ZM19.1391 170.993L26.0289 172.839C26.9995 173.099 27.7243 173.098 28.2031 172.836C28.704 172.562 29.0356 172.121 29.1982 171.515L29.2191 171.437C29.3724 170.865 29.2984 170.343 28.9973 169.873C28.7182 169.389 28.0933 169.017 27.1226 168.757L20.2328 166.911L19.1391 170.993Z" fill="#F2F2F2"/>
<path d="M52.6646 170.279C54.2766 170.711 55.652 171.228 56.791 171.83C57.9473 172.437 58.9025 173.102 59.6564 173.824C60.4277 174.551 61.022 175.314 61.4395 176.113C61.8616 176.895 62.1508 177.688 62.3071 178.491C62.4853 179.282 62.5439 180.069 62.4828 180.851C62.4391 181.638 62.3267 182.37 62.1456 183.046L61.9366 183.826C61.6626 184.849 61.2013 185.877 60.5527 186.91C59.9042 187.944 59.0016 188.817 57.8448 189.529C56.7054 190.245 55.2721 190.706 53.545 190.912C51.8178 191.118 49.741 190.896 47.3144 190.246L46.1444 189.933C44.5324 189.501 43.1483 188.981 41.992 188.374C40.8576 187.754 39.9048 187.081 39.1336 186.354C38.3843 185.615 37.8009 184.845 37.3834 184.046C36.9659 183.247 36.6704 182.443 36.4968 181.635C36.3452 180.814 36.289 180.019 36.328 179.249C36.3891 178.467 36.5102 177.737 36.6913 177.061L36.9003 176.281C37.0861 175.588 37.3458 174.896 37.6795 174.205C38.0352 173.502 38.4793 172.85 39.0117 172.249C39.5661 171.636 40.2216 171.097 40.9781 170.631C41.7393 170.147 42.6269 169.781 43.6409 169.533C44.6722 169.289 45.8317 169.191 47.1193 169.239C48.4242 169.291 49.8827 169.533 51.4946 169.965L52.6646 170.279ZM55.616 181.519C55.7553 180.999 55.8236 180.432 55.8209 179.819C55.8228 179.187 55.6635 178.569 55.3429 177.963C55.0396 177.361 54.5224 176.796 53.7914 176.265C53.0777 175.74 52.0795 175.305 50.7969 174.961C49.4969 174.613 48.4065 174.488 47.5256 174.586C46.6447 174.685 45.9139 174.916 45.3332 175.281C44.7525 175.645 44.3052 176.101 43.9913 176.649C43.682 177.179 43.4577 177.704 43.3184 178.224L43.2278 178.562C43.0885 179.082 43.0179 179.658 43.016 180.289C43.0314 180.925 43.1971 181.554 43.513 182.177C43.851 182.788 44.3745 183.365 45.0836 183.908C45.7973 184.434 46.7868 184.866 48.0521 185.205C49.3347 185.549 50.4165 185.671 51.2974 185.573C52.2003 185.462 52.9334 185.222 53.4967 184.853C54.0821 184.471 54.5317 184.006 54.8456 183.458C55.1595 182.911 55.3861 182.377 55.5255 181.857L55.616 181.519Z" fill="#F2F2F2"/>
<path d="M70.191 189.632L68.5888 195.612L62.3749 193.947L67.558 174.604L81.1816 178.254C82.8456 178.7 84.1794 179.234 85.1831 179.856C86.2088 180.465 86.9657 181.142 87.4537 181.885C87.9591 182.634 88.235 183.442 88.2814 184.309C88.3497 185.163 88.2561 186.067 88.0007 187.02L87.9171 187.332C87.6663 188.268 87.2931 189.106 86.7975 189.846C86.3239 190.574 85.6788 191.144 84.8622 191.557C84.0457 191.97 83.0386 192.192 81.8411 192.225C80.6609 192.261 79.2475 192.059 77.6008 191.618L70.191 189.632ZM71.4311 185.005L78.3209 186.851C79.2915 187.111 80.0163 187.11 80.4951 186.848C80.9959 186.574 81.3276 186.133 81.4902 185.526L81.5111 185.448C81.6643 184.876 81.5904 184.355 81.2893 183.884C81.0101 183.401 80.3853 183.029 79.4146 182.769L72.5248 180.923L71.4311 185.005Z" fill="#F2F2F2"/>
<path d="M92.4656 170.016L99.95 171.107C100.465 171.182 100.889 171.198 101.221 171.156C101.574 171.099 101.861 170.996 102.082 170.846C102.304 170.697 102.467 170.513 102.571 170.292C102.676 170.072 102.746 169.837 102.783 169.588L102.79 169.535C102.824 169.304 102.821 169.077 102.781 168.854C102.744 168.613 102.639 168.398 102.467 168.21C102.297 168.004 102.05 167.832 101.726 167.694C101.422 167.54 101.012 167.426 100.497 167.351L93.013 166.26L92.4656 170.016ZM104.564 173.602C105.203 173.822 105.78 174.096 106.294 174.425C106.808 174.754 107.231 175.151 107.562 175.616C107.896 176.064 108.128 176.587 108.258 177.187C108.408 177.771 108.429 178.436 108.321 179.181L107.944 181.765C107.854 182.387 107.817 182.825 107.834 183.082C107.869 183.341 107.92 183.548 107.988 183.703L107.969 183.836L101.39 182.877C101.365 182.801 101.349 182.662 101.342 182.462C101.335 182.261 101.361 181.957 101.42 181.549L101.661 179.897C101.754 179.258 101.771 178.707 101.711 178.245C101.652 177.783 101.49 177.397 101.227 177.087C100.985 176.761 100.633 176.501 100.171 176.307C99.71 176.113 99.1331 175.966 98.4406 175.865L91.7552 174.89L90.8158 181.336L84.45 180.408L87.3382 160.592L102.041 162.735C103.887 163.004 105.337 163.387 106.388 163.885C107.44 164.383 108.213 164.931 108.706 165.528C109.217 166.129 109.514 166.761 109.599 167.427C109.683 168.092 109.683 168.717 109.597 169.303L109.562 169.543C109.466 170.2 109.264 170.778 108.956 171.277C108.65 171.758 108.273 172.166 107.826 172.499C107.378 172.833 106.869 173.094 106.297 173.283C105.746 173.457 105.168 173.563 104.564 173.602Z" fill="#F2F2F2"/>
<path d="M126.523 165.976C128.174 166.217 129.6 166.57 130.802 167.035C132.021 167.503 133.048 168.052 133.881 168.681C134.732 169.312 135.411 170.001 135.919 170.746C136.429 171.473 136.809 172.227 137.058 173.006C137.328 173.771 137.478 174.545 137.509 175.33C137.557 176.116 137.531 176.856 137.43 177.549L137.313 178.348C137.161 179.395 136.823 180.47 136.299 181.573C135.776 182.675 134.982 183.647 133.916 184.489C132.868 185.334 131.498 185.96 129.807 186.366C128.116 186.772 126.027 186.794 123.541 186.432L122.343 186.257C120.691 186.017 119.256 185.662 118.037 185.194C116.838 184.711 115.813 184.154 114.962 183.522C114.131 182.875 113.462 182.179 112.954 181.434C112.446 180.689 112.059 179.926 111.792 179.143C111.546 178.346 111.397 177.562 111.346 176.793C111.315 176.009 111.35 175.271 111.451 174.578L111.567 173.779C111.671 173.069 111.848 172.351 112.099 171.626C112.37 170.886 112.735 170.187 113.193 169.528C113.672 168.854 114.26 168.242 114.957 167.691C115.657 167.122 116.495 166.655 117.474 166.289C118.469 165.927 119.609 165.694 120.894 165.591C122.196 165.491 123.673 165.561 125.324 165.802L126.523 165.976ZM130.767 176.795C130.844 176.262 130.846 175.691 130.772 175.082C130.7 174.455 130.469 173.859 130.08 173.295C129.709 172.733 129.129 172.231 128.341 171.79C127.571 171.352 126.529 171.036 125.215 170.845C123.883 170.651 122.785 170.654 121.922 170.855C121.058 171.055 120.36 171.37 119.826 171.8C119.291 172.23 118.9 172.735 118.653 173.316C118.407 173.879 118.246 174.426 118.168 174.959L118.118 175.305C118.04 175.838 118.037 176.418 118.109 177.045C118.199 177.674 118.437 178.28 118.824 178.863C119.23 179.43 119.818 179.941 120.585 180.398C121.356 180.836 122.389 181.15 123.685 181.339C124.999 181.531 126.088 181.526 126.951 181.326C127.835 181.11 128.535 180.786 129.051 180.353C129.588 179.906 129.98 179.391 130.228 178.811C130.476 178.231 130.639 177.674 130.716 177.141L130.767 176.795Z" fill="#F2F2F2"/>
<path d="M149.938 190.279C148.322 190.044 146.924 189.686 145.742 189.205C144.579 188.727 143.591 188.166 142.778 187.522C141.983 186.88 141.34 186.188 140.85 185.446C140.363 184.686 139.994 183.916 139.745 183.136C139.517 182.341 139.385 181.56 139.352 180.794C139.319 180.027 139.35 179.315 139.446 178.658L139.562 177.859C139.661 177.185 139.834 176.494 140.082 175.786C140.333 175.061 140.68 174.359 141.123 173.68C141.585 173.004 142.147 172.379 142.811 171.805C143.493 171.233 144.314 170.763 145.274 170.396C146.237 170.01 147.343 169.763 148.592 169.655C149.861 169.532 151.303 169.588 152.919 169.823L154.145 170.002C156.488 170.344 158.379 170.873 159.816 171.59C161.252 172.307 162.349 173.12 163.105 174.028C163.879 174.939 164.365 175.898 164.563 176.906C164.763 177.896 164.798 178.835 164.669 179.723L164.649 179.856L158.097 178.902C158.098 178.775 158.06 178.533 157.985 178.178C157.913 177.805 157.698 177.411 157.341 176.996C157.005 176.566 156.485 176.155 155.78 175.762C155.076 175.369 154.084 175.08 152.806 174.893C151.634 174.723 150.644 174.733 149.837 174.923C149.029 175.114 148.369 175.416 147.855 175.831C147.341 176.246 146.951 176.742 146.686 177.32C146.423 177.88 146.25 178.444 146.167 179.012L146.117 179.359C146.039 179.891 146.045 180.473 146.135 181.102C146.224 181.732 146.453 182.336 146.822 182.916C147.211 183.48 147.763 183.987 148.478 184.436C149.195 184.867 150.139 185.167 151.311 185.338C152.589 185.525 153.622 185.53 154.409 185.355C155.197 185.179 155.813 184.934 156.258 184.618C156.703 184.302 157.012 183.984 157.185 183.665C157.361 183.328 157.469 183.09 157.507 182.95L164.059 183.905L164.036 184.065C163.956 184.615 163.799 185.191 163.567 185.792C163.334 186.392 163.005 186.97 162.58 187.525C162.154 188.079 161.609 188.589 160.942 189.054C160.297 189.504 159.509 189.87 158.579 190.151C157.65 190.433 156.572 190.611 155.346 190.686C154.12 190.762 152.726 190.685 151.163 190.458L149.938 190.279Z" fill="#F2F2F2"/>
<path d="M165.859 192.273L168.748 172.457L175.087 173.381L173.934 181.291L183.796 174.65L191.521 175.776L180.167 183.315L189.192 195.674L181.041 194.486L173.522 184.115L172.199 193.197L165.859 192.273Z" fill="#F2F2F2"/>
<path d="M138.433 157.297H145.996C146.517 157.297 146.938 157.252 147.261 157.162C147.602 157.055 147.871 156.911 148.069 156.732C148.266 156.553 148.401 156.347 148.473 156.114C148.544 155.881 148.58 155.639 148.58 155.388V155.334C148.58 155.101 148.544 154.877 148.473 154.662C148.401 154.429 148.266 154.232 148.069 154.071C147.871 153.892 147.602 153.757 147.261 153.668C146.938 153.56 146.517 153.506 145.996 153.506H138.433V157.297ZM150.922 159.098C151.586 159.223 152.196 159.411 152.752 159.662C153.308 159.913 153.784 160.245 154.179 160.657C154.573 161.051 154.879 161.535 155.094 162.108C155.327 162.664 155.444 163.318 155.444 164.071V166.678C155.444 167.306 155.471 167.745 155.524 167.996C155.596 168.246 155.677 168.444 155.767 168.587V168.721H149.119C149.083 168.65 149.047 168.515 149.011 168.318C148.975 168.121 148.957 167.816 148.957 167.404V165.737C148.957 165.092 148.894 164.546 148.769 164.098C148.643 163.65 148.428 163.291 148.123 163.022C147.836 162.736 147.45 162.53 146.965 162.404C146.481 162.279 145.889 162.216 145.189 162.216H138.433V168.721H132V148.721H146.858C148.724 148.721 150.213 148.892 151.326 149.232C152.438 149.573 153.282 150.003 153.856 150.522C154.448 151.042 154.834 151.625 155.013 152.27C155.193 152.915 155.282 153.533 155.282 154.125V154.367C155.282 155.03 155.166 155.63 154.932 156.168C154.699 156.687 154.385 157.144 153.99 157.539C153.596 157.933 153.129 158.264 152.591 158.533C152.07 158.784 151.514 158.972 150.922 159.098Z" fill="#F2F2F2"/>
<path d="M167.355 158.211V163.103H158.123V158.211H167.355Z" fill="#F2F2F2"/>
<path d="M177.057 156.517V168.721H170.785V148.721H177.353L188.604 160.711V148.721H194.848V168.721H188.63L177.057 156.517Z" fill="#F2F2F2"/>
<path d="M207.507 158.211V163.103H198.275V158.211H207.507Z" fill="#F2F2F2"/>
<path d="M210.937 148.721H226.629C228.065 148.721 229.249 148.856 230.182 149.125C231.133 149.393 231.887 149.752 232.443 150.2C232.999 150.63 233.385 151.132 233.6 151.705C233.834 152.261 233.95 152.834 233.95 153.426V153.668C233.95 154.313 233.825 154.877 233.573 155.361C233.322 155.845 232.999 156.248 232.604 156.571C232.228 156.893 231.815 157.144 231.366 157.323C230.936 157.503 230.532 157.619 230.155 157.673C230.693 157.763 231.25 157.915 231.824 158.13C232.398 158.327 232.919 158.623 233.385 159.017C233.87 159.411 234.255 159.904 234.542 160.496C234.847 161.087 235 161.795 235 162.619V162.888C235 163.641 234.865 164.367 234.596 165.065C234.345 165.764 233.905 166.392 233.277 166.947C232.649 167.485 231.797 167.915 230.72 168.237C229.644 168.56 228.298 168.721 226.683 168.721H210.937V148.721ZM217.37 153.157V156.383H225.176C225.983 156.383 226.53 156.23 226.818 155.926C227.123 155.621 227.275 155.245 227.275 154.797V154.743C227.275 154.277 227.123 153.901 226.818 153.614C226.53 153.309 225.983 153.157 225.176 153.157H217.37ZM217.37 160.522V164.071H225.687C226.172 164.071 226.566 164.017 226.871 163.91C227.176 163.802 227.419 163.668 227.598 163.506C227.778 163.327 227.894 163.13 227.948 162.915C228.02 162.7 228.056 162.485 228.056 162.27V162.162C228.056 161.947 228.02 161.741 227.948 161.544C227.894 161.329 227.778 161.15 227.598 161.006C227.419 160.863 227.176 160.746 226.871 160.657C226.566 160.567 226.172 160.522 225.687 160.522H217.37Z" fill="#F2F2F2"/>
<path d="M53.6905 158.18L60.9963 156.223C61.4989 156.088 61.8946 155.936 62.1834 155.765C62.4849 155.573 62.7077 155.365 62.8519 155.14C62.9961 154.916 63.0727 154.682 63.0817 154.438C63.0906 154.194 63.0626 153.951 62.9976 153.708L62.9837 153.656C62.9233 153.431 62.8306 153.223 62.7055 153.034C62.5758 152.827 62.3947 152.671 62.1622 152.567C61.9251 152.444 61.6303 152.384 61.2778 152.386C60.9379 152.365 60.5167 152.422 60.014 152.557L52.7082 154.515L53.6905 158.18ZM66.2209 156.69C66.8947 156.639 67.5328 156.664 68.1351 156.762C68.7375 156.861 69.2827 157.059 69.7709 157.355C70.2544 157.634 70.6744 158.023 71.031 158.522C71.4003 158.999 71.6825 159.601 71.8776 160.329L72.5533 162.851C72.7159 163.458 72.8556 163.876 72.9727 164.104C73.107 164.329 73.2361 164.498 73.3599 164.614L73.3948 164.744L66.9729 166.464C66.9197 166.404 66.8502 166.284 66.7644 166.102C66.6787 165.921 66.5824 165.631 66.4756 165.232L66.0437 163.62C65.8765 162.996 65.6742 162.484 65.4367 162.083C65.1993 161.682 64.8984 161.391 64.5341 161.21C64.1824 161.007 63.7564 160.908 63.2559 160.912C62.7554 160.916 62.1671 161.009 61.4912 161.19L54.9654 162.938L56.6512 169.23L50.4374 170.895L45.2544 151.552L59.6059 147.706C61.4086 147.223 62.8913 147.002 64.0542 147.044C65.2171 147.085 66.1432 147.283 66.8325 147.637C67.5392 147.986 68.0628 148.45 68.4033 149.027C68.7438 149.605 68.9907 150.18 69.144 150.752L69.2067 150.986C69.3785 151.627 69.4214 152.238 69.3354 152.818C69.2448 153.381 69.0599 153.904 68.7807 154.388C68.5016 154.871 68.1369 155.313 67.6865 155.712C67.2489 156.089 66.7604 156.415 66.2209 156.69Z" fill="#F2F2F2"/>
<path d="M89.6458 139.657L90.8371 144.103L78.4615 147.419L79.2138 150.227L91.1995 147.015L92.4326 151.617L80.4469 154.829L81.2481 157.819L93.7797 154.461L94.9849 158.959L76.2914 163.968L71.1084 144.624L89.6458 139.657Z" fill="#F2F2F2"/>
<path d="M108.866 155.546C106.682 156.131 104.781 156.315 103.162 156.099C101.561 155.878 100.193 155.417 99.0583 154.718C97.9409 154.015 97.0469 153.14 96.3764 152.093C95.7012 151.029 95.2174 149.951 94.9248 148.859L94.7576 148.235C94.5718 147.542 94.4571 146.802 94.4133 146.015C94.3696 145.228 94.4259 144.432 94.5821 143.629C94.7557 142.821 95.0536 142.026 95.4757 141.244C95.8932 140.445 96.4812 139.693 97.2398 138.988C97.9937 138.266 98.9315 137.606 100.053 137.008C101.175 136.41 102.516 135.902 104.076 135.484L104.96 135.247C107.282 134.625 109.249 134.339 110.86 134.391C112.489 134.437 113.83 134.691 114.882 135.152C115.952 135.609 116.769 136.198 117.334 136.919C117.899 137.641 118.281 138.375 118.481 139.12L118.502 139.198L112.028 140.933C111.944 140.825 111.791 140.671 111.57 140.47C111.362 140.247 111.023 140.059 110.555 139.906C110.087 139.753 109.472 139.676 108.71 139.676C107.948 139.676 106.987 139.831 105.825 140.143C104.681 140.449 103.768 140.852 103.084 141.351C102.396 141.833 101.889 142.368 101.564 142.956C101.234 143.528 101.052 144.134 101.02 144.774C101.004 145.41 101.078 146.031 101.24 146.638L101.324 146.95C101.482 147.539 101.737 148.112 102.09 148.667C102.461 149.218 102.939 149.684 103.524 150.066C104.122 150.426 104.844 150.66 105.691 150.768C106.554 150.871 107.558 150.769 108.702 150.462C109.794 150.17 110.659 149.827 111.296 149.433C111.929 149.022 112.406 148.615 112.725 148.214C113.062 147.808 113.269 147.437 113.346 147.1C113.423 146.764 113.458 146.513 113.451 146.348L108.043 147.797L107.096 144.261L119.238 141.007L122.101 151.693L117.473 152.933C117.409 152.764 117.321 152.574 117.209 152.363C117.096 152.152 116.964 151.936 116.813 151.717C116.678 151.493 116.538 151.279 116.391 151.077C116.244 150.875 116.114 150.706 116.003 150.568C115.906 150.761 115.729 151.069 115.47 151.491C115.207 151.896 114.814 152.336 114.291 152.81C113.786 153.28 113.123 153.755 112.304 154.234C111.503 154.709 110.504 155.107 109.308 155.427L108.866 155.546Z" fill="#F2F2F2"/>
<path d="M136.142 148.237C133.958 148.822 132.057 149.007 130.438 148.79C128.837 148.569 127.469 148.109 126.334 147.41C125.217 146.706 124.323 145.831 123.652 144.785C122.977 143.721 122.493 142.643 122.201 141.551L122.033 140.927C121.848 140.234 121.733 139.493 121.689 138.706C121.645 137.919 121.702 137.124 121.858 136.32C122.032 135.512 122.329 134.717 122.752 133.935C123.169 133.136 123.757 132.384 124.516 131.679C125.27 130.957 126.207 130.297 127.329 129.699C128.451 129.101 129.791 128.594 131.351 128.176L132.235 127.939C134.558 127.316 136.525 127.031 138.136 127.082C139.765 127.129 141.106 127.382 142.158 127.844C143.228 128.3 144.045 128.889 144.61 129.611C145.175 130.333 145.557 131.066 145.757 131.812L145.778 131.89L139.304 133.624C139.22 133.517 139.067 133.363 138.846 133.162C138.637 132.939 138.299 132.751 137.831 132.598C137.363 132.445 136.748 132.368 135.986 132.368C135.224 132.367 134.263 132.523 133.101 132.834C131.957 133.141 131.043 133.543 130.36 134.042C129.671 134.524 129.165 135.059 128.839 135.648C128.509 136.219 128.328 136.825 128.295 137.466C128.28 138.101 128.354 138.723 128.516 139.329L128.6 139.641C128.758 140.231 129.013 140.803 129.366 141.359C129.737 141.909 130.215 142.376 130.8 142.758C131.398 143.118 132.12 143.351 132.967 143.459C133.83 143.562 134.834 143.46 135.978 143.154C137.07 142.861 137.935 142.518 138.572 142.124C139.205 141.713 139.681 141.307 140.001 140.905C140.338 140.499 140.545 140.128 140.622 139.792C140.699 139.455 140.734 139.204 140.727 139.039L135.319 140.488L134.372 136.952L146.513 133.699L149.377 144.384L144.749 145.624C144.685 145.456 144.597 145.266 144.485 145.054C144.372 144.843 144.24 144.628 144.089 144.408C143.954 144.184 143.813 143.971 143.666 143.769C143.519 143.567 143.39 143.397 143.279 143.26C143.182 143.453 143.005 143.76 142.746 144.183C142.483 144.587 142.09 145.027 141.567 145.502C141.061 145.972 140.399 146.446 139.58 146.926C138.778 147.401 137.78 147.798 136.584 148.119L136.142 148.237Z" fill="#F2F2F2"/>
<path d="M159.441 125.776L158.206 133.854L164.628 132.133L159.441 125.776ZM167.668 135.889L157.45 138.626L156.867 142.377L150.653 144.042L154.258 122.344L162.448 120.15L176.705 137.062L170.075 138.838L167.668 135.889Z" fill="#F2F2F2"/>
<path d="M191.64 112.328L192.831 116.774L180.456 120.09L181.208 122.898L193.194 119.686L194.427 124.288L182.441 127.499L183.242 130.489L195.774 127.132L196.979 131.629L178.286 136.638L173.103 117.295L191.64 112.328Z" fill="#F2F2F2"/>
<path d="M244.988 128.365C243.423 128.784 242.008 129.003 240.742 129.021C239.492 129.035 238.37 128.902 237.373 128.622C236.394 128.337 235.533 127.945 234.792 127.445C234.045 126.928 233.403 126.355 232.866 125.725C232.341 125.073 231.911 124.396 231.575 123.693C231.239 122.99 230.984 122.313 230.81 121.662L230.597 120.869C230.418 120.2 230.3 119.486 230.244 118.727C230.184 117.951 230.22 117.158 230.353 116.349C230.504 115.535 230.767 114.728 231.142 113.929C231.535 113.126 232.095 112.362 232.823 111.639C233.545 110.898 234.453 110.23 235.547 109.635C236.653 109.018 237.988 108.5 239.553 108.08L240.739 107.763C243.008 107.155 244.939 106.901 246.533 107.003C248.126 107.104 249.448 107.43 250.498 107.979C251.565 108.523 252.389 109.227 252.971 110.09C253.547 110.936 253.954 111.799 254.19 112.679L254.225 112.811L247.881 114.511C247.831 114.393 247.701 114.182 247.491 113.88C247.276 113.56 246.924 113.277 246.434 113.031C245.957 112.762 245.32 112.584 244.522 112.495C243.725 112.407 242.707 112.529 241.469 112.861C240.335 113.165 239.438 113.565 238.779 114.063C238.12 114.56 237.639 115.104 237.337 115.695C237.034 116.285 236.877 116.903 236.866 117.548C236.849 118.175 236.917 118.77 237.068 119.334L237.16 119.677C237.301 120.205 237.538 120.746 237.871 121.298C238.203 121.851 238.652 122.325 239.219 122.72C239.798 123.094 240.502 123.348 241.331 123.485C242.155 123.604 243.135 123.511 244.269 123.207C245.507 122.876 246.449 122.472 247.096 121.997C247.742 121.522 248.205 121.049 248.484 120.577C248.763 120.106 248.918 119.687 248.949 119.321C248.975 118.936 248.978 118.671 248.957 118.526L255.301 116.826L255.343 116.984C255.489 117.53 255.576 118.13 255.604 118.783C255.632 119.436 255.562 120.106 255.396 120.792C255.23 121.478 254.936 122.17 254.515 122.868C254.107 123.544 253.535 124.197 252.801 124.828C252.068 125.458 251.158 126.051 250.072 126.606C248.986 127.161 247.687 127.642 246.174 128.047L244.988 128.365Z" fill="#F2F2F2"/>
<path d="M255.007 104.279L261.17 102.628L263.074 109.733L273.26 107.003L271.356 99.8985L277.519 98.247L282.785 117.898L276.621 119.549L274.569 111.89L264.383 114.619L266.436 122.278L260.272 123.93L255.007 104.279Z" fill="#F2F2F2"/>
<path d="M292.708 115.239L286.545 116.89L281.28 97.2394L287.443 95.588L292.708 115.239Z" fill="#F2F2F2"/>
<path d="M297.372 92.9275L301.264 107.454L312.869 104.345L314.241 109.469L296.474 114.229L291.209 94.5789L297.372 92.9275Z" fill="#F2F2F2"/>
<path d="M317.903 87.4263L321.795 101.953L333.4 98.8436L334.772 103.967L317.005 108.728L311.74 89.0777L317.903 87.4263Z" fill="#F2F2F2"/>
<path d="M256.874 136.474L255.655 141.024L243.461 137.757L242.618 140.903L254.448 144.072L253.201 148.726L241.371 145.556L239.497 152.55L233.309 150.892L238.492 131.549L256.874 136.474Z" fill="#F2F2F2"/>
<path d="M265.923 159.937C264.207 159.478 262.775 158.927 261.628 158.285C260.503 157.631 259.597 156.923 258.909 156.163C258.221 155.403 257.727 154.611 257.427 153.788C257.132 152.947 256.955 152.119 256.895 151.304C256.834 150.489 256.861 149.698 256.974 148.929C257.104 148.165 257.255 147.463 257.427 146.821L259.977 137.305L266.165 138.964L263.636 148.401C263.487 148.956 263.394 149.544 263.358 150.166C263.321 150.788 263.418 151.399 263.647 151.999C263.894 152.604 264.319 153.164 264.925 153.679C265.552 154.181 266.446 154.588 267.607 154.899L267.737 154.934C268.898 155.245 269.867 155.338 270.644 155.211C271.426 155.068 272.066 154.794 272.565 154.388C273.063 153.983 273.444 153.5 273.706 152.939C273.985 152.382 274.199 151.826 274.347 151.271L276.876 141.834L283.064 143.492L280.514 153.007C280.342 153.649 280.113 154.33 279.827 155.053C279.541 155.775 279.157 156.48 278.675 157.168C278.198 157.839 277.615 158.454 276.927 159.013C276.238 159.571 275.406 160.008 274.43 160.322C273.472 160.641 272.35 160.805 271.066 160.814C269.786 160.806 268.323 160.581 266.677 160.139L265.923 159.937Z" fill="#F2F2F2"/>
<path d="M290.759 153.635L287.597 165.438L281.539 163.815L286.722 144.472L293.066 146.172L300.826 160.679L303.933 149.084L309.965 150.7L304.782 170.043L298.776 168.434L290.759 153.635Z" fill="#F2F2F2"/>
<path d="M308.586 171.063L313.769 151.719L319.957 153.377L317.888 161.099L328.459 155.655L335.998 157.675L323.842 163.837L331.361 177.165L323.406 175.033L317.149 163.855L314.774 172.721L308.586 171.063Z" fill="#F2F2F2"/>
<path d="M9.85388 106.208H2V101.313H24.0874V106.208H16.2335V120.688H9.85388V106.208Z" fill="#F2F2F2"/>
<path d="M33.2819 109.62H40.8142C41.3324 109.62 41.7523 109.576 42.074 109.49C42.4135 109.385 42.6816 109.247 42.8781 109.073C43.0747 108.899 43.2087 108.7 43.2802 108.474C43.3517 108.248 43.3874 108.014 43.3874 107.771V107.719C43.3874 107.493 43.3517 107.276 43.2802 107.068C43.2087 106.842 43.0747 106.651 42.8781 106.495C42.6816 106.321 42.4135 106.191 42.074 106.104C41.7523 106 41.3324 105.948 40.8142 105.948H33.2819V109.62ZM45.7195 111.365C46.3807 111.486 46.9883 111.668 47.5422 111.911C48.0962 112.155 48.5698 112.476 48.9629 112.875C49.356 113.257 49.6598 113.726 49.8743 114.281C50.1066 114.819 50.2227 115.453 50.2227 116.182V118.708C50.2227 119.316 50.2495 119.741 50.3031 119.984C50.3746 120.227 50.455 120.418 50.5444 120.557V120.688H43.9235C43.8878 120.618 43.8521 120.488 43.8163 120.297C43.7806 120.106 43.7627 119.811 43.7627 119.411V117.797C43.7627 117.172 43.7002 116.642 43.5751 116.208C43.45 115.774 43.2355 115.427 42.9318 115.167C42.6458 114.889 42.2616 114.689 41.7791 114.568C41.2966 114.446 40.7069 114.385 40.01 114.385H33.2819V120.688H26.8755V101.313H41.6719C43.5304 101.313 45.0136 101.477 46.1216 101.807C47.2295 102.137 48.0694 102.554 48.6412 103.057C49.2309 103.561 49.6152 104.125 49.7938 104.75C49.9725 105.375 50.0619 105.974 50.0619 106.547V106.781C50.0619 107.424 49.9457 108.005 49.7134 108.526C49.4811 109.03 49.1684 109.472 48.7753 109.854C48.3821 110.236 47.9175 110.557 47.3814 110.818C46.8632 111.061 46.3092 111.243 45.7195 111.365Z" fill="#F2F2F2"/>
<path d="M64.4137 105.818L61.1435 113.057H67.7643L64.4137 105.818ZM69.7211 117.328H59.1867L57.6588 120.688H51.2524L60.3125 101.313H68.7561L78.1111 120.688H71.2758L69.7211 117.328Z" fill="#F2F2F2"/>
<path d="M85.9868 108.865V120.688H79.7412V101.313H86.2816L97.4861 112.927V101.313H103.705V120.688H97.5129L85.9868 108.865Z" fill="#F2F2F2"/>
<path d="M118.751 121C117.125 121 115.695 120.852 114.462 120.557C113.247 120.262 112.193 119.863 111.299 119.359C110.423 118.856 109.691 118.283 109.101 117.641C108.511 116.981 108.038 116.295 107.68 115.583C107.341 114.854 107.1 114.125 106.957 113.396C106.814 112.667 106.742 111.981 106.742 111.339V110.557C106.742 109.898 106.814 109.212 106.957 108.5C107.1 107.771 107.341 107.05 107.68 106.339C108.038 105.627 108.502 104.95 109.074 104.307C109.664 103.665 110.406 103.101 111.299 102.615C112.193 102.111 113.247 101.72 114.462 101.443C115.695 101.148 117.125 101 118.751 101H119.984C122.343 101 124.282 101.243 125.801 101.729C127.32 102.215 128.517 102.84 129.393 103.604C130.286 104.368 130.903 105.219 131.242 106.156C131.582 107.076 131.751 107.97 131.751 108.839V108.969H125.157C125.139 108.847 125.068 108.622 124.943 108.292C124.818 107.944 124.55 107.597 124.139 107.25C123.746 106.885 123.174 106.564 122.423 106.286C121.673 106.009 120.654 105.87 119.367 105.87C118.188 105.87 117.214 106.017 116.446 106.312C115.677 106.608 115.07 106.99 114.623 107.458C114.176 107.927 113.863 108.457 113.685 109.047C113.506 109.62 113.417 110.184 113.417 110.74V111.078C113.417 111.599 113.506 112.155 113.685 112.745C113.863 113.335 114.176 113.882 114.623 114.385C115.088 114.872 115.704 115.28 116.472 115.609C117.241 115.922 118.215 116.078 119.394 116.078C120.681 116.078 121.699 115.939 122.45 115.661C123.201 115.384 123.772 115.062 124.166 114.698C124.559 114.333 124.818 113.986 124.943 113.656C125.068 113.309 125.139 113.066 125.157 112.927H131.751V113.083C131.751 113.622 131.68 114.194 131.537 114.802C131.394 115.41 131.153 116.009 130.813 116.599C130.474 117.189 130.009 117.753 129.419 118.292C128.847 118.813 128.124 119.273 127.248 119.672C126.373 120.071 125.336 120.392 124.139 120.635C122.941 120.878 121.557 121 119.984 121H118.751Z" fill="#F2F2F2"/>
<path d="M153.839 101.313V105.766H141.08V108.578H153.437V113.188H141.08V116.182H154V120.688H134.727V101.313H153.839Z" fill="#F2F2F2"/>
<path d="M158.944 102.626C157.564 102.554 156.362 102.354 155.337 102.028C154.313 101.683 153.446 101.255 152.736 100.744C152.028 100.215 151.447 99.6296 150.996 98.9869C150.562 98.3451 150.229 97.6812 149.995 96.9953C149.762 96.3093 149.609 95.6276 149.537 94.9501C149.465 94.2545 149.445 93.607 149.477 93.0078L149.484 92.8716L156.015 93.2139C156.016 93.5235 156.05 93.9077 156.116 94.3663C156.2 94.8259 156.365 95.2716 156.612 95.7033C156.859 96.135 157.217 96.5088 157.685 96.8247C158.172 97.1415 158.818 97.3211 159.624 97.3633L159.732 97.369C160.52 97.4103 161.181 97.3174 161.714 97.0905C162.264 96.8644 162.703 96.5505 163.03 96.1489C163.374 95.7481 163.624 95.2696 163.779 94.7133C163.934 94.1569 164.027 93.5792 164.058 92.9799L164.619 82.2757L171.042 82.6123L170.473 93.48C170.44 94.1155 170.35 94.7937 170.205 95.5143C170.077 96.236 169.86 96.9529 169.553 97.6652C169.247 98.3592 168.835 99.0295 168.316 99.676C167.815 100.323 167.174 100.882 166.395 101.351C165.634 101.821 164.717 102.182 163.643 102.436C162.571 102.671 161.327 102.751 159.912 102.677L158.944 102.626Z" fill="#F2F2F2"/>
<path d="M184.825 88.0596L181.149 95.4597L187.788 95.8076L184.825 88.0596ZM189.515 100.377L178.953 99.8238L177.237 103.257L170.814 102.921L180.96 83.1321L189.426 83.5757L197.743 104.332L190.89 103.973L189.515 100.377Z" fill="#F2F2F2"/>
<path d="M198.921 104.394L199.145 100.117L211.649 89.8478L199.797 89.2266L200.064 84.1332L221.215 85.2418L220.992 89.4908L207.979 99.7063L220.53 100.364L220.261 105.512L198.921 104.394Z" fill="#F2F2F2"/>
<path d="M223.101 105.661L223.325 101.385L235.829 91.115L223.977 90.4938L224.244 85.4005L245.395 86.509L245.172 90.758L232.159 100.974L244.71 101.631L244.441 106.779L223.101 105.661Z" fill="#F2F2F2"/>
<g clip-path="url(#clip1_1453_15574)">
<path d="M39.875 135C39.875 137.581 40.6187 139.988 41.8875 142H64.0687C65.3375 139.988 66.0812 137.581 66.0812 135C66.0812 132.419 65.3375 130.013 64.0687 128H41.8875C40.6187 130.013 39.875 132.419 39.875 135Z" fill="#FFCE31"/>
<path d="M64.1127 128C61.7939 124.325 57.6814 121.875 53.0002 121.875C48.3189 121.875 44.2064 124.325 41.8877 128H64.1127ZM41.8877 142C44.2064 145.675 48.3189 148.125 53.0002 148.125C57.6814 148.125 61.7939 145.675 64.1127 142H41.8877Z" fill="#ED4C5C"/>
<path d="M43.0254 133.556H44.4254V134.344H43.0254V133.556ZM43.0254 139.331H44.4691V140.075H43.0254V139.331Z" fill="#C8B100"/>
<path d="M42.8936 138.106C42.7623 138.194 42.6748 138.281 42.6748 138.325C42.6748 138.369 42.7186 138.413 42.8061 138.456C42.8936 138.5 42.9811 138.588 42.9373 138.675C43.0248 138.588 43.0686 138.5 43.0686 138.413C43.0686 138.281 42.9811 138.15 42.8936 138.106Z" fill="#ED4C5C"/>
<path d="M43.2441 134.344H44.2504V139.331H43.2441V134.344Z" fill="white"/>
<path d="M45.2996 136.181C45.0809 136.094 44.6871 136.006 44.2496 136.006C44.1184 136.006 43.9434 136.006 43.7684 136.05C43.1559 136.138 42.6746 136.4 42.7184 136.575L42.4996 136.094C42.4559 135.875 42.9809 135.612 43.6371 135.481C43.8559 135.437 44.0746 135.438 44.2496 135.438C44.6871 135.438 45.0809 135.481 45.2996 135.569V136.181Z" fill="#ED4C5C"/>
<path d="M43.243 136.838C42.9805 136.838 42.7617 136.75 42.7617 136.619C42.7617 136.531 42.8492 136.4 43.0242 136.312H43.2867L43.243 136.838ZM44.2492 136.444C44.4242 136.487 44.5555 136.531 44.643 136.575C44.6867 136.619 44.5117 136.794 44.2492 136.925V136.444Z" fill="#ED4C5C"/>
<path d="M42.5872 137.8C42.5434 137.713 42.8497 137.538 43.2434 137.406C43.4184 137.363 43.5497 137.275 43.7684 137.188C44.2934 136.969 44.7309 136.663 44.6434 136.575L44.7309 137.1C44.7747 137.188 44.4247 137.45 43.8997 137.713C43.7247 137.8 43.4184 137.931 43.2434 137.975C42.9372 138.063 42.6747 138.238 42.6747 138.281L42.5872 137.8Z" fill="#ED4C5C"/>
<path d="M52.4314 133.556H53.8314V134.344H52.4314V133.556ZM52.3877 139.331H53.8314V140.075H52.3877V139.331Z" fill="#C8B100"/>
<path d="M53.9621 138.106C54.0934 138.194 54.1809 138.281 54.1809 138.325C54.1809 138.369 54.1371 138.413 54.0496 138.456C53.9621 138.544 53.8746 138.675 53.9184 138.719C53.8309 138.631 53.7871 138.544 53.7871 138.456C53.7871 138.281 53.8746 138.15 53.9621 138.106Z" fill="#ED4C5C"/>
<path d="M52.6064 134.344H53.6127V139.331H52.6064V134.344Z" fill="white"/>
<path d="M51.5557 136.181C51.7744 136.094 52.1682 136.006 52.6057 136.006C52.7369 136.006 52.9119 136.006 53.0869 136.05C53.6994 136.138 54.1807 136.4 54.1369 136.575L54.3557 136.05C54.3994 135.831 53.8744 135.569 53.2182 135.438H52.6057C52.1682 135.438 51.7744 135.481 51.5557 135.569V136.181Z" fill="#ED4C5C"/>
<path d="M53.6118 136.838C53.8743 136.838 54.093 136.75 54.093 136.619C54.093 136.531 54.0055 136.4 53.8305 136.312H53.568L53.6118 136.838ZM52.6055 136.444C52.4305 136.487 52.2993 136.531 52.2118 136.575C52.168 136.619 52.343 136.794 52.6055 136.925V136.444Z" fill="#ED4C5C"/>
<path d="M54.2684 137.8C54.3121 137.713 54.0059 137.538 53.6121 137.406C53.4371 137.363 53.3059 137.275 53.0871 137.188C52.5621 136.969 52.1246 136.663 52.2121 136.575L52.1246 137.1C52.0809 137.188 52.4309 137.45 52.9559 137.713C53.1309 137.8 53.4371 137.931 53.6121 137.975C53.9184 138.063 54.1809 138.281 54.1371 138.325L54.2684 137.8ZM48.4059 130.756C49.2371 130.756 50.9434 130.931 51.5559 131.544C50.8996 133.119 49.8496 132.463 48.4059 132.463C47.0059 132.463 45.9121 133.119 45.2559 131.544C45.8684 130.931 47.5309 130.756 48.4059 130.756Z" fill="#ED4C5C"/>
<path d="M50.5496 132.506C50.0246 132.2 49.2371 132.156 48.4059 132.156C47.5746 132.156 46.7871 132.244 46.2621 132.506L46.4371 133.25C46.9184 133.381 47.6184 133.469 48.4059 133.469C49.1934 133.469 49.8496 133.381 50.3746 133.25L50.5496 132.506ZM51.2934 130.625C51.1184 130.494 50.7684 130.362 50.4621 130.362C50.3309 130.362 50.1996 130.363 50.0684 130.406C50.0684 130.406 49.8059 130.056 49.1934 130.056C48.9746 130.056 48.7996 130.1 48.6246 130.188V130.144C48.5809 130.056 48.4934 129.969 48.4059 129.969C48.3184 129.969 48.1871 130.1 48.1871 130.188V130.231C48.0121 130.144 47.8371 130.1 47.6184 130.1C47.0059 130.1 46.7434 130.494 46.7434 130.45C46.6121 130.406 46.4809 130.406 46.3496 130.406C44.3371 130.406 45.3434 131.763 45.3434 131.763L45.5621 131.5C45.0809 130.887 45.5184 130.537 46.3934 130.537C46.5246 130.537 46.6121 130.537 46.6996 130.581C46.3934 131.019 46.9621 131.412 46.9621 131.412L47.0934 131.194C46.7871 130.975 46.7434 130.231 47.6184 130.231C47.8371 130.231 48.0121 130.275 48.1871 130.406C48.1871 130.45 48.1434 131.063 48.0996 131.15L48.4496 131.456L48.7996 131.15C48.7559 131.019 48.7121 130.45 48.7121 130.406C48.8434 130.319 49.0621 130.231 49.2809 130.231C50.1996 130.231 50.1996 130.975 49.8059 131.194L49.9371 131.412C49.9371 131.412 50.4184 131.019 50.1996 130.581C50.2871 130.581 50.4184 130.537 50.5059 130.537C51.5559 130.537 51.5996 131.325 51.3371 131.5L51.5121 131.763C51.4246 131.763 51.9059 131.15 51.2934 130.625Z" fill="#C8B100"/>
<path d="M48.1436 129.794C48.1436 129.663 48.2748 129.531 48.4061 129.531C48.5811 129.531 48.6686 129.663 48.6686 129.794C48.6686 129.925 48.5373 130.056 48.4061 130.056C48.2748 130.056 48.1436 129.925 48.1436 129.794Z" fill="#005BBF"/>
<path d="M48.3186 129.05V129.181H48.1873V129.312H48.3186V129.75H48.1436V129.881H48.6686L48.7123 129.794L48.6686 129.75H48.4936V129.312H48.6248V129.181H48.4936V129.05H48.3186Z" fill="#C8B100"/>
<path d="M48.4061 133.381C47.7061 133.381 47.0936 133.294 46.6123 133.163C47.0936 133.031 47.7061 132.944 48.4061 132.944C49.1061 132.944 49.7186 133.031 50.1998 133.163C49.7623 133.294 49.1061 133.381 48.4061 133.381Z" fill="#ED4C5C"/>
<path d="M48.4498 140.95C47.6186 140.95 46.8311 140.731 46.1311 140.425C45.6061 140.163 45.2998 139.681 45.2998 139.113V137.013H51.5998V139.113C51.5998 139.681 51.2498 140.206 50.7686 140.425C50.0686 140.775 49.2811 140.95 48.4498 140.95ZM48.4061 133.513H51.5561V137.013H48.4061V133.513Z" fill="white"/>
<path d="M48.4498 139.113C48.4498 139.944 47.7498 140.6 46.8748 140.6C45.9998 140.6 45.2998 139.944 45.2998 139.113V137.013H48.4498V139.113Z" fill="#ED4C5C"/>
<path d="M45.9559 140.337C46.0434 140.381 46.1746 140.469 46.3496 140.512V136.925H45.9996L45.9559 140.337ZM45.2559 139.069C45.2559 139.506 45.4309 139.856 45.6059 140.031V136.925H45.2559V139.069Z" fill="#C8B100"/>
<path d="M46.6562 140.6H47.0062V136.925H46.6562V140.6Z" fill="#C7B500"/>
<path d="M47.3564 140.512C47.4877 140.469 47.6627 140.381 47.7502 140.337V136.925H47.4002L47.3564 140.512Z" fill="#C8B100"/>
<path d="M45.2559 133.513H48.4059V137.013H45.2559V133.513Z" fill="#ED4C5C"/>
<path d="M48.0996 140.031C48.2746 139.9 48.4059 139.594 48.4496 139.244V136.969H48.0996V140.031Z" fill="#C8B100"/>
<path d="M51.5998 137.012V139.112C51.5998 139.944 50.8998 140.6 50.0248 140.6C49.1498 140.6 48.4498 139.944 48.4498 139.112V137.012H51.5998ZM50.4623 134.125C50.5936 134.387 50.5936 135.044 50.1998 134.912C50.2873 134.956 50.3311 135.262 50.4623 135.437C50.6811 135.7 50.9436 135.481 50.8998 135.175C50.8123 134.694 50.8561 134.387 50.9436 133.906C50.9436 133.95 51.1623 133.95 51.2498 133.862C51.2061 133.994 51.1623 134.169 51.2498 134.169C51.1623 134.3 50.9436 134.519 50.8998 134.65C50.8561 134.956 51.3373 135.525 50.8123 135.656C50.4623 135.744 50.6811 136.006 50.8123 136.137C50.8123 136.137 50.6373 136.706 50.7248 136.662C50.3748 136.794 50.4623 136.487 50.4623 136.487C50.6373 135.962 50.1561 135.919 50.1998 135.831C49.7623 135.787 50.2436 136.225 49.8498 136.225C49.7623 136.225 49.5873 136.312 49.5873 136.312C49.1061 136.269 49.3686 135.831 49.5436 135.875C49.6748 135.919 49.8061 136.137 49.8061 135.831C49.8061 135.831 49.5873 135.481 50.1561 135.481C49.9373 135.481 49.8061 135.306 49.7186 135.087C49.6311 135.131 49.4998 135.35 49.0186 135.394C49.0186 135.394 48.8873 134.912 49.0186 135C49.1936 135.087 49.2811 135.087 49.4561 134.912C49.3686 134.781 48.8436 134.606 48.9311 134.3C48.9311 134.212 49.1936 134.081 49.1936 134.081C49.1498 134.3 49.2811 134.519 49.5436 134.519C49.8936 134.562 49.7623 134.431 49.8061 134.344C49.8498 134.256 50.1123 134.387 50.0248 134.169C50.0248 134.125 49.7186 134.081 49.8061 133.95C49.9811 133.731 50.2436 133.906 50.4623 134.125ZM48.4498 140.512L48.3623 140.294L48.4498 140.031L48.5373 140.294L48.4498 140.512Z" fill="#ED4C5C"/>
<path d="M46.2186 134.256V134.475H46.3061V134.65H46.0873V135.088H46.2186V136.05H45.9561V136.531H47.7498V136.05H47.5311V135.088H47.6186V134.65H47.3998V134.475H47.5311V134.256H47.0936V134.475H47.1811V134.65H46.9623V134.125H47.0936V133.906H46.6123V134.125H46.7436V134.65H46.5248V134.475H46.6123V134.256H46.2186ZM51.1623 139.638V137.45H48.8873V139.638L49.9373 140.119H50.0686L51.1623 139.638ZM49.9373 137.625V138.369L49.1936 137.625H49.9373ZM49.0186 137.669L49.8936 138.544L49.0186 139.419V137.669ZM49.1061 139.594L49.9373 138.763V139.988L49.1061 139.594ZM50.0686 139.944V138.719L50.8998 139.55L50.0686 139.944ZM50.9873 139.419L50.1123 138.544L50.9873 137.669V139.419ZM50.0686 137.625H50.8123L50.0686 138.369V137.625Z" fill="#C8B100"/>
<path d="M47.4004 136.969C47.4004 136.312 47.8379 135.831 48.4066 135.831C48.9754 135.831 49.4129 136.356 49.4129 136.969C49.4129 137.581 48.9754 138.106 48.4066 138.106C47.8379 138.106 47.4004 137.625 47.4004 136.969Z" fill="#ED4C5C"/>
<path d="M47.7061 136.969C47.7061 136.488 48.0123 136.138 48.4061 136.138C48.7998 136.138 49.1061 136.531 49.1061 136.969C49.1061 137.45 48.7998 137.8 48.4061 137.8C48.0561 137.844 47.7061 137.45 47.7061 136.969Z" fill="#005BBF"/>
<path d="M48.0998 136.4L47.9248 136.881L48.0561 136.925L47.9686 137.1H48.2311L48.1436 136.925L48.2748 136.881L48.0998 136.4ZM48.7561 136.4L48.5811 136.881L48.7123 136.925L48.6248 137.1H48.8873L48.8436 136.925L48.9748 136.881L48.7561 136.4ZM48.4498 136.969L48.2311 137.45L48.3623 137.494L48.3186 137.669H48.5373L48.4936 137.494L48.6248 137.45L48.4498 136.969Z" fill="#C8B100"/>
</g>
<rect x="39.5" y="121.5" width="27" height="27" rx="13.5" stroke="#F2F2F2"/>
<g clip-path="url(#clip2_1453_15574)">
<path d="M293.725 182.375H315.862C315.468 180.45 314.637 178.656 313.5 177.125H293.725V182.375ZM293.725 187.625V192.875H313.5C314.637 191.344 315.468 189.55 315.862 187.625H293.725Z" fill="#F9F9F9"/>
<path d="M315.862 182.375H293.725V187.625H315.862C316.037 186.794 316.125 185.919 316.125 185C316.125 184.081 316.037 183.206 315.862 182.375ZM293.725 177.125H313.5C311.093 173.931 307.287 171.875 303 171.875C299.368 171.875 296.087 173.363 293.725 175.725V177.125ZM293.725 192.875V194.275C296.087 196.638 299.368 198.125 303 198.125C307.287 198.125 311.093 196.069 313.5 192.875H293.725Z" fill="#428BC1"/>
<path d="M293.725 175.725C291.363 178.088 289.875 181.369 289.875 185C289.875 188.631 291.363 191.913 293.725 194.275L303 185L293.725 175.725Z" fill="#ED4C5C"/>
<path d="M293.375 187.625L295.125 186.4L296.875 187.625L296.219 185.613L297.969 184.344H295.781L295.125 182.375L294.469 184.344H292.281L294.031 185.613L293.375 187.625Z" fill="#F9F9F9"/>
</g>
<rect x="289.5" y="171.5" width="27" height="27" rx="13.5" stroke="#F2F2F2"/>
<g clip-path="url(#clip3_1453_15574)">
<path d="M222.913 121.875C217.225 121.875 212.369 125.55 210.575 130.625H235.338C233.5 125.55 228.644 121.875 222.913 121.875Z" fill="#F2B200"/>
<path d="M222.913 148.125C228.644 148.125 233.5 144.494 235.294 139.375H210.575C212.369 144.494 217.225 148.125 222.913 148.125Z" fill="#83BF4F"/>
<path d="M210.575 130.625C210.094 131.981 209.831 133.469 209.831 135C209.831 136.531 210.094 138.019 210.575 139.375H235.337C235.819 138.019 236.081 136.531 236.081 135C236.081 133.469 235.819 131.981 235.337 130.625H210.575Z" fill="white"/>
<path d="M222.912 138.5C224.845 138.5 226.412 136.933 226.412 135C226.412 133.067 224.845 131.5 222.912 131.5C220.979 131.5 219.412 133.067 219.412 135C219.412 136.933 220.979 138.5 222.912 138.5Z" fill="#428BC1"/>
<path d="M222.912 138.062C224.603 138.062 225.975 136.691 225.975 135C225.975 133.309 224.603 131.938 222.912 131.938C221.221 131.938 219.85 133.309 219.85 135C219.85 136.691 221.221 138.062 222.912 138.062Z" fill="white"/>
<path d="M221.774 132.375C221.895 132.375 221.993 132.277 221.993 132.156C221.993 132.035 221.895 131.938 221.774 131.938C221.654 131.938 221.556 132.035 221.556 132.156C221.556 132.277 221.654 132.375 221.774 132.375Z" fill="#428BC1"/>
<path d="M221.075 132.769C221.196 132.769 221.294 132.671 221.294 132.55C221.294 132.429 221.196 132.331 221.075 132.331C220.954 132.331 220.856 132.429 220.856 132.55C220.856 132.671 220.954 132.769 221.075 132.769Z" fill="#428BC1"/>
<path d="M220.506 133.338C220.627 133.338 220.725 133.24 220.725 133.119C220.725 132.998 220.627 132.9 220.506 132.9C220.385 132.9 220.287 132.998 220.287 133.119C220.287 133.24 220.385 133.338 220.506 133.338Z" fill="#428BC1"/>
<path d="M220.112 134.038C220.233 134.038 220.331 133.94 220.331 133.819C220.331 133.698 220.233 133.6 220.112 133.6C219.991 133.6 219.894 133.698 219.894 133.819C219.894 133.94 219.991 134.038 220.112 134.038Z" fill="#428BC1"/>
<path d="M219.894 134.825C220.014 134.825 220.112 134.727 220.112 134.606C220.112 134.485 220.014 134.388 219.894 134.388C219.773 134.388 219.675 134.485 219.675 134.606C219.675 134.727 219.773 134.825 219.894 134.825Z" fill="#428BC1"/>
<path d="M219.894 135.612C220.014 135.612 220.112 135.514 220.112 135.394C220.112 135.273 220.014 135.175 219.894 135.175C219.773 135.175 219.675 135.273 219.675 135.394C219.675 135.514 219.773 135.612 219.894 135.612Z" fill="#428BC1"/>
<path d="M220.112 136.4C220.233 136.4 220.331 136.302 220.331 136.181C220.331 136.06 220.233 135.962 220.112 135.962C219.991 135.962 219.894 136.06 219.894 136.181C219.894 136.302 219.991 136.4 220.112 136.4Z" fill="#428BC1"/>
<path d="M220.506 137.1C220.627 137.1 220.725 137.002 220.725 136.881C220.725 136.76 220.627 136.663 220.506 136.663C220.385 136.663 220.287 136.76 220.287 136.881C220.287 137.002 220.385 137.1 220.506 137.1Z" fill="#428BC1"/>
<path d="M221.075 137.669C221.196 137.669 221.294 137.571 221.294 137.45C221.294 137.329 221.196 137.231 221.075 137.231C220.954 137.231 220.856 137.329 220.856 137.45C220.856 137.571 220.954 137.669 221.075 137.669Z" fill="#428BC1"/>
<path d="M221.774 138.062C221.895 138.062 221.993 137.965 221.993 137.844C221.993 137.723 221.895 137.625 221.774 137.625C221.654 137.625 221.556 137.723 221.556 137.844C221.556 137.965 221.654 138.062 221.774 138.062Z" fill="#428BC1"/>
<path d="M222.519 138.237C222.639 138.237 222.737 138.139 222.737 138.019C222.737 137.898 222.639 137.8 222.519 137.8C222.398 137.8 222.3 137.898 222.3 138.019C222.3 138.139 222.398 138.237 222.519 138.237Z" fill="#428BC1"/>
<path d="M223.131 138.062C223.131 137.931 223.218 137.844 223.306 137.8C223.437 137.8 223.525 137.887 223.568 137.975C223.568 138.106 223.481 138.194 223.393 138.237C223.218 138.281 223.131 138.194 223.131 138.062Z" fill="#428BC1"/>
<path d="M224.094 138.062C224.215 138.062 224.312 137.965 224.312 137.844C224.312 137.723 224.215 137.625 224.094 137.625C223.973 137.625 223.875 137.723 223.875 137.844C223.875 137.965 223.973 138.062 224.094 138.062Z" fill="#428BC1"/>
<path d="M224.794 137.669C224.915 137.669 225.013 137.571 225.013 137.45C225.013 137.329 224.915 137.231 224.794 137.231C224.673 137.231 224.575 137.329 224.575 137.45C224.575 137.571 224.673 137.669 224.794 137.669Z" fill="#428BC1"/>
<path d="M225.362 137.1C225.483 137.1 225.581 137.002 225.581 136.881C225.581 136.76 225.483 136.663 225.362 136.663C225.241 136.663 225.144 136.76 225.144 136.881C225.144 137.002 225.241 137.1 225.362 137.1Z" fill="#428BC1"/>
<path d="M225.756 136.4C225.877 136.4 225.975 136.302 225.975 136.181C225.975 136.061 225.877 135.963 225.756 135.963C225.635 135.963 225.537 136.061 225.537 136.181C225.537 136.302 225.635 136.4 225.756 136.4Z" fill="#428BC1"/>
<path d="M225.975 135.612C226.095 135.612 226.193 135.514 226.193 135.394C226.193 135.273 226.095 135.175 225.975 135.175C225.854 135.175 225.756 135.273 225.756 135.394C225.756 135.514 225.854 135.612 225.975 135.612Z" fill="#428BC1"/>
<path d="M225.974 134.825C225.843 134.825 225.756 134.738 225.712 134.65C225.712 134.519 225.799 134.431 225.887 134.388C226.018 134.388 226.106 134.475 226.149 134.563C226.193 134.694 226.106 134.781 225.974 134.825Z" fill="#428BC1"/>
<path d="M225.756 134.038C225.877 134.038 225.975 133.94 225.975 133.819C225.975 133.698 225.877 133.6 225.756 133.6C225.635 133.6 225.537 133.698 225.537 133.819C225.537 133.94 225.635 134.038 225.756 134.038Z" fill="#428BC1"/>
<path d="M225.362 133.337C225.483 133.337 225.581 133.239 225.581 133.119C225.581 132.998 225.483 132.9 225.362 132.9C225.241 132.9 225.144 132.998 225.144 133.119C225.144 133.239 225.241 133.337 225.362 133.337Z" fill="#428BC1"/>
<path d="M224.794 132.769C224.915 132.769 225.013 132.671 225.013 132.55C225.013 132.429 224.915 132.331 224.794 132.331C224.673 132.331 224.575 132.429 224.575 132.55C224.575 132.671 224.673 132.769 224.794 132.769Z" fill="#428BC1"/>
<path d="M224.312 132.244C224.269 132.375 224.137 132.419 224.006 132.375C223.875 132.331 223.831 132.2 223.875 132.069C223.919 131.938 224.05 131.894 224.181 131.938C224.312 132.025 224.356 132.156 224.312 132.244ZM223.525 131.981C223.525 132.113 223.394 132.2 223.262 132.156C223.131 132.156 223.044 132.025 223.087 131.894C223.087 131.763 223.219 131.675 223.35 131.719C223.481 131.763 223.569 131.894 223.525 131.981ZM222.737 131.938C222.737 132.069 222.65 132.156 222.562 132.2C222.431 132.2 222.344 132.113 222.3 132.025C222.3 131.894 222.387 131.806 222.475 131.763C222.606 131.719 222.737 131.806 222.737 131.938Z" fill="#428BC1"/>
<path d="M222.912 135.656C223.275 135.656 223.568 135.362 223.568 135C223.568 134.638 223.275 134.344 222.912 134.344C222.55 134.344 222.256 134.638 222.256 135C222.256 135.362 222.55 135.656 222.912 135.656Z" fill="#428BC1"/>
<path d="M222.912 131.938L222.825 133.819L222.912 135L223.044 133.819L222.912 131.938ZM222.125 132.025L222.519 133.906L222.912 135L222.738 133.819L222.125 132.025Z" fill="#428BC1"/>
<path d="M221.381 132.331L222.256 134.037L222.912 135L222.431 133.906L221.381 132.331ZM220.769 132.812L222.037 134.256L222.912 135L222.169 134.081L220.769 132.812Z" fill="#428BC1"/>
<path d="M220.287 133.469L221.862 134.519L222.912 135L221.95 134.3L220.287 133.469Z" fill="#428BC1"/>
<path d="M219.981 134.213L221.775 134.781L222.912 135L221.818 134.606L219.981 134.213ZM219.85 135L221.775 135.088L222.912 135L221.775 134.913L219.85 135Z" fill="#428BC1"/>
<path d="M219.981 135.787L221.819 135.394L222.913 135L221.775 135.219L219.981 135.787ZM220.288 136.531L221.95 135.7L222.913 135L221.863 135.481L220.288 136.531Z" fill="#428BC1"/>
<path d="M220.769 137.144L222.169 135.919L222.912 135L222.037 135.744L220.769 137.144ZM221.381 137.669L222.431 136.05L222.912 135L222.256 135.963L221.381 137.669Z" fill="#428BC1"/>
<path d="M222.125 137.975L222.737 136.181L222.912 135L222.519 136.094L222.125 137.975ZM222.912 138.062L223.044 136.181L222.912 135L222.825 136.181L222.912 138.062ZM223.7 137.975L223.35 136.094L222.912 135L223.131 136.181L223.7 137.975Z" fill="#428BC1"/>
<path d="M224.443 137.669L223.612 135.963L222.912 135L223.437 136.094L224.443 137.669ZM225.1 137.144L223.831 135.744L222.912 135L223.7 135.919L225.1 137.144Z" fill="#428BC1"/>
<path d="M225.581 136.531L224.006 135.481L222.912 135L223.875 135.7L225.581 136.531ZM225.887 135.788L224.093 135.219L222.912 135L224.05 135.394L225.887 135.788ZM225.975 135L224.093 134.869L222.912 135L224.093 135.088L225.975 135ZM225.887 134.213L224.05 134.606L222.912 135L224.093 134.781L225.887 134.213Z" fill="#428BC1"/>
<path d="M225.581 133.469L223.875 134.3L222.912 135L224.006 134.519L225.581 133.469ZM225.1 132.856L223.7 134.081L222.912 135L223.831 134.256L225.1 132.856Z" fill="#428BC1"/>
<path d="M224.443 132.331L223.437 133.95L222.912 135L223.612 134.037L224.443 132.331Z" fill="#428BC1"/>
<path d="M223.743 132.025L223.131 133.819L222.912 135L223.35 133.906L223.743 132.025Z" fill="#428BC1"/>
</g>
<rect x="209.5" y="121.5" width="27" height="27" rx="13.5" stroke="#F2F2F2"/>
</g>
<defs>
<clipPath id="clip0_1453_15574">
<rect width="335" height="200" rx="12" fill="white"/>
</clipPath>
<clipPath id="clip1_1453_15574">
<rect x="39" y="121" width="28" height="28" rx="14" fill="white"/>
</clipPath>
<clipPath id="clip2_1453_15574">
<rect x="289" y="171" width="28" height="28" rx="14" fill="white"/>
</clipPath>
<clipPath id="clip3_1453_15574">
<rect x="209" y="121" width="28" height="28" rx="14" fill="white"/>
</clipPath>
</defs>
</svg>
