<svg width="1840" height="335" viewBox="0 405 1840 335" fill="none" xmlns="http://www.w3.org/2000/svg">
    <g clip-path="url(#clip0_1442_16547)">
        <path d="M34.416 659.006L28.044 682.787L3.33298 676.165L23.9449 599.241L78.123 613.758C84.7402 615.531 90.0446 617.654 94.0362 620.127C98.1152 622.55 101.125 625.24 103.066 628.198C105.076 631.175 106.173 634.387 106.357 637.835C106.629 641.232 106.257 644.826 105.241 648.617L104.909 649.858C103.911 653.58 102.427 656.913 100.456 659.858C98.5727 662.751 96.0073 665.019 92.7601 666.661C89.5128 668.302 85.508 669.187 80.7456 669.315C76.0522 669.461 70.4313 668.657 63.8831 666.902L34.416 659.006ZM39.3473 640.602L66.7466 647.944C70.6066 648.978 73.4888 648.975 75.393 647.933C77.3847 646.842 78.7038 645.09 79.3502 642.677L79.4333 642.367C80.0428 640.092 79.7488 638.019 78.5513 636.147C77.4412 634.224 74.9561 632.745 71.0961 631.711L43.6969 624.369L39.3473 640.602Z" fill="#F2F2F2"/>
        <path d="M172.671 637.762C179.082 639.48 184.551 641.536 189.081 643.932C193.679 646.346 197.478 648.989 200.476 651.861C203.543 654.752 205.907 657.786 207.567 660.964C209.246 664.074 210.396 667.226 211.017 670.422C211.726 673.567 211.959 676.695 211.716 679.807C211.542 682.937 211.095 685.846 210.375 688.534L209.544 691.636C208.454 695.703 206.62 699.792 204.041 703.903C201.461 708.014 197.872 711.485 193.272 714.315C188.741 717.165 183.041 718.999 176.172 719.818C169.304 720.637 161.044 719.754 151.394 717.168L146.742 715.921C140.331 714.204 134.827 712.138 130.228 709.724C125.717 707.259 121.928 704.581 118.861 701.691C115.881 698.75 113.561 695.691 111.901 692.512C110.241 689.334 109.066 686.138 108.375 682.924C107.773 679.659 107.549 676.497 107.704 673.435C107.947 670.324 108.428 667.424 109.149 664.735L109.98 661.634C110.719 658.877 111.752 656.124 113.079 653.377C114.493 650.579 116.259 647.987 118.377 645.599C120.581 643.161 123.188 641.015 126.196 639.161C129.223 637.239 132.753 635.784 136.786 634.796C140.887 633.826 145.498 633.436 150.619 633.626C155.808 633.835 161.608 634.798 168.018 636.515L172.671 637.762ZM184.408 682.463C184.962 680.395 185.234 678.141 185.223 675.7C185.231 673.19 184.597 670.73 183.322 668.32C182.116 665.928 180.059 663.678 177.152 661.569C174.314 659.479 170.344 657.75 165.243 656.384C160.074 654.998 155.737 654.501 152.234 654.893C148.731 655.284 145.825 656.204 143.516 657.654C141.206 659.104 139.427 660.917 138.179 663.095C136.949 665.203 136.057 667.291 135.503 669.359L135.143 670.703C134.589 672.771 134.308 675.06 134.3 677.57C134.362 680.098 135.021 682.602 136.277 685.081C137.621 687.51 139.703 689.804 142.523 691.963C145.361 694.053 149.296 695.772 154.328 697.121C159.429 698.487 163.731 698.975 167.234 698.584C170.825 698.143 173.74 697.188 175.98 695.719C178.308 694.201 180.096 692.353 181.344 690.175C182.593 687.998 183.494 685.875 184.048 683.807L184.408 682.463Z" fill="#F2F2F2"/>
        <path d="M242.37 714.727L235.998 738.508L211.287 731.887L231.899 654.962L286.077 669.479C292.694 671.252 297.999 673.375 301.99 675.848C306.069 678.271 309.079 680.961 311.02 683.919C313.03 686.896 314.127 690.108 314.311 693.556C314.583 696.953 314.211 700.547 313.195 704.338L312.863 705.579C311.865 709.301 310.381 712.635 308.41 715.579C306.527 718.472 303.961 720.74 300.714 722.382C297.467 724.024 293.462 724.908 288.7 725.036C284.006 725.182 278.385 724.378 271.837 722.623L242.37 714.727ZM247.301 696.323L274.701 703.665C278.561 704.699 281.443 704.696 283.347 703.655C285.339 702.563 286.658 700.811 287.304 698.398L287.387 698.088C287.997 695.814 287.703 693.74 286.505 691.868C285.395 689.945 282.91 688.466 279.05 687.432L251.651 680.091L247.301 696.323Z" fill="#F2F2F2"/>
        <path d="M330.948 636.717L360.712 641.055C362.759 641.354 364.445 641.419 365.767 641.251C367.171 641.023 368.312 640.613 369.192 640.02C370.071 639.427 370.719 638.692 371.136 637.815C371.552 636.938 371.832 636.006 371.976 635.017L372.007 634.805C372.141 633.887 372.128 632.984 371.969 632.095C371.821 631.136 371.404 630.282 370.72 629.533C370.046 628.714 369.064 628.03 367.774 627.482C366.565 626.873 364.936 626.419 362.888 626.12L333.124 621.782L330.948 636.717ZM379.061 650.977C381.602 651.852 383.894 652.944 385.939 654.251C387.984 655.559 389.665 657.138 390.982 658.989C392.309 660.769 393.232 662.85 393.75 665.233C394.349 667.556 394.432 670.2 394 673.166L392.502 683.441C392.142 685.912 391.996 687.658 392.064 688.677C392.202 689.707 392.407 690.53 392.677 691.146L392.6 691.676L366.438 687.863C366.337 687.56 366.273 687.01 366.245 686.212C366.217 685.415 366.322 684.204 366.558 682.58L367.516 676.013C367.886 673.471 367.953 671.281 367.716 669.444C367.479 667.606 366.837 666.07 365.791 664.836C364.826 663.542 363.426 662.508 361.592 661.736C359.757 660.964 357.463 660.377 354.709 659.976L328.123 656.101L324.387 681.734L299.071 678.045L310.557 599.239L369.026 607.76C376.37 608.831 382.133 610.356 386.315 612.336C390.498 614.315 393.57 616.494 395.531 618.871C397.563 621.258 398.747 623.775 399.082 626.42C399.418 629.065 399.416 631.552 399.076 633.883L398.937 634.836C398.557 637.449 397.753 639.747 396.526 641.732C395.31 643.646 393.811 645.267 392.031 646.594C390.251 647.921 388.225 648.96 385.952 649.71C383.76 650.4 381.463 650.823 379.061 650.977Z" fill="#F2F2F2"/>
        <path d="M466.385 620.652C472.952 621.609 478.625 623.013 483.403 624.863C488.252 626.724 492.333 628.905 495.646 631.407C499.03 633.919 501.732 636.657 503.752 639.62C505.783 642.512 507.293 645.508 508.283 648.609C509.355 651.65 509.951 654.73 510.074 657.848C510.267 660.977 510.163 663.919 509.761 666.673L509.298 669.851C508.691 674.017 507.347 678.292 505.265 682.676C503.184 687.06 500.024 690.927 495.786 694.275C491.619 697.634 486.172 700.121 479.447 701.737C472.721 703.353 464.415 703.441 454.529 702L449.762 701.305C443.195 700.348 437.487 698.939 432.638 697.079C427.87 695.158 423.794 692.941 420.411 690.429C417.108 687.856 414.446 685.088 412.426 682.126C410.406 679.163 408.865 676.126 407.805 673.015C406.824 669.843 406.233 666.728 406.03 663.67C405.907 660.551 406.047 657.615 406.448 654.861L406.911 651.683C407.323 648.858 408.027 646.004 409.024 643.121C410.103 640.177 411.554 637.396 413.377 634.777C415.282 632.098 417.62 629.662 420.392 627.47C423.174 625.207 426.509 623.35 430.399 621.897C434.359 620.455 438.893 619.53 444 619.12C449.179 618.721 455.051 619 461.619 619.957L466.385 620.652ZM483.263 663.676C483.572 661.558 483.578 659.287 483.282 656.864C482.997 654.371 482.08 652.002 480.532 649.757C479.055 647.522 476.75 645.528 473.616 643.773C470.553 642.028 466.409 640.775 461.183 640.014C455.887 639.242 451.522 639.255 448.089 640.052C444.655 640.85 441.877 642.104 439.752 643.813C437.628 645.523 436.073 647.532 435.088 649.84C434.113 652.078 433.471 654.256 433.162 656.374L432.961 657.751C432.653 659.87 432.641 662.176 432.927 664.669C433.283 667.173 434.23 669.583 435.767 671.898C437.386 674.153 439.721 676.188 442.774 678.003C445.837 679.748 449.946 680.996 455.101 681.747C460.326 682.509 464.656 682.491 468.089 681.693C471.604 680.835 474.388 679.546 476.441 677.826C478.576 676.046 480.136 674.002 481.121 671.693C482.107 669.385 482.754 667.172 483.062 665.053L483.263 663.676Z" fill="#F2F2F2"/>
        <path d="M559.503 717.299C553.077 716.363 547.515 714.939 542.818 713.029C538.191 711.128 534.262 708.897 531.029 706.335C527.868 703.783 525.312 701.03 523.363 698.078C521.424 695.055 519.959 691.993 518.968 688.892C518.059 685.731 517.538 682.626 517.405 679.578C517.273 676.53 517.397 673.699 517.778 671.086L518.241 667.909C518.632 665.225 519.321 662.477 520.308 659.664C521.305 656.781 522.685 653.989 524.449 651.29C526.283 648.6 528.52 646.114 531.161 643.831C533.872 641.557 537.137 639.69 540.956 638.227C544.785 636.694 549.183 635.712 554.149 635.282C559.197 634.792 564.933 635.015 571.359 635.952L576.232 636.662C585.553 638.02 593.07 640.125 598.784 642.977C604.498 645.829 608.859 649.061 611.866 652.672C614.944 656.294 616.876 660.109 617.662 664.118C618.458 668.056 618.599 671.79 618.084 675.321L618.007 675.851L591.951 672.053C591.952 671.549 591.803 670.589 591.505 669.176C591.216 667.691 590.363 666.125 588.944 664.476C587.607 662.766 585.538 661.131 582.737 659.569C579.935 658.006 575.993 656.855 570.909 656.114C566.248 655.435 562.312 655.474 559.101 656.232C555.889 656.99 553.262 658.193 551.219 659.843C549.175 661.492 547.626 663.466 546.57 665.764C545.524 667.991 544.836 670.234 544.507 672.494L544.306 673.871C543.998 675.99 544.021 678.301 544.378 680.804C544.734 683.308 545.645 685.713 547.112 688.018C548.66 690.263 550.854 692.277 553.695 694.061C556.546 695.775 560.302 696.971 564.963 697.651C570.047 698.392 574.155 698.413 577.285 697.716C580.415 697.018 582.866 696.041 584.635 694.785C586.405 693.528 587.635 692.265 588.324 690.996C589.025 689.655 589.451 688.708 589.604 688.153L615.661 691.951L615.568 692.586C615.249 694.775 614.627 697.065 613.702 699.454C612.777 701.843 611.468 704.14 609.777 706.346C608.085 708.551 605.915 710.578 603.265 712.428C600.697 714.217 597.564 715.671 593.868 716.791C590.171 717.911 585.885 718.62 581.009 718.919C576.134 719.218 570.59 718.915 564.375 718.009L559.503 717.299Z" fill="#F2F2F2"/>
        <path d="M622.819 725.229L634.305 646.424L659.514 650.098L654.929 681.557L694.151 655.146L724.868 659.623L679.718 689.604L715.607 738.753L683.195 734.029L653.293 692.784L648.029 728.904L622.819 725.229Z" fill="#F2F2F2"/>
        <path d="M512.544 585.301H542.577C544.644 585.301 546.318 585.122 547.601 584.763C548.955 584.333 550.023 583.76 550.807 583.043C551.591 582.326 552.125 581.502 552.41 580.57C552.695 579.638 552.838 578.67 552.838 577.667V577.452C552.838 576.52 552.695 575.624 552.41 574.763C552.125 573.832 551.591 573.043 550.807 572.398C550.023 571.681 548.955 571.143 547.601 570.785C546.318 570.355 544.644 570.14 542.577 570.14H512.544V585.301ZM562.136 592.505C564.773 593.007 567.195 593.76 569.404 594.763C571.613 595.767 573.501 597.093 575.069 598.742C576.636 600.319 577.848 602.254 578.703 604.548C579.629 606.771 580.092 609.387 580.092 612.398V622.828C580.092 625.337 580.199 627.093 580.413 628.097C580.698 629.1 581.018 629.889 581.375 630.462V631H554.975C554.833 630.713 554.69 630.176 554.548 629.387C554.405 628.599 554.334 627.38 554.334 625.731V619.065C554.334 616.484 554.085 614.297 553.586 612.505C553.087 610.713 552.232 609.28 551.021 608.204C549.881 607.057 548.349 606.233 546.425 605.731C544.501 605.229 542.15 604.978 539.371 604.978H512.544V631H487V551H545.998C553.408 551 559.322 551.681 563.74 553.043C568.157 554.405 571.506 556.125 573.786 558.204C576.138 560.283 577.67 562.613 578.382 565.194C579.095 567.774 579.451 570.247 579.451 572.613V573.581C579.451 576.233 578.988 578.634 578.061 580.785C577.135 582.864 575.888 584.692 574.321 586.269C572.753 587.846 570.901 589.172 568.763 590.247C566.697 591.251 564.488 592.004 562.136 592.505Z" fill="#F2F2F2"/>
        <path d="M627.39 588.957V608.527H590.73V588.957H627.39Z" fill="#F2F2F2"/>
        <path d="M665.914 582.183V631H641.011V551H667.09L711.765 598.957V551H736.561V631H711.872L665.914 582.183Z" fill="#F2F2F2"/>
        <path d="M786.828 588.957V608.527H750.169V588.957H786.828Z" fill="#F2F2F2"/>
        <path d="M800.45 551H862.76C868.461 551 873.163 551.538 876.869 552.613C880.645 553.688 883.638 555.122 885.846 556.914C888.055 558.634 889.587 560.642 890.442 562.935C891.369 565.158 891.832 567.452 891.832 569.817V570.785C891.832 573.366 891.333 575.624 890.335 577.559C889.338 579.495 888.055 581.108 886.488 582.398C884.991 583.688 883.353 584.692 881.571 585.409C879.861 586.125 878.258 586.591 876.762 586.806C878.899 587.165 881.108 587.774 883.388 588.634C885.668 589.423 887.735 590.606 889.587 592.183C891.511 593.76 893.043 595.731 894.183 598.097C895.394 600.462 896 603.294 896 606.591V607.667C896 610.677 895.466 613.581 894.397 616.376C893.399 619.172 891.654 621.681 889.16 623.903C886.666 626.054 883.281 627.774 879.006 629.065C874.731 630.355 869.387 631 862.974 631H800.45V551ZM825.994 568.742V581.645H856.989C860.195 581.645 862.369 581.036 863.509 579.817C864.72 578.599 865.326 577.093 865.326 575.301V575.086C865.326 573.222 864.72 571.717 863.509 570.57C862.369 569.351 860.195 568.742 856.989 568.742H825.994ZM825.994 598.204V612.398H859.02C860.943 612.398 862.511 612.183 863.722 611.753C864.934 611.323 865.896 610.785 866.608 610.14C867.321 609.423 867.784 608.634 867.998 607.774C868.283 606.914 868.425 606.054 868.425 605.194V604.763C868.425 603.903 868.283 603.079 867.998 602.29C867.784 601.43 867.321 600.713 866.608 600.14C865.896 599.566 864.934 599.1 863.722 598.742C862.511 598.384 860.943 598.204 859.02 598.204H825.994Z" fill="#F2F2F2"/>
        <path d="M176.748 589.65L205.802 581.865C207.8 581.329 209.374 580.723 210.522 580.046C211.721 579.281 212.607 578.453 213.181 577.561C213.755 576.668 214.059 575.737 214.095 574.767C214.13 573.797 214.019 572.829 213.76 571.864L213.705 571.658C213.465 570.762 213.096 569.937 212.599 569.184C212.083 568.361 211.363 567.742 210.438 567.325C209.495 566.838 208.323 566.599 206.921 566.605C205.569 566.524 203.894 566.751 201.895 567.287L172.842 575.071L176.748 589.65ZM226.579 583.723C229.258 583.522 231.796 583.617 234.191 584.01C236.587 584.402 238.755 585.188 240.696 586.367C242.619 587.477 244.289 589.024 245.708 591.008C247.176 592.905 248.298 595.301 249.074 598.196L251.761 608.225C252.408 610.638 252.964 612.299 253.429 613.208C253.963 614.099 254.477 614.775 254.969 615.234L255.108 615.751L229.569 622.594C229.358 622.355 229.081 621.875 228.74 621.153C228.399 620.432 228.016 619.279 227.592 617.693L225.874 611.283C225.209 608.802 224.404 606.764 223.46 605.17C222.516 603.576 221.319 602.419 219.871 601.699C218.472 600.892 216.778 600.496 214.787 600.512C212.797 600.529 210.458 600.897 207.77 601.617L181.818 608.571L188.522 633.592L163.811 640.213L143.199 563.289L200.272 547.996C207.441 546.075 213.338 545.197 217.962 545.362C222.587 545.526 226.27 546.312 229.011 547.72C231.821 549.11 233.903 550.953 235.258 553.25C236.612 555.546 237.594 557.832 238.203 560.107L238.452 561.037C239.136 563.588 239.307 566.017 238.965 568.325C238.604 570.564 237.869 572.645 236.759 574.567C235.649 576.49 234.198 578.246 232.407 579.834C230.667 581.334 228.724 582.631 226.579 583.723Z" fill="#F2F2F2"/>
        <path d="M319.735 515.986L324.472 533.666L275.257 546.854L278.249 558.02L325.913 545.249L330.817 563.549L283.153 576.321L286.338 588.211L336.174 574.858L340.967 592.745L266.627 612.664L246.015 535.739L319.735 515.986Z" fill="#F2F2F2"/>
        <path d="M396.169 579.172C387.484 581.5 379.923 582.233 373.486 581.371C367.119 580.492 361.679 578.662 357.166 575.882C352.722 573.083 349.167 569.603 346.501 565.442C343.816 561.211 341.891 556.925 340.728 552.582L340.063 550.101C339.324 547.344 338.868 544.4 338.694 541.27C338.52 538.14 338.744 534.977 339.365 531.781C340.056 528.567 341.24 525.406 342.919 522.296C344.579 519.118 346.917 516.127 349.934 513.324C352.932 510.452 356.662 507.828 361.122 505.45C365.583 503.073 370.915 501.053 377.119 499.391L380.634 498.449C389.87 495.974 397.693 494.839 404.101 495.043C410.578 495.228 415.909 496.237 420.094 498.071C424.348 499.886 427.599 502.229 429.845 505.099C432.092 507.97 433.612 510.887 434.407 513.851L434.49 514.161L408.745 521.059C408.409 520.632 407.801 520.019 406.922 519.22C406.094 518.334 404.748 517.586 402.886 516.977C401.024 516.368 398.578 516.063 395.549 516.062C392.519 516.061 388.695 516.679 384.077 517.917C379.528 519.136 375.894 520.738 373.175 522.722C370.438 524.638 368.422 526.766 367.129 529.107C365.817 531.38 365.096 533.789 364.965 536.336C364.904 538.864 365.197 541.335 365.843 543.747L366.175 544.988C366.803 547.331 367.82 549.608 369.224 551.817C370.698 554.008 372.599 555.863 374.926 557.382C377.305 558.813 380.176 559.743 383.542 560.171C386.976 560.58 390.968 560.176 395.517 558.957C399.86 557.793 403.299 556.428 405.834 554.862C408.351 553.228 410.245 551.612 411.517 550.015C412.857 548.4 413.681 546.924 413.987 545.586C414.293 544.248 414.432 543.25 414.404 542.593L392.898 548.355L389.13 534.294L437.415 521.356L448.801 563.85L430.397 568.782C430.144 568.111 429.794 567.355 429.347 566.515C428.9 565.674 428.375 564.817 427.772 563.945C427.237 563.053 426.678 562.206 426.093 561.402C425.508 560.599 424.995 559.924 424.553 559.377C424.168 560.145 423.461 561.369 422.434 563.048C421.387 564.658 419.824 566.407 417.744 568.294C415.733 570.162 413.099 572.05 409.842 573.957C406.655 575.846 402.683 577.427 397.926 578.701L396.169 579.172Z" fill="#F2F2F2"/>
        <path d="M504.639 550.108C495.954 552.435 488.393 553.168 481.957 552.307C475.589 551.427 470.149 549.598 465.636 546.817C461.192 544.019 457.637 540.539 454.971 536.377C452.286 532.147 450.362 527.86 449.198 523.518L448.533 521.036C447.794 518.279 447.338 515.335 447.164 512.205C446.99 509.075 447.214 505.912 447.836 502.717C448.526 499.503 449.71 496.341 451.389 493.232C453.049 490.053 455.388 487.063 458.404 484.26C461.403 481.388 465.132 478.763 469.593 476.386C474.053 474.009 479.385 471.989 485.589 470.327L489.104 469.385C498.341 466.91 506.163 465.774 512.571 465.978C519.048 466.163 524.379 467.173 528.564 469.007C532.819 470.822 536.069 473.165 538.316 476.035C540.562 478.905 542.083 481.822 542.877 484.786L542.96 485.096L517.215 491.995C516.879 491.568 516.271 490.955 515.393 490.156C514.564 489.27 513.219 488.522 511.356 487.913C509.494 487.304 507.048 486.999 504.019 486.998C500.989 486.997 497.166 487.615 492.547 488.852C487.998 490.071 484.364 491.673 481.645 493.658C478.908 495.573 476.892 497.701 475.599 500.043C474.287 502.315 473.566 504.725 473.436 507.271C473.374 509.8 473.667 512.27 474.313 514.683L474.646 515.923C475.274 518.267 476.29 520.543 477.695 522.753C479.168 524.944 481.069 526.798 483.397 528.317C485.775 529.749 488.647 530.678 492.012 531.106C495.446 531.516 499.438 531.111 503.987 529.892C508.33 528.729 511.769 527.364 514.304 525.798C516.821 524.163 518.716 522.547 519.987 520.951C521.327 519.336 522.151 517.859 522.457 516.521C522.763 515.183 522.902 514.185 522.874 513.528L501.368 519.291L497.601 505.229L545.885 492.291L557.272 534.786L538.868 539.717C538.614 539.047 538.264 538.291 537.817 537.45C537.37 536.609 536.845 535.753 536.242 534.88C535.707 533.989 535.148 533.142 534.563 532.338C533.978 531.534 533.465 530.859 533.023 530.313C532.638 531.081 531.931 532.304 530.904 533.983C529.858 535.593 528.295 537.342 526.215 539.229C524.203 541.098 521.569 542.986 518.313 544.893C515.125 546.781 511.153 548.362 506.397 549.637L504.639 550.108Z" fill="#F2F2F2"/>
        <path d="M597.296 460.785L592.383 492.909L617.921 486.066L597.296 460.785ZM630.013 501L589.379 511.887L587.059 526.804L562.348 533.426L576.684 447.137L609.252 438.41L665.949 505.666L639.583 512.731L630.013 501Z" fill="#F2F2F2"/>
        <path d="M725.344 407.304L730.081 424.984L680.866 438.171L683.858 449.337L731.522 436.566L736.426 454.866L688.762 467.638L691.948 479.528L741.783 466.175L746.576 484.062L672.236 503.981L651.624 427.057L725.344 407.304Z" fill="#F2F2F2"/>
        <path d="M1334.84 602C1328.36 602 1322.67 601.395 1317.75 600.185C1312.91 598.975 1308.71 597.338 1305.15 595.273C1301.67 593.209 1298.75 590.86 1296.4 588.227C1294.05 585.522 1292.16 582.71 1290.74 579.792C1289.38 576.802 1288.42 573.813 1287.85 570.823C1287.28 567.833 1287 565.022 1287 562.388V559.185C1287 556.48 1287.28 553.668 1287.85 550.75C1288.42 547.76 1289.38 544.806 1290.74 541.888C1292.16 538.97 1294.01 536.194 1296.29 533.56C1298.64 530.926 1301.59 528.613 1305.15 526.62C1308.71 524.556 1312.91 522.954 1317.75 521.815C1322.67 520.605 1328.36 520 1334.84 520H1339.75C1349.15 520 1356.87 520.997 1362.93 522.99C1368.98 524.983 1373.75 527.545 1377.24 530.677C1380.79 533.809 1383.25 537.297 1384.6 541.141C1385.96 544.913 1386.63 548.579 1386.63 552.138V552.672H1360.36C1360.29 552.174 1360.01 551.248 1359.51 549.896C1359.01 548.472 1357.94 547.049 1356.3 545.625C1354.74 544.13 1352.46 542.813 1349.47 541.674C1346.48 540.536 1342.42 539.966 1337.3 539.966C1332.6 539.966 1328.72 540.571 1325.66 541.781C1322.6 542.991 1320.18 544.557 1318.4 546.479C1316.62 548.401 1315.37 550.572 1314.66 552.992C1313.95 555.341 1313.59 557.655 1313.59 559.932V561.32C1313.59 563.456 1313.95 565.734 1314.66 568.154C1315.37 570.574 1316.62 572.816 1318.4 574.88C1320.25 576.873 1322.7 578.546 1325.76 579.898C1328.82 581.18 1332.7 581.82 1337.4 581.82C1342.53 581.82 1346.59 581.251 1349.58 580.112C1352.57 578.973 1354.85 577.656 1356.41 576.161C1357.98 574.667 1359.01 573.243 1359.51 571.891C1360.01 570.467 1360.29 569.47 1360.36 568.901H1386.63V569.542C1386.63 571.748 1386.35 574.097 1385.78 576.589C1385.21 579.08 1384.25 581.536 1382.89 583.956C1381.54 586.376 1379.69 588.689 1377.34 590.896C1375.06 593.031 1372.18 594.918 1368.69 596.555C1365.2 598.192 1361.07 599.509 1356.3 600.505C1351.54 601.502 1346.02 602 1339.75 602H1334.84Z" fill="#F2F2F2"/>
        <path d="M1398.49 521.281H1424.01V550.003H1466.19V521.281H1491.71V600.719H1466.19V569.755H1424.01V600.719H1398.49V521.281Z" fill="#F2F2F2"/>
        <path d="M1532.81 600.719H1507.29V521.281H1532.81V600.719Z" fill="#F2F2F2"/>
        <path d="M1573.92 521.281V580.005H1621.98V600.719H1548.4V521.281H1573.92Z" fill="#F2F2F2"/>
        <path d="M1658.95 521.281V580.005H1707V600.719H1633.42V521.281H1658.95Z" fill="#F2F2F2"/>
        <path d="M984.763 503.328L979.915 521.422L931.423 508.429L928.071 520.939L975.115 533.545L970.156 552.052L923.112 539.447L915.66 567.26L891.052 560.666L911.664 483.741L984.763 503.328Z" fill="#F2F2F2"/>
        <path d="M1020.75 596.637C1013.93 594.809 1008.23 592.618 1003.67 590.066C999.197 587.464 995.592 584.651 992.856 581.628C990.12 578.604 988.156 575.455 986.965 572.181C985.792 568.838 985.086 565.546 984.846 562.305C984.606 559.064 984.711 555.915 985.161 552.859C985.679 549.821 986.28 547.027 986.964 544.477L997.103 506.635L1021.71 513.228L1011.65 550.76C1011.06 552.966 1010.7 555.305 1010.55 557.778C1010.4 560.251 1010.79 562.681 1011.7 565.067C1012.68 567.473 1014.37 569.7 1016.78 571.748C1019.27 573.746 1022.83 575.364 1027.45 576.601L1027.96 576.74C1032.58 577.977 1036.44 578.345 1039.53 577.843C1042.63 577.272 1045.18 576.181 1047.16 574.57C1049.15 572.959 1050.66 571.037 1051.7 568.804C1052.81 566.59 1053.66 564.38 1054.25 562.174L1064.31 524.642L1088.92 531.236L1078.78 569.078C1078.09 571.628 1077.18 574.339 1076.04 577.211C1074.9 580.082 1073.38 582.887 1071.46 585.624C1069.57 588.293 1067.25 590.738 1064.51 592.959C1061.77 595.181 1058.46 596.917 1054.58 598.167C1050.77 599.436 1046.31 600.088 1041.2 600.123C1036.11 600.089 1030.3 599.195 1023.75 597.441L1020.75 596.637Z" fill="#F2F2F2"/>
        <path d="M1119.52 571.573L1106.94 618.513L1082.85 612.058L1103.46 535.134L1128.69 541.893L1159.55 599.587L1171.91 553.474L1195.9 559.901L1175.28 636.826L1151.4 630.426L1119.52 571.573Z" fill="#F2F2F2"/>
        <path d="M1190.41 640.879L1211.02 563.955L1235.63 570.548L1227.4 601.256L1269.44 579.607L1299.43 587.642L1251.08 612.144L1280.99 665.148L1249.35 656.671L1224.47 612.216L1215.02 647.473L1190.41 640.879Z" fill="#F2F2F2"/>
        <path d="M804.364 679.354H773V659.281H861.204V679.354H829.84V738.719H804.364V679.354Z" fill="#F2F2F2"/>
        <path d="M897.922 693.341H928.001C930.071 693.341 931.748 693.163 933.032 692.807C934.388 692.38 935.459 691.811 936.244 691.099C937.029 690.387 937.564 689.569 937.849 688.643C938.135 687.718 938.277 686.757 938.277 685.76V685.547C938.277 684.622 938.135 683.732 937.849 682.878C937.564 681.952 937.029 681.169 936.244 680.529C935.459 679.817 934.388 679.283 933.032 678.927C931.748 678.5 930.071 678.286 928.001 678.286H897.922V693.341ZM947.59 700.495C950.231 700.993 952.657 701.74 954.869 702.737C957.082 703.734 958.973 705.05 960.543 706.688C962.113 708.253 963.326 710.175 964.182 712.453C965.11 714.66 965.574 717.258 965.574 720.247V730.604C965.574 733.095 965.681 734.839 965.895 735.836C966.18 736.832 966.501 737.615 966.858 738.185V738.719H940.418C940.276 738.434 940.133 737.9 939.99 737.117C939.847 736.334 939.776 735.124 939.776 733.487V726.867C939.776 724.305 939.526 722.134 939.027 720.354C938.527 718.575 937.671 717.151 936.458 716.083C935.316 714.944 933.782 714.126 931.855 713.628C929.928 713.129 927.573 712.88 924.79 712.88H897.922V738.719H872.338V659.281H931.427C938.848 659.281 944.771 659.957 949.196 661.31C953.62 662.662 956.974 664.371 959.258 666.435C961.613 668.499 963.147 670.813 963.861 673.375C964.575 675.938 964.931 678.393 964.931 680.742V681.703C964.931 684.337 964.468 686.721 963.54 688.857C962.612 690.921 961.363 692.736 959.793 694.302C958.223 695.868 956.368 697.185 954.227 698.253C952.158 699.249 949.945 699.997 947.59 700.495Z" fill="#F2F2F2"/>
        <path d="M1022.24 677.753L1009.18 707.435H1035.62L1022.24 677.753ZM1043.44 724.945H1001.37L995.269 738.719H969.686L1005.87 659.281H1039.59L1076.94 738.719H1049.65L1043.44 724.945Z" fill="#F2F2F2"/>
        <path d="M1108.39 690.245V738.719H1083.45V659.281H1109.57L1154.32 706.901V659.281H1179.15V738.719H1154.42L1108.39 690.245Z" fill="#F2F2F2"/>
        <path d="M1239.24 740C1232.74 740 1227.03 739.395 1222.11 738.185C1217.26 736.975 1213.05 735.338 1209.48 733.273C1205.98 731.209 1203.05 728.86 1200.7 726.227C1198.34 723.522 1196.45 720.71 1195.03 717.792C1193.67 714.802 1192.71 711.813 1192.14 708.823C1191.57 705.833 1191.28 703.022 1191.28 700.388V697.185C1191.28 694.48 1191.57 691.668 1192.14 688.75C1192.71 685.76 1193.67 682.806 1195.03 679.888C1196.45 676.97 1198.31 674.194 1200.59 671.56C1202.95 668.926 1205.91 666.613 1209.48 664.62C1213.05 662.556 1217.26 660.954 1222.11 659.815C1227.03 658.605 1232.74 658 1239.24 658H1244.16C1253.58 658 1261.32 658.997 1267.39 660.99C1273.45 662.983 1278.24 665.545 1281.73 668.677C1285.3 671.809 1287.76 675.297 1289.12 679.141C1290.47 682.913 1291.15 686.579 1291.15 690.138V690.672H1264.82C1264.75 690.174 1264.46 689.248 1263.96 687.896C1263.46 686.472 1262.39 685.049 1260.75 683.625C1259.18 682.13 1256.9 680.813 1253.9 679.674C1250.9 678.536 1246.84 677.966 1241.7 677.966C1236.99 677.966 1233.1 678.571 1230.03 679.781C1226.96 680.991 1224.53 682.557 1222.75 684.479C1220.97 686.401 1219.72 688.572 1219 690.992C1218.29 693.341 1217.93 695.655 1217.93 697.932V699.32C1217.93 701.456 1218.29 703.734 1219 706.154C1219.72 708.574 1220.97 710.816 1222.75 712.88C1224.61 714.873 1227.07 716.546 1230.14 717.898C1233.21 719.18 1237.09 719.82 1241.8 719.82C1246.94 719.82 1251.01 719.251 1254.01 718.112C1257 716.973 1259.29 715.656 1260.86 714.161C1262.43 712.667 1263.46 711.243 1263.96 709.891C1264.46 708.467 1264.75 707.47 1264.82 706.901H1291.15V707.542C1291.15 709.748 1290.87 712.097 1290.3 714.589C1289.72 717.08 1288.76 719.536 1287.41 721.956C1286.05 724.376 1284.19 726.689 1281.84 728.896C1279.56 731.031 1276.67 732.918 1273.17 734.555C1269.67 736.192 1265.53 737.509 1260.75 738.505C1255.97 739.502 1250.44 740 1244.16 740H1239.24Z" fill="#F2F2F2"/>
        <path d="M1379.36 659.281V677.539H1328.4V689.07H1377.75V707.969H1328.4V720.247H1380V738.719H1303.04V659.281H1379.36Z" fill="#F2F2F2"/>
        <path d="M1511.47 738.308C1506.17 739.73 1501.37 740.453 1497.1 740.476C1492.8 740.43 1489 739.877 1485.68 738.818C1482.35 737.69 1479.44 736.187 1476.94 734.311C1474.51 732.416 1472.43 730.315 1470.71 728.008C1468.98 725.701 1467.57 723.31 1466.46 720.837C1465.34 718.293 1464.46 715.869 1463.85 713.564L1463.71 713.041L1488.83 706.309C1489.21 707.478 1489.81 708.89 1490.63 710.543C1491.51 712.179 1492.68 713.661 1494.15 714.991C1495.61 716.32 1497.42 717.294 1499.58 717.913C1501.81 718.514 1504.48 718.398 1507.58 717.567L1507.99 717.457C1511.02 716.644 1513.41 715.481 1515.15 713.968C1516.95 712.436 1518.22 710.71 1518.97 708.789C1519.78 706.85 1520.13 704.734 1520.03 702.439C1519.94 700.145 1519.58 697.845 1518.96 695.54L1507.93 654.366L1532.64 647.745L1543.84 689.548C1544.49 691.993 1544.99 694.667 1545.32 697.572C1545.73 700.458 1545.79 703.437 1545.5 706.508C1545.2 709.509 1544.46 712.551 1543.29 715.634C1542.19 718.698 1540.46 721.596 1538.09 724.327C1535.79 727.04 1532.76 729.535 1529.01 731.812C1525.25 734.019 1520.64 735.852 1515.2 737.311L1511.47 738.308Z" fill="#F2F2F2"/>
        <path d="M1591.46 651.41L1586.65 683.916L1612.18 677.074L1591.46 651.41ZM1624.34 692.234L1583.71 703.12L1581.44 718.215L1556.73 724.835L1570.78 637.523L1603.35 628.798L1660.31 697.079L1633.95 704.143L1624.34 692.234Z" fill="#F2F2F2"/>
        <path d="M1664.84 695.865L1660.44 679.416L1695.11 625.209L1649.52 637.425L1644.27 617.834L1725.63 596.033L1730.01 612.377L1693.34 667.006L1741.62 654.069L1746.93 673.871L1664.84 695.865Z" fill="#F2F2F2"/>
        <path d="M1757.85 670.943L1753.45 654.495L1788.12 600.287L1742.53 612.503L1737.28 592.912L1818.64 571.111L1823.02 587.455L1786.35 642.084L1834.63 629.148L1839.94 648.949L1757.85 670.943Z" fill="#F2F2F2"/>
        <rect x="30" y="500" width="112" height="112" rx="56" stroke="#F2F2F2" stroke-width="4"/>
        <path d="M31.625 556C31.625 566.694 34.7062 576.662 39.9625 585H131.856C137.112 576.662 140.194 566.694 140.194 556C140.194 545.306 137.112 535.337 131.856 527H39.9625C34.7062 535.337 31.625 545.306 31.625 556Z" fill="#FFCE31"/>
        <path d="M132.038 527C122.432 511.775 105.394 501.625 86.0004 501.625C66.6066 501.625 49.5691 511.775 39.9629 527H132.038ZM39.9629 585C49.5691 600.225 66.6066 610.375 86.0004 610.375C105.394 610.375 122.432 600.225 132.038 585H39.9629Z" fill="#ED4C5C"/>
        <path d="M44.6758 550.019H50.4758V553.281H44.6758V550.019ZM44.6758 573.944H50.657V577.025H44.6758V573.944Z" fill="#C8B100"/>
        <path d="M44.1309 568.869C43.5871 569.232 43.2246 569.594 43.2246 569.775C43.2246 569.957 43.4059 570.138 43.7684 570.319C44.1309 570.5 44.4934 570.863 44.3121 571.225C44.6746 570.863 44.8559 570.5 44.8559 570.138C44.8559 569.594 44.4934 569.05 44.1309 568.869Z" fill="#ED4C5C"/>
        <path d="M45.582 553.281H49.7508V573.944H45.582V553.281Z" fill="white"/>
        <path d="M54.0988 560.894C53.1926 560.531 51.5613 560.169 49.7488 560.169C49.2051 560.169 48.4801 560.169 47.7551 560.35C45.2176 560.713 43.2238 561.8 43.4051 562.525L42.4988 560.531C42.3176 559.625 44.4926 558.537 47.2113 557.994C48.1176 557.812 49.0238 557.812 49.7488 557.812C51.5613 557.812 53.1926 557.994 54.0988 558.356V560.894Z" fill="#ED4C5C"/>
        <path d="M45.5799 563.613C44.4924 563.613 43.5862 563.25 43.5862 562.706C43.5862 562.344 43.9487 561.8 44.6737 561.438H45.7612L45.5799 563.613ZM49.7487 561.981C50.4737 562.162 51.0174 562.344 51.3799 562.525C51.5612 562.706 50.8362 563.431 49.7487 563.975V561.981Z" fill="#ED4C5C"/>
        <path d="M42.861 567.6C42.6798 567.238 43.9485 566.513 45.5798 565.969C46.3048 565.788 46.8485 565.425 47.7548 565.063C49.9298 564.157 51.7423 562.888 51.3798 562.525L51.7423 564.7C51.9235 565.063 50.4735 566.15 48.2985 567.238C47.5735 567.6 46.3048 568.144 45.5798 568.325C44.311 568.688 43.2235 569.413 43.2235 569.594L42.861 567.6Z" fill="#ED4C5C"/>
        <path d="M83.6441 550.019H89.4441V553.281H83.6441V550.019ZM83.4629 573.944H89.4441V577.025H83.4629V573.944Z" fill="#C8B100"/>
        <path d="M89.9867 568.869C90.5305 569.232 90.893 569.594 90.893 569.775C90.893 569.957 90.7117 570.138 90.3492 570.319C89.9867 570.682 89.6242 571.225 89.8055 571.407C89.443 571.044 89.2617 570.682 89.2617 570.319C89.2617 569.594 89.6242 569.05 89.9867 568.869Z" fill="#ED4C5C"/>
        <path d="M84.3691 553.281H88.5379V573.944H84.3691V553.281Z" fill="white"/>
        <path d="M80.0176 560.894C80.9238 560.531 82.5551 560.169 84.3676 560.169C84.9113 560.169 85.6363 560.169 86.3613 560.35C88.8988 560.713 90.8926 561.8 90.7113 562.525L91.6176 560.35C91.7988 559.444 89.6238 558.356 86.9051 557.812H84.3676C82.5551 557.812 80.9238 557.994 80.0176 558.356V560.894Z" fill="#ED4C5C"/>
        <path d="M88.5367 563.613C89.6242 563.613 90.5305 563.25 90.5305 562.706C90.5305 562.344 90.168 561.8 89.443 561.438H88.3555L88.5367 563.613ZM84.368 561.981C83.643 562.162 83.0992 562.344 82.7367 562.525C82.5555 562.706 83.2805 563.431 84.368 563.975V561.981Z" fill="#ED4C5C"/>
        <path d="M91.2555 567.6C91.4367 567.238 90.168 566.513 88.5367 565.969C87.8117 565.788 87.268 565.425 86.3617 565.063C84.1867 564.156 82.3742 562.888 82.7367 562.525L82.3742 564.7C82.193 565.063 83.643 566.15 85.818 567.238C86.543 567.6 87.8117 568.144 88.5367 568.325C89.8055 568.688 90.893 569.594 90.7117 569.775L91.2555 567.6ZM66.968 538.419C70.4117 538.419 77.4805 539.144 80.018 541.681C77.2992 548.206 72.9492 545.488 66.968 545.488C61.168 545.488 56.6367 548.206 53.918 541.681C56.4555 539.144 63.343 538.419 66.968 538.419Z" fill="#ED4C5C"/>
        <path d="M75.8492 545.669C73.6742 544.4 70.4117 544.219 66.968 544.219C63.5242 544.219 60.2617 544.581 58.0867 545.669L58.8117 548.75C60.8055 549.294 63.7055 549.656 66.968 549.656C70.2305 549.656 72.9492 549.294 75.1242 548.75L75.8492 545.669ZM78.9305 537.875C78.2055 537.331 76.7555 536.787 75.4867 536.787C74.943 536.787 74.3992 536.788 73.8555 536.969C73.8555 536.969 72.768 535.519 70.2305 535.519C69.3242 535.519 68.5992 535.7 67.8742 536.062V535.881C67.693 535.519 67.3305 535.156 66.968 535.156C66.6055 535.156 66.0617 535.7 66.0617 536.062V536.244C65.3367 535.881 64.6117 535.7 63.7055 535.7C61.168 535.7 60.0805 537.331 60.0805 537.15C59.5367 536.969 58.993 536.969 58.4492 536.969C50.1117 536.969 54.2805 542.588 54.2805 542.588L55.1867 541.5C53.193 538.963 55.0055 537.512 58.6305 537.512C59.1742 537.512 59.5367 537.512 59.8992 537.694C58.6305 539.506 60.9867 541.137 60.9867 541.137L61.5305 540.231C60.2617 539.325 60.0805 536.244 63.7055 536.244C64.6117 536.244 65.3367 536.425 66.0617 536.969C66.0617 537.15 65.8805 539.688 65.6992 540.05L67.1492 541.319L68.5992 540.05C68.418 539.506 68.2367 537.15 68.2367 536.969C68.7805 536.606 69.6867 536.244 70.593 536.244C74.3992 536.244 74.3992 539.325 72.768 540.231L73.3117 541.137C73.3117 541.137 75.3055 539.506 74.3992 537.694C74.7617 537.694 75.3055 537.512 75.668 537.512C80.018 537.512 80.1992 540.775 79.1117 541.5L79.8367 542.588C79.4742 542.588 81.468 540.05 78.9305 537.875Z" fill="#C8B100"/>
        <path d="M65.8809 534.431C65.8809 533.888 66.4246 533.344 66.9684 533.344C67.6934 533.344 68.0559 533.888 68.0559 534.431C68.0559 534.975 67.5121 535.519 66.9684 535.519C66.4246 535.519 65.8809 534.975 65.8809 534.431Z" fill="#005BBF"/>
        <path d="M66.6059 531.35V531.893H66.0621V532.437H66.6059V534.25H65.8809V534.793H68.0559L68.2371 534.431L68.0559 534.25H67.3309V532.437H67.8746V531.893H67.3309V531.35H66.6059Z" fill="#C8B100"/>
        <path d="M66.9684 549.294C64.0684 549.294 61.5309 548.931 59.5371 548.388C61.5309 547.844 64.0684 547.481 66.9684 547.481C69.8684 547.481 72.4059 547.844 74.3996 548.388C72.5871 548.931 69.8684 549.294 66.9684 549.294Z" fill="#ED4C5C"/>
        <path d="M67.1496 580.65C63.7059 580.65 60.4434 579.744 57.5434 578.475C55.3684 577.388 54.0996 575.394 54.0996 573.038V564.338H80.1996V573.038C80.1996 575.394 78.7496 577.569 76.7559 578.475C73.8559 579.925 70.5934 580.65 67.1496 580.65ZM66.9684 549.838H80.0184V564.338H66.9684V549.838Z" fill="white"/>
        <path d="M67.1496 573.038C67.1496 576.482 64.2496 579.2 60.6246 579.2C56.9996 579.2 54.0996 576.482 54.0996 573.038V564.338H67.1496V573.038Z" fill="#ED4C5C"/>
        <path d="M56.818 578.112C57.1805 578.293 57.7242 578.656 58.4492 578.837V563.975H56.9992L56.818 578.112ZM53.918 572.856C53.918 574.668 54.643 576.118 55.368 576.843V563.975H53.918V572.856Z" fill="#C8B100"/>
        <path d="M59.7188 579.2H61.1687V563.975H59.7188V579.2Z" fill="#C7B500"/>
        <path d="M62.6191 578.837C63.1629 578.656 63.8879 578.293 64.2504 578.112V563.975H62.8004L62.6191 578.837Z" fill="#C8B100"/>
        <path d="M53.918 549.838H66.968V564.338H53.918V549.838Z" fill="#ED4C5C"/>
        <path d="M65.6992 576.844C66.4242 576.3 66.968 575.031 67.1492 573.581V564.156H65.6992V576.844Z" fill="#C8B100"/>
        <path d="M80.1996 564.337V573.037C80.1996 576.481 77.2996 579.2 73.6746 579.2C70.0496 579.2 67.1496 576.481 67.1496 573.037V564.337H80.1996ZM75.4871 552.375C76.0309 553.462 76.0309 556.181 74.3996 555.637C74.7621 555.819 74.9434 557.087 75.4871 557.812C76.3934 558.9 77.4809 557.994 77.2996 556.725C76.9371 554.731 77.1184 553.462 77.4809 551.469C77.4809 551.65 78.3871 551.65 78.7496 551.287C78.5684 551.831 78.3871 552.556 78.7496 552.556C78.3871 553.1 77.4809 554.006 77.2996 554.55C77.1184 555.819 79.1121 558.175 76.9371 558.719C75.4871 559.081 76.3934 560.169 76.9371 560.712C76.9371 560.712 76.2121 563.069 76.5746 562.887C75.1246 563.431 75.4871 562.162 75.4871 562.162C76.2121 559.987 74.2184 559.806 74.3996 559.444C72.5871 559.262 74.5809 561.075 72.9496 561.075C72.5871 561.075 71.8621 561.437 71.8621 561.437C69.8684 561.256 70.9559 559.444 71.6809 559.625C72.2246 559.806 72.7684 560.712 72.7684 559.444C72.7684 559.444 71.8621 557.994 74.2184 557.994C73.3121 557.994 72.7684 557.269 72.4059 556.362C72.0434 556.544 71.4996 557.45 69.5059 557.631C69.5059 557.631 68.9621 555.637 69.5059 556C70.2309 556.362 70.5934 556.362 71.3184 555.637C70.9559 555.094 68.7809 554.369 69.1434 553.1C69.1434 552.737 70.2309 552.194 70.2309 552.194C70.0496 553.1 70.5934 554.006 71.6809 554.006C73.1309 554.187 72.5871 553.644 72.7684 553.281C72.9496 552.919 74.0371 553.462 73.6746 552.556C73.6746 552.375 72.4059 552.194 72.7684 551.65C73.4934 550.744 74.5809 551.469 75.4871 552.375ZM67.1496 578.837L66.7871 577.931L67.1496 576.844L67.5121 577.931L67.1496 578.837Z" fill="#ED4C5C"/>
        <path d="M57.9059 552.919V553.825H58.2684V554.55H57.3621V556.363H57.9059V560.35H56.8184V562.344H64.2496V560.35H63.3434V556.363H63.7059V554.55H62.7996V553.825H63.3434V552.919H61.5309V553.825H61.8934V554.55H60.9871V552.375H61.5309V551.469H59.5371V552.375H60.0809V554.55H59.1746V553.825H59.5371V552.919H57.9059ZM78.3871 575.212V566.15H68.9621V575.212L73.3121 577.206H73.8559L78.3871 575.212ZM73.3121 566.875V569.956L70.2309 566.875H73.3121ZM69.5059 567.056L73.1309 570.681L69.5059 574.306V567.056ZM69.8684 575.031L73.3121 571.587V576.663L69.8684 575.031ZM73.8559 576.481V571.406L77.2996 574.85L73.8559 576.481ZM77.6621 574.306L74.0371 570.681L77.6621 567.056V574.306ZM73.8559 566.875H76.9371L73.8559 569.956V566.875Z" fill="#C8B100"/>
        <path d="M62.8008 564.156C62.8008 561.437 64.6133 559.443 66.9695 559.443C69.3258 559.443 71.1383 561.618 71.1383 564.156C71.1383 566.693 69.3258 568.868 66.9695 568.868C64.6133 568.868 62.8008 566.875 62.8008 564.156Z" fill="#ED4C5C"/>
        <path d="M64.0684 564.157C64.0684 562.163 65.3371 560.713 66.9684 560.713C68.5996 560.713 69.8684 562.344 69.8684 564.157C69.8684 566.15 68.5996 567.6 66.9684 567.6C65.5184 567.782 64.0684 566.15 64.0684 564.157Z" fill="#005BBF"/>
        <path d="M65.6996 561.8L64.9746 563.794L65.5184 563.975L65.1559 564.7H66.2434L65.8809 563.975L66.4246 563.794L65.6996 561.8ZM68.4184 561.8L67.6934 563.794L68.2371 563.975L67.8746 564.7H68.9621L68.7809 563.975L69.3246 563.794L68.4184 561.8ZM67.1496 564.156L66.2434 566.15L66.7871 566.331L66.6059 567.056H67.5121L67.3309 566.331L67.8746 566.15L67.1496 564.156Z" fill="#C8B100"/>
        <rect x="1683" y="477" width="112" height="112" rx="56" stroke="#F2F2F2" stroke-width="4"/>
        <path d="M1738.64 478.625C1715.08 478.625 1694.96 493.85 1687.53 514.875H1790.11C1782.5 493.85 1762.38 478.625 1738.64 478.625Z" fill="#F2B200"/>
        <path d="M1738.64 587.375C1762.38 587.375 1782.5 572.331 1789.93 551.125H1687.53C1694.96 572.331 1715.08 587.375 1738.64 587.375Z" fill="#83BF4F"/>
        <path d="M1687.52 514.875C1685.53 520.494 1684.44 526.656 1684.44 533C1684.44 539.344 1685.53 545.506 1687.52 551.125H1790.11C1792.11 545.506 1793.19 539.344 1793.19 533C1793.19 526.656 1792.11 520.494 1790.11 514.875H1687.52Z" fill="white"/>
        <path d="M1738.64 547.5C1746.64 547.5 1753.14 541.008 1753.14 533C1753.14 524.992 1746.64 518.5 1738.64 518.5C1730.63 518.5 1724.14 524.992 1724.14 533C1724.14 541.008 1730.63 547.5 1738.64 547.5Z" fill="#428BC1"/>
        <path d="M1738.64 545.688C1745.64 545.688 1751.32 540.007 1751.32 533C1751.32 525.993 1745.64 520.312 1738.64 520.312C1731.63 520.312 1725.95 525.993 1725.95 533C1725.95 540.007 1731.63 545.688 1738.64 545.688Z" fill="white"/>
        <path d="M1733.92 522.125C1734.42 522.125 1734.83 521.719 1734.83 521.219C1734.83 520.718 1734.42 520.312 1733.92 520.312C1733.42 520.312 1733.02 520.718 1733.02 521.219C1733.02 521.719 1733.42 522.125 1733.92 522.125Z" fill="#428BC1"/>
        <path d="M1731.03 523.756C1731.53 523.756 1731.93 523.35 1731.93 522.85C1731.93 522.349 1731.53 521.943 1731.03 521.943C1730.52 521.943 1730.12 522.349 1730.12 522.85C1730.12 523.35 1730.52 523.756 1731.03 523.756Z" fill="#428BC1"/>
        <path d="M1728.67 526.113C1729.17 526.113 1729.57 525.708 1729.57 525.207C1729.57 524.707 1729.17 524.301 1728.67 524.301C1728.17 524.301 1727.76 524.707 1727.76 525.207C1727.76 525.708 1728.17 526.113 1728.67 526.113Z" fill="#428BC1"/>
        <path d="M1727.04 529.013C1727.54 529.013 1727.94 528.607 1727.94 528.106C1727.94 527.606 1727.54 527.2 1727.04 527.2C1726.54 527.2 1726.13 527.606 1726.13 528.106C1726.13 528.607 1726.54 529.013 1727.04 529.013Z" fill="#428BC1"/>
        <path d="M1726.13 532.275C1726.63 532.275 1727.04 531.87 1727.04 531.369C1727.04 530.869 1726.63 530.463 1726.13 530.463C1725.63 530.463 1725.22 530.869 1725.22 531.369C1725.22 531.87 1725.63 532.275 1726.13 532.275Z" fill="#428BC1"/>
        <path d="M1726.13 535.537C1726.63 535.537 1727.04 535.131 1727.04 534.631C1727.04 534.13 1726.63 533.725 1726.13 533.725C1725.63 533.725 1725.22 534.13 1725.22 534.631C1725.22 535.131 1725.63 535.537 1726.13 535.537Z" fill="#428BC1"/>
        <path d="M1727.04 538.8C1727.54 538.8 1727.94 538.394 1727.94 537.894C1727.94 537.393 1727.54 536.987 1727.04 536.987C1726.54 536.987 1726.13 537.393 1726.13 537.894C1726.13 538.394 1726.54 538.8 1727.04 538.8Z" fill="#428BC1"/>
        <path d="M1728.67 541.7C1729.17 541.7 1729.57 541.294 1729.57 540.794C1729.57 540.293 1729.17 539.888 1728.67 539.888C1728.17 539.888 1727.76 540.293 1727.76 540.794C1727.76 541.294 1728.17 541.7 1728.67 541.7Z" fill="#428BC1"/>
        <path d="M1731.03 544.057C1731.53 544.057 1731.93 543.651 1731.93 543.15C1731.93 542.65 1731.53 542.244 1731.03 542.244C1730.52 542.244 1730.12 542.65 1730.12 543.15C1730.12 543.651 1730.52 544.057 1731.03 544.057Z" fill="#428BC1"/>
        <path d="M1733.92 545.688C1734.42 545.688 1734.83 545.282 1734.83 544.781C1734.83 544.281 1734.42 543.875 1733.92 543.875C1733.42 543.875 1733.02 544.281 1733.02 544.781C1733.02 545.282 1733.42 545.688 1733.92 545.688Z" fill="#428BC1"/>
        <path d="M1737.01 546.412C1737.51 546.412 1737.91 546.006 1737.91 545.506C1737.91 545.005 1737.51 544.6 1737.01 544.6C1736.51 544.6 1736.1 545.005 1736.1 545.506C1736.1 546.006 1736.51 546.412 1737.01 546.412Z" fill="#428BC1"/>
        <path d="M1739.54 545.687C1739.54 545.143 1739.91 544.781 1740.27 544.6C1740.81 544.6 1741.17 544.962 1741.36 545.325C1741.36 545.868 1740.99 546.231 1740.63 546.412C1739.91 546.593 1739.54 546.231 1739.54 545.687Z" fill="#428BC1"/>
        <path d="M1743.53 545.688C1744.03 545.688 1744.44 545.282 1744.44 544.781C1744.44 544.281 1744.03 543.875 1743.53 543.875C1743.03 543.875 1742.62 544.281 1742.62 544.781C1742.62 545.282 1743.03 545.688 1743.53 545.688Z" fill="#428BC1"/>
        <path d="M1746.43 544.057C1746.93 544.057 1747.34 543.651 1747.34 543.15C1747.34 542.65 1746.93 542.244 1746.43 542.244C1745.93 542.244 1745.53 542.65 1745.53 543.15C1745.53 543.651 1745.93 544.057 1746.43 544.057Z" fill="#428BC1"/>
        <path d="M1748.79 541.7C1749.29 541.7 1749.69 541.294 1749.69 540.794C1749.69 540.293 1749.29 539.888 1748.79 539.888C1748.29 539.888 1747.88 540.293 1747.88 540.794C1747.88 541.294 1748.29 541.7 1748.79 541.7Z" fill="#428BC1"/>
        <path d="M1750.42 538.801C1750.92 538.801 1751.32 538.395 1751.32 537.895C1751.32 537.394 1750.92 536.988 1750.42 536.988C1749.92 536.988 1749.51 537.394 1749.51 537.895C1749.51 538.395 1749.92 538.801 1750.42 538.801Z" fill="#428BC1"/>
        <path d="M1751.32 535.537C1751.82 535.537 1752.23 535.131 1752.23 534.631C1752.23 534.13 1751.82 533.725 1751.32 533.725C1750.82 533.725 1750.42 534.13 1750.42 534.631C1750.42 535.131 1750.82 535.537 1751.32 535.537Z" fill="#428BC1"/>
        <path d="M1751.32 532.275C1750.78 532.275 1750.42 531.913 1750.24 531.55C1750.24 531.007 1750.6 530.644 1750.96 530.463C1751.51 530.463 1751.87 530.825 1752.05 531.188C1752.23 531.732 1751.87 532.094 1751.32 532.275Z" fill="#428BC1"/>
        <path d="M1750.42 529.013C1750.92 529.013 1751.32 528.607 1751.32 528.106C1751.32 527.606 1750.92 527.2 1750.42 527.2C1749.92 527.2 1749.51 527.606 1749.51 528.106C1749.51 528.607 1749.92 529.013 1750.42 529.013Z" fill="#428BC1"/>
        <path d="M1748.79 526.112C1749.29 526.112 1749.69 525.707 1749.69 525.206C1749.69 524.706 1749.29 524.3 1748.79 524.3C1748.29 524.3 1747.88 524.706 1747.88 525.206C1747.88 525.707 1748.29 526.112 1748.79 526.112Z" fill="#428BC1"/>
        <path d="M1746.43 523.756C1746.93 523.756 1747.34 523.35 1747.34 522.85C1747.34 522.349 1746.93 521.943 1746.43 521.943C1745.93 521.943 1745.53 522.349 1745.53 522.85C1745.53 523.35 1745.93 523.756 1746.43 523.756Z" fill="#428BC1"/>
        <path d="M1744.44 521.582C1744.26 522.125 1743.71 522.307 1743.17 522.125C1742.62 521.944 1742.44 521.4 1742.62 520.857C1742.81 520.313 1743.35 520.132 1743.89 520.313C1744.44 520.675 1744.62 521.219 1744.44 521.582ZM1741.17 520.494C1741.17 521.038 1740.63 521.4 1740.09 521.219C1739.54 521.219 1739.18 520.675 1739.36 520.132C1739.36 519.588 1739.91 519.225 1740.45 519.407C1740.99 519.588 1741.36 520.132 1741.17 520.494ZM1737.91 520.313C1737.91 520.857 1737.55 521.219 1737.19 521.4C1736.64 521.4 1736.28 521.038 1736.1 520.675C1736.1 520.132 1736.46 519.769 1736.82 519.588C1737.37 519.407 1737.91 519.769 1737.91 520.313Z" fill="#428BC1"/>
        <path d="M1738.64 535.719C1740.14 535.719 1741.36 534.502 1741.36 533C1741.36 531.498 1740.14 530.281 1738.64 530.281C1737.14 530.281 1735.92 531.498 1735.92 533C1735.92 534.502 1737.14 535.719 1738.64 535.719Z" fill="#428BC1"/>
        <path d="M1738.64 520.312L1738.28 528.106L1738.64 533L1739.18 528.106L1738.64 520.312ZM1735.38 520.675L1737.01 528.469L1738.64 533L1737.91 528.106L1735.38 520.675Z" fill="#428BC1"/>
        <path d="M1732.29 521.943L1735.92 529.012L1738.64 533L1736.64 528.468L1732.29 521.943ZM1729.76 523.937L1735.01 529.918L1738.64 533L1735.56 529.193L1729.76 523.937Z" fill="#428BC1"/>
        <path d="M1727.76 526.656L1734.29 531.006L1738.64 533L1734.65 530.1L1727.76 526.656Z" fill="#428BC1"/>
        <path d="M1726.49 529.738L1733.92 532.095L1738.64 533.001L1734.11 531.37L1726.49 529.738ZM1725.95 533.001L1733.92 533.363L1738.64 533.001L1733.92 532.638L1725.95 533.001Z" fill="#428BC1"/>
        <path d="M1726.49 536.262L1734.11 534.631L1738.64 533L1733.93 533.906L1726.49 536.262ZM1727.76 539.344L1734.65 535.9L1738.64 533L1734.29 534.994L1727.76 539.344Z" fill="#428BC1"/>
        <path d="M1729.76 541.881L1735.56 536.806L1738.64 533L1735.01 536.081L1729.76 541.881ZM1732.29 544.056L1736.64 537.35L1738.64 533L1735.92 536.988L1732.29 544.056Z" fill="#428BC1"/>
        <path d="M1735.38 545.325L1737.91 537.894L1738.64 533L1737.01 537.531L1735.38 545.325ZM1738.64 545.688L1739.18 537.894L1738.64 533L1738.28 537.894L1738.64 545.688ZM1741.9 545.325L1740.45 537.531L1738.64 533L1739.54 537.894L1741.9 545.325Z" fill="#428BC1"/>
        <path d="M1744.98 544.056L1741.54 536.988L1738.64 533L1740.81 537.531L1744.98 544.056ZM1747.7 541.881L1742.44 536.081L1738.64 533L1741.9 536.806L1747.7 541.881Z" fill="#428BC1"/>
        <path d="M1749.69 539.345L1743.17 534.995L1738.64 533.001L1742.62 535.901L1749.69 539.345ZM1750.96 536.263L1743.53 533.907L1738.64 533.001L1743.35 534.632L1750.96 536.263ZM1751.32 533.001L1743.53 532.457L1738.64 533.001L1743.53 533.363L1751.32 533.001ZM1750.96 529.738L1743.35 531.37L1738.64 533.001L1743.53 532.095L1750.96 529.738Z" fill="#428BC1"/>
        <path d="M1749.69 526.657L1742.62 530.1L1738.64 533L1743.17 531.007L1749.69 526.657ZM1747.7 524.119L1741.9 529.194L1738.64 533L1742.44 529.919L1747.7 524.119Z" fill="#428BC1"/>
        <path d="M1744.98 521.943L1740.81 528.65L1738.64 533L1741.54 529.012L1744.98 521.943Z" fill="#428BC1"/>
        <path d="M1742.08 520.676L1739.54 528.107L1738.64 533.001L1740.45 528.47L1742.08 520.676Z" fill="#428BC1"/>
        <rect x="747" y="437" width="112" height="112" rx="56" stroke="#F2F2F2" stroke-width="4"/>
        <path d="M764.574 482.125H856.287C854.655 474.15 851.212 466.719 846.499 460.375H764.574V482.125ZM764.574 503.875V525.625H846.499C851.212 519.281 854.655 511.85 856.287 503.875H764.574Z" fill="#F9F9F9"/>
        <path d="M856.287 482.125H764.574V503.875H856.287C857.012 500.431 857.374 496.806 857.374 493C857.374 489.194 857.012 485.569 856.287 482.125ZM764.574 460.375H846.499C836.53 447.144 820.762 438.625 802.999 438.625C787.955 438.625 774.362 444.788 764.574 454.575V460.375ZM764.574 525.625V531.425C774.362 541.213 787.955 547.375 802.999 547.375C820.762 547.375 836.53 538.856 846.499 525.625H764.574Z" fill="#428BC1"/>
        <path d="M764.575 454.575C754.788 464.363 748.625 477.956 748.625 493C748.625 508.044 754.788 521.638 764.575 531.425L803 493L764.575 454.575Z" fill="#ED4C5C"/>
        <path d="M763.125 503.875L770.375 498.8L777.625 503.875L774.906 495.538L782.156 490.281H773.094L770.375 482.125L767.656 490.281H758.594L765.844 495.538L763.125 503.875Z" fill="#F9F9F9"/>
    </g>
<defs>
<clipPath id="clip0_1442_16547">
</clipPath>
</defs>
</svg>
