<svg width="48" height="48" viewBox="0 0 48 48" fill="none" xmlns="http://www.w3.org/2000/svg">
<path d="M23.553 0C10.525 0 0 10.5876 0 23.693C0 36.7339 10.525 47.386 23.553 47.386C36.5809 47.386 47.1059 36.7984 47.1059 23.693C47.0418 10.5876 36.5167 0 23.553 0ZM35.4899 26.2108C36.5809 27.3083 37.7361 28.2767 38.7629 29.5033C39.2122 30.0198 39.5972 30.6008 39.9181 31.1818C40.3674 32.0856 39.9823 32.9895 39.2122 33.054H34.3989C33.1795 33.1831 32.1527 32.6667 31.3184 31.8274C30.6766 31.1173 30.0349 30.4071 29.3931 29.697C29.1364 29.4387 28.8797 29.1159 28.4946 28.9223C27.8528 28.4704 27.2752 28.5995 26.8902 29.3096C26.5051 30.0198 26.4409 30.7945 26.3768 31.5692C26.3126 32.7312 25.9917 32.9895 24.8365 33.054C22.3978 33.1831 20.0874 32.7958 17.9696 31.5692C16.0443 30.4717 14.6324 28.9223 13.3488 27.1792C10.8459 23.7576 8.92061 20.0777 7.25201 16.2042C6.86694 15.365 7.12365 14.8485 8.08631 14.8485C9.69073 14.8485 11.231 14.8485 12.8354 14.8485C13.4772 14.8485 13.9264 15.2358 14.1189 15.8169C14.9533 17.9473 15.9801 19.9486 17.3278 21.7563C17.6487 22.2727 18.0337 22.7246 18.5472 23.112C19.1248 23.4993 19.5098 23.3702 19.7665 22.7246C19.9591 22.3373 20.0232 21.8854 20.0232 21.498C20.1516 20.0132 20.1516 18.5929 19.9591 17.108C19.8307 16.2042 19.3173 15.6232 18.4188 15.4295C17.9696 15.365 18.0337 15.1713 18.2263 14.913C18.6113 14.4611 18.9964 14.2029 19.7024 14.2029H25.1574C25.9917 14.3966 26.1842 14.7839 26.3126 15.6232V21.6917C26.3126 22.0145 26.5051 23.0474 27.0827 23.2411C27.5961 23.3702 27.8528 22.9829 28.1737 22.7246C29.4573 21.3043 30.4199 19.6904 31.2542 18.0119C31.6393 17.2372 31.9602 16.4625 32.2169 15.6877C32.4736 15.1067 32.7945 14.8485 33.4362 14.8485H38.6988C38.8271 14.8485 39.0196 14.8485 39.148 14.8485C40.0465 14.9776 40.3032 15.365 39.9823 16.2688C39.5331 17.6245 38.6988 18.7866 37.9286 19.8841C37.0302 21.1107 36.1317 22.2727 35.2332 23.4993C34.3989 24.6614 34.4631 25.2424 35.4899 26.2108Z" fill="#EA0905"/>
</svg>
