<svg width="18" height="18" viewBox="0 0 18 18" fill="none" xmlns="http://www.w3.org/2000/svg">
<path d="M7.80322 10.6482L10.7029 8.96436L7.80322 7.28055V10.6482Z" fill="black"/>
<path d="M8.91143 0C4.00779 0 0 4.0079 0 8.96444C0 13.9209 3.98421 17.9288 8.91143 17.9288C13.8151 17.9288 17.8229 13.9209 17.8229 8.96444C17.8229 4.0079 13.8151 0 8.91143 0ZM14.4516 8.96444C14.4516 8.96444 14.4516 10.7905 14.2158 11.6443C14.098 12.1186 13.7208 12.498 13.2257 12.6403C12.3534 12.8775 8.8643 12.8775 8.8643 12.8775C8.8643 12.8775 5.39871 12.8775 4.50287 12.6403C4.03138 12.5218 3.65416 12.1423 3.51271 11.6443C3.27696 10.7668 3.27696 8.96444 3.27696 8.96444C3.27696 8.96444 3.27696 7.13832 3.51271 6.28457C3.63059 5.81029 4.03138 5.40713 4.50287 5.28855C5.37517 5.05139 8.8643 5.05139 8.8643 5.05139C8.8643 5.05139 12.3534 5.05139 13.2257 5.28855C13.6972 5.40713 14.0744 5.78656 14.2158 6.28457C14.4752 7.13832 14.4516 8.96444 14.4516 8.96444Z" fill="black"/>
</svg>
