<svg width="130" height="1010" viewBox="0 0 130 1010" fill="none" xmlns="http://www.w3.org/2000/svg"><path d="M39.2 169.9h30" stroke="url(#paint0_linear_1904_16760)" stroke-width="4"/><defs><linearGradient id="paint0_linear_1904_16760" x1="70" y1="2.5" x2="40" y2="2.5" gradientUnits="userSpaceOnUse"><stop stop-color="#807f7f" stop-opacity="0"/><stop offset="1" stop-color="#807f7f"/></linearGradient></defs><path d="M69.2 325.3h60.9" stroke="url(#paint0_linear_1904_16759)" stroke-width="4"/><defs><linearGradient id="paint0_linear_1904_16759" x1="125" y1="2.5" x2="50" y2="2.5" gradientUnits="userSpaceOnUse"><stop stop-color="#807f7f" stop-opacity="0"/><stop offset="1" stop-color="#807f7f"/></linearGradient></defs><path d="M42.2 499.8h28" stroke="url(#paint0_linear_1904_16761)" stroke-width="4"/><defs><linearGradient id="paint0_linear_1904_16761" x1="70" y1="2.5" x2="40" y2="2.5" gradientUnits="userSpaceOnUse"><stop stop-color="#807f7f" stop-opacity="0"/><stop offset="1" stop-color="#807f7f"/></linearGradient></defs><path d="M65.7 682h61.6" stroke="url(#paint0_linear_1904_16762)" stroke-width="4"/><defs><linearGradient id="paint0_linear_1904_16762" x1="125" y1="2.5" x2="50" y2="2.5" gradientUnits="userSpaceOnUse"><stop stop-color="#807f7f" stop-opacity="0"/><stop offset="1" stop-color="#807f7f"/></linearGradient></defs><path d="M46 864.3h61.6" stroke="url(#paint0_linear_1904_16763)" stroke-width="4"/><defs><linearGradient id="paint0_linear_1904_16763" x1="90" y1="2.5" x2="40" y2="2.5" gradientUnits="userSpaceOnUse"><stop stop-color="#807f7f" stop-opacity="0"/><stop offset="1" stop-color="#807f7f"/></linearGradient></defs><path d="m28 983.1 17.5-118.5L3 780.1l63.2-99.6-62.7-91.9 38.9-90.1L4 411.1l67-86.6-68-73.4 37.5-81.5L4 73.6l20-50.5" stroke="#807f7f" stroke-width="4"/><path d="m28 983.1 17.5-118.5L3 780.1l63.2-99.6-62.7-91.9 38.9-90.1L4 411.1l67-86.6-68-73.4 37.5-81.5L4 73.6l20-50.5" stroke="#f2f2f2" stroke-width="4" stroke-dashoffset="1090" stroke-dasharray="1090"/><path d="M27.8 15.5c.7-.8 1-2 2.2-2.4.6-.6 2-1.6 1.1-2.5-1-.9-1.8.7-2.5 1.3-.2 1.3-1.2 1.5-1.9 2.2l-4.2 4.5c-.2-.1-.4-.3-.6-.4-1-.5-2.2-.5-2.9-1.5-.8-.4-2-1.5-2.7-.5-.7 1.2 1.1 1.6 1.8 2.1 1.3-.1 1.8.8 2.7 1.4l.5.2c-3 3.3-5.9 6.6-8.9 9.8 0 .1-.1.1-.1.2-2.1-2.1-3.5-4.8-4.2-7.7-.6-2.9-.5-5.9.5-8.7 1-2.8 2.7-5.3 5-7.2 2.3-1.9 5.1-3.1 8.1-3.4 2.9-.4 5.9 0 8.6 1.2 2.7 1.3 5 3.2 6.7 5.7 1.7 2.5 2.6 5.3 2.7 8.3.1 3-.6 5.9-2 8.5-4.5-2.4-8.9-4.8-13.4-7.1 1.2-1.3 2.3-2.7 3.5-4zM23 20.9c-3.1 3.4-6.2 6.9-9.3 10.3 1.6 1.3 3.6 2.3 5.7 2.9 2 .6 4.2.8 6.4.5 2.1-.3 4.2-1 6-2.1 1.9-1.1 3.5-2.5 4.8-4.3-4.5-2.4-9.1-4.8-13.6-7.3z" fill="#807f7f"/><path d="M34.1 982.3c.7-.8 1-2 2.2-2.4.6-.6 1.9-1.6 1.1-2.5-1-1-1.9.6-2.5 1.2-.2 1.3-1.2 1.6-1.9 2.3-1.4 1.5-2.8 3-4.2 4.4-.2-.1-.4-.2-.7-.3-.9-.5-2.2-.5-2.8-1.6-.8-.4-2-1.5-2.8-.4-.6 1.2 1.1 1.6 1.9 2.1 1.3-.1 1.8.8 2.7 1.3l.5.3c-3 3.2-6 6.5-8.9 9.8-.1 0-.1.1-.2.2-2-2.2-3.5-4.8-4.1-7.7-.7-2.9-.5-5.9.5-8.8 1-2.8 2.7-5.2 5-7.1 2.3-1.9 5.1-3.1 8-3.5 3-.3 6 .1 8.7 1.3 2.7 1.2 5 3.2 6.7 5.7 1.6 2.4 2.6 5.3 2.7 8.3.1 2.9-.6 5.9-2.1 8.5-4.4-2.4-8.9-4.8-13.3-7.1 1.1-1.4 2.3-2.7 3.5-4zm-4.8 5.4c-3.1 3.4-6.2 6.8-9.4 10.2 1.7 1.4 3.7 2.4 5.7 3 2.1.6 4.3.7 6.4.5 2.2-.3 4.3-1 6.1-2.1 1.9-1.1 3.5-2.6 4.8-4.3-4.6-2.4-9.1-4.8-13.6-7.3z" fill="#807f7f"/><circle cx="38.5" cy="170" r="8" fill="#807f7f"/><circle fill="#807f7f" cx="69" cy="325.5" r="8"/><circle fill="#807f7f" cx="41" cy="499.9" r="8"/><circle fill="#807f7f" cx="64.5" cy="682.3" r="8"/><circle fill="#807f7f" cx="45" cy="864.2" r="8"/></svg>