<svg width="84" height="101" viewBox="0 0 84 101" fill="none" xmlns="http://www.w3.org/2000/svg">
<path fill-rule="evenodd" clip-rule="evenodd" d="M50.6079 72.0902C50.5584 72.2324 50.5357 72.38 50.5357 72.5222C50.5357 73.0803 50.8858 73.6021 51.4417 73.7913C52.4679 74.1427 53.4714 74.4687 54.4562 74.788L54.4569 74.7882C63.8194 77.828 71.2165 80.2297 81.0013 99.3109C81.3381 99.9696 82.1438 100.227 82.7999 99.8878C83.4586 99.5484 83.7192 98.7381 83.3758 98.0821V98.0808C72.157 76.2073 73.6134 68.9242 81.4223 59.9549C81.9086 59.3981 81.8538 58.5476 81.2966 58.062C80.7394 57.5737 79.8963 57.63 79.4099 58.1881C74.0575 64.3363 71.3706 69.8901 73.0934 78.9533C65.1703 67.6644 48.4511 49.9367 28.2878 28.9281L28.214 28.8513C16.1752 16.3065 3.7507 3.35985 3.1529 1.04528C2.96613 0.325213 2.23635 -0.106286 1.52393 0.0811464C0.924911 0.240261 0.527344 0.787725 0.527344 1.38508C0.527344 1.49835 0.542023 1.61296 0.570038 1.72758C1.31448 4.59974 9.92891 13.6733 26.372 30.8052C41.8338 46.9155 61.7033 67.6188 70.6483 80.1382C65.5449 75.5706 60.6167 73.9696 55.2823 72.2365L55.2779 72.2351L55.1669 72.1991C54.2311 71.8954 53.2778 71.586 52.3022 71.2531C51.6047 71.013 50.8444 71.3886 50.6079 72.0902Z" fill="#F2F2F2"/>
</svg>
