<svg width="60" height="60" viewBox="0 0 60 60" fill="none" xmlns="http://www.w3.org/2000/svg">
<g clip-path="url(#clip0_1780_20021)">
<path fill-rule="evenodd" clip-rule="evenodd" d="M59.7761 30.7231C59.6433 30.579 59.4595 30.5056 59.275 30.5056C59.116 30.5056 58.9563 30.5602 58.8289 30.6699C54.1831 34.6757 51.7266 38.5633 52.3294 46.3864C48.9218 36.7801 41.7716 25.7761 32.8863 16.6711C22.4514 5.97958 11.7263 0.000843048 3.11751 0.000843048C2.51734 0.000843048 1.92724 0.029995 1.3479 0.0883064C-13.8036 1.62122 -17.3737 21.9067 -17.7017 38.6533C-17.7078 39.011 -17.4134 39.3064 -17.0417 39.3135C-16.6519 39.3187 -16.3643 39.0349 -16.3576 38.6773C-15.9025 15.4103 -9.73145 2.51207 1.48837 1.37696C9.95398 0.522396 21.0347 6.42014 31.907 17.5593C40.512 26.3767 47.4594 36.9789 50.8711 46.2863C47.8211 41.6535 44.4843 39.8097 40.8429 37.7975L40.8407 37.7963L40.8167 37.783C40.2146 37.4503 39.6007 37.1111 38.973 36.751C38.6544 36.5692 38.2431 36.6698 38.054 36.9789C37.8654 37.2866 37.9701 37.6859 38.2894 37.8684C38.8917 38.2135 39.4828 38.5408 40.0632 38.8623L40.1759 38.9247L40.1763 38.925C46.0984 42.1972 50.7768 44.7822 55.0292 59.5255C55.1284 59.8715 55.5008 60.0708 55.855 59.9767C56.2125 59.88 56.4205 59.5216 56.3212 59.1768C56.3205 59.1729 56.3192 59.1684 56.3179 59.1651C51.4287 42.2081 53.3171 37.162 59.7211 31.6399C59.9975 31.401 60.0223 30.9906 59.7761 30.7231Z" fill="#F2F2F2"/>
</g>
<defs>
<clipPath id="clip0_1780_20021">
<rect width="60" height="60" fill="white" transform="translate(60 60) rotate(-180)"/>
</clipPath>
</defs>
</svg>
