<svg width="71" height="52" viewBox="0 0 71 52" fill="none" xmlns="http://www.w3.org/2000/svg">
<g clip-path="url(#clip0_1206_17344)">
<path fill-rule="evenodd" clip-rule="evenodd" d="M55.0583 40.5147C55.0666 40.4153 55.0141 40.3238 54.9242 40.2588C54.8466 40.2029 54.7411 40.1666 54.6234 40.1619C50.3284 39.992 47.1606 40.5491 43.4907 43.6214C46.6967 38.9089 48.786 32.3685 49.0671 25.9119C49.3966 18.3293 47.1962 12.3681 42.9981 9.33836C42.7054 9.12714 42.4029 8.93012 42.0908 8.74756C33.9254 3.9758 21.9045 10.1383 13.2581 16.1476C13.0739 16.2763 13.0677 16.4879 13.2453 16.6213C13.4328 16.7604 13.7169 16.7578 13.9014 16.6294C25.9141 8.28015 35.4597 5.73476 41.5063 9.26829C46.0676 11.9351 48.4824 17.9918 48.1394 25.8921C47.8674 32.146 45.882 38.4694 42.8285 43.0742C43.6896 40.3056 42.9967 38.4566 42.2405 36.4387L42.24 36.4375L42.2351 36.4243C42.1101 36.0907 41.9826 35.7505 41.859 35.3979C41.7957 35.2193 41.5442 35.1114 41.2953 35.1578C41.0474 35.204 40.8961 35.3869 40.9594 35.566C41.0783 35.9043 41.2006 36.2321 41.3208 36.5541L41.344 36.6162L41.3441 36.6165C42.5738 39.8974 43.5452 42.4893 38.1476 49.3779C38.0206 49.5394 38.1012 49.7434 38.3216 49.8336C38.545 49.9241 38.8281 49.8662 38.9544 49.7051C38.956 49.7035 38.9577 49.7013 38.9586 49.6997C45.1676 41.7774 48.6457 40.5965 54.5669 40.8307C54.8228 40.8406 55.0428 40.6992 55.0583 40.5147Z" fill="#F2F2F2"/>
</g>
<defs>
<clipPath id="clip0_1206_17344">
<rect width="49.7054" height="37.497" fill="white" transform="matrix(-0.810881 -0.585211 0.810881 -0.585211 40.3047 51.2818)"/>
</clipPath>
</defs>
</svg>
