<svg width="143" height="150" viewBox="0 0 143 150" fill="none" xmlns="http://www.w3.org/2000/svg">
<g clip-path="url(#clip0_1056_3945)">
<path fill-rule="evenodd" clip-rule="evenodd" d="M73.2235 149.611C72.8799 149.307 72.7051 148.885 72.7051 148.462C72.7051 148.098 72.835 147.732 73.0966 147.44C82.6427 136.791 91.907 131.16 110.548 132.54C87.6539 124.727 61.4297 108.337 39.731 87.9694C14.2496 64.0484 0.000285085 39.4618 0.000284223 19.7268C0.000284162 18.351 0.0697726 16.9982 0.20875 15.6701C3.86218 -19.0636 52.2092 -27.2478 92.1221 -27.9997C92.9744 -28.0136 93.6785 -27.3387 93.6955 -26.4867C93.7079 -25.5931 93.0315 -24.9337 92.1792 -24.9183C36.7261 -23.8752 5.98538 -9.72843 3.28004 15.9921C1.24333 35.3989 15.2996 60.8006 41.848 85.7246C62.8652 105.453 88.1373 121.381 110.322 129.201C99.2759 122.208 94.8807 114.558 90.084 106.208L90.0812 106.203L90.0495 106.148C89.2565 104.768 88.448 103.36 87.5898 101.922C87.1565 101.191 87.3964 100.248 88.1329 99.8148C88.8664 99.3827 89.8181 99.6226 90.2529 100.355C91.0756 101.736 91.856 103.091 92.6223 104.422L92.7706 104.679L92.7712 104.68C100.57 118.256 106.731 128.981 141.869 138.729C142.694 138.957 143.169 139.81 142.944 140.622C142.714 141.442 141.86 141.919 141.038 141.691C141.029 141.69 141.018 141.687 141.01 141.683C100.596 130.475 88.5693 134.805 75.4084 149.485C74.839 150.119 73.861 150.176 73.2235 149.611Z" fill="#F2F2F2"/>
</g>
<defs>
<clipPath id="clip0_1056_3945">
<rect width="150" height="143" fill="white" transform="matrix(-4.37114e-08 -1 -1 4.37114e-08 143 150)"/>
</clipPath>
</defs>
</svg>
