<svg width="420" height="82" viewBox="0 0 420 82" fill="none" xmlns="http://www.w3.org/2000/svg">
<path d="M47.8407 82C41.3623 82 35.6669 81.395 30.7547 80.1849C25.9137 78.9748 21.7134 77.3377 18.1538 75.2734C14.6654 73.2092 11.7466 70.8603 9.39728 68.2266C7.04796 65.5217 5.16138 62.7101 3.73755 59.7917C2.38491 56.8021 1.42383 53.8125 0.854298 50.8229C0.284766 47.8333 0 45.0217 0 42.388V39.1849C0 36.48 0.284766 33.6684 0.854298 30.75C1.42383 27.7604 2.38491 24.8064 3.73755 21.888C5.16138 18.9696 7.01236 16.1936 9.29049 13.5599C11.6398 10.9262 14.5943 8.61285 18.1538 6.6198C21.7134 4.55556 25.9137 2.95399 30.7547 1.81511C35.6669 0.605035 41.3623 0 47.8407 0H52.7529C62.1502 0 69.8744 0.996528 75.9257 2.98958C81.977 4.98264 86.7468 7.54514 90.2352 10.6771C93.7948 13.809 96.2509 17.2969 97.6035 21.1406C98.9562 24.9132 99.6325 28.579 99.6325 32.138V32.6719H73.3628C73.2916 32.1736 73.0069 31.2483 72.5085 29.8958C72.0102 28.4722 70.9423 27.0486 69.3049 25.625C67.7387 24.1302 65.4606 22.8134 62.4705 21.6745C59.4805 20.5356 55.4226 19.9661 50.2968 19.9661C45.5981 19.9661 41.7182 20.5712 38.657 21.7812C35.5957 22.9913 33.1752 24.5573 31.3954 26.4792C29.6157 28.401 28.3698 30.572 27.6579 32.9922C26.946 35.3411 26.59 37.6545 26.59 39.9323V41.3203C26.59 43.4557 26.946 45.7335 27.6579 48.1536C28.3698 50.5738 29.6157 52.816 31.3954 54.8802C33.2464 56.8733 35.7025 58.546 38.7638 59.8984C41.825 61.1797 45.7049 61.8203 50.4036 61.8203C55.5294 61.8203 59.5873 61.2509 62.5773 60.112C65.5674 58.9731 67.8455 57.6563 69.4117 56.1615C70.9779 54.6667 72.0102 53.2431 72.5085 51.8906C73.0069 50.467 73.2916 49.4705 73.3628 48.901H99.6325V49.5417C99.6325 51.7483 99.3477 54.0972 98.7782 56.5885C98.2087 59.0799 97.2476 61.5356 95.8949 63.9557C94.5423 66.3759 92.6913 68.6892 90.342 70.8958C88.0639 73.0312 85.1806 74.9175 81.6922 76.5547C78.2038 78.1918 74.0747 79.5087 69.3049 80.5052C64.5351 81.5017 59.0177 82 52.7529 82H47.8407Z" fill="#F2F2F2"/>
<path d="M111.488 1.28125H137.01V30.0026H179.191V1.28125H204.713V80.7188H179.191V49.7552H137.01V80.7188H111.488V1.28125Z" fill="#F2F2F2"/>
<path d="M245.808 80.7188H220.285V1.28125H245.808V80.7188Z" fill="#F2F2F2"/>
<path d="M286.925 1.28125V60.0052H334.979V80.7188H261.403V1.28125H286.925Z" fill="#F2F2F2"/>
<path d="M371.946 1.28125V60.0052H420V80.7188H346.424V1.28125H371.946Z" fill="#F2F2F2"/>
</svg>
