<svg width="116" height="116" viewBox="0 0 116 116" fill="none" xmlns="http://www.w3.org/2000/svg">
<path d="M57.6379 3.625C34.0754 3.625 13.9566 18.85 6.52539 39.875H109.113C101.5 18.85 81.3816 3.625 57.6379 3.625Z" fill="#F2B200"/>
<path d="M57.6379 112.375C81.3816 112.375 101.5 97.3312 108.932 76.125H6.52539C13.9566 97.3312 34.0754 112.375 57.6379 112.375Z" fill="#83BF4F"/>
<path d="M6.52461 39.875C4.53086 45.4937 3.44336 51.6562 3.44336 58C3.44336 64.3438 4.53086 70.5063 6.52461 76.125H109.112C111.106 70.5063 112.193 64.3438 112.193 58C112.193 51.6562 111.106 45.4937 109.112 39.875H6.52461Z" fill="white"/>
<path d="M57.6367 72.5C65.6448 72.5 72.1367 66.0081 72.1367 58C72.1367 49.9919 65.6448 43.5 57.6367 43.5C49.6286 43.5 43.1367 49.9919 43.1367 58C43.1367 66.0081 49.6286 72.5 57.6367 72.5Z" fill="#428BC1"/>
<path d="M57.6367 70.6875C64.6438 70.6875 70.3242 65.0071 70.3242 58C70.3242 50.9929 64.6438 45.3125 57.6367 45.3125C50.6296 45.3125 44.9492 50.9929 44.9492 58C44.9492 65.0071 50.6296 70.6875 57.6367 70.6875Z" fill="white"/>
<path d="M52.9238 47.125C53.4243 47.125 53.8301 46.7193 53.8301 46.2188C53.8301 45.7182 53.4243 45.3125 52.9238 45.3125C52.4233 45.3125 52.0176 45.7182 52.0176 46.2188C52.0176 46.7193 52.4233 47.125 52.9238 47.125Z" fill="#428BC1"/>
<path d="M50.0254 48.7559C50.5259 48.7559 50.9316 48.3501 50.9316 47.8496C50.9316 47.3491 50.5259 46.9434 50.0254 46.9434C49.5249 46.9434 49.1191 47.3491 49.1191 47.8496C49.1191 48.3501 49.5249 48.7559 50.0254 48.7559Z" fill="#428BC1"/>
<path d="M47.668 51.1133C48.1685 51.1133 48.5742 50.7075 48.5742 50.207C48.5742 49.7065 48.1685 49.3008 47.668 49.3008C47.1675 49.3008 46.7617 49.7065 46.7617 50.207C46.7617 50.7075 47.1675 51.1133 47.668 51.1133Z" fill="#428BC1"/>
<path d="M46.0371 54.0127C46.5376 54.0127 46.9434 53.607 46.9434 53.1064C46.9434 52.6059 46.5376 52.2002 46.0371 52.2002C45.5366 52.2002 45.1309 52.6059 45.1309 53.1064C45.1309 53.607 45.5366 54.0127 46.0371 54.0127Z" fill="#428BC1"/>
<path d="M45.1309 57.2753C45.6314 57.2753 46.0371 56.8695 46.0371 56.369C46.0371 55.8685 45.6314 55.4628 45.1309 55.4628C44.6304 55.4628 44.2246 55.8685 44.2246 56.369C44.2246 56.8695 44.6304 57.2753 45.1309 57.2753Z" fill="#428BC1"/>
<path d="M45.1309 60.5371C45.6314 60.5371 46.0371 60.1314 46.0371 59.6309C46.0371 59.1304 45.6314 58.7246 45.1309 58.7246C44.6304 58.7246 44.2246 59.1304 44.2246 59.6309C44.2246 60.1314 44.6304 60.5371 45.1309 60.5371Z" fill="#428BC1"/>
<path d="M46.0371 63.7998C46.5376 63.7998 46.9434 63.3941 46.9434 62.8936C46.9434 62.393 46.5376 61.9873 46.0371 61.9873C45.5366 61.9873 45.1309 62.393 45.1309 62.8936C45.1309 63.3941 45.5366 63.7998 46.0371 63.7998Z" fill="#428BC1"/>
<path d="M47.668 66.7002C48.1685 66.7002 48.5742 66.2945 48.5742 65.7939C48.5742 65.2934 48.1685 64.8877 47.668 64.8877C47.1675 64.8877 46.7617 65.2934 46.7617 65.7939C46.7617 66.2945 47.1675 66.7002 47.668 66.7002Z" fill="#428BC1"/>
<path d="M50.0254 69.0566C50.5259 69.0566 50.9316 68.6509 50.9316 68.1504C50.9316 67.6499 50.5259 67.2441 50.0254 67.2441C49.5249 67.2441 49.1191 67.6499 49.1191 68.1504C49.1191 68.6509 49.5249 69.0566 50.0254 69.0566Z" fill="#428BC1"/>
<path d="M52.9238 70.6875C53.4243 70.6875 53.8301 70.2818 53.8301 69.7812C53.8301 69.2807 53.4243 68.875 52.9238 68.875C52.4233 68.875 52.0176 69.2807 52.0176 69.7812C52.0176 70.2818 52.4233 70.6875 52.9238 70.6875Z" fill="#428BC1"/>
<path d="M56.0059 71.4121C56.5064 71.4121 56.9121 71.0064 56.9121 70.5059C56.9121 70.0054 56.5064 69.5996 56.0059 69.5996C55.5054 69.5996 55.0996 70.0054 55.0996 70.5059C55.0996 71.0064 55.5054 71.4121 56.0059 71.4121Z" fill="#428BC1"/>
<path d="M58.543 70.6871C58.543 70.1434 58.9055 69.7809 59.268 69.5996C59.8117 69.5996 60.1742 69.9621 60.3555 70.3246C60.3555 70.8684 59.993 71.2309 59.6305 71.4121C58.9055 71.5934 58.543 71.2309 58.543 70.6871Z" fill="#428BC1"/>
<path d="M62.5312 70.6875C63.0318 70.6875 63.4375 70.2818 63.4375 69.7812C63.4375 69.2807 63.0318 68.875 62.5312 68.875C62.0307 68.875 61.625 69.2807 61.625 69.7812C61.625 70.2818 62.0307 70.6875 62.5312 70.6875Z" fill="#428BC1"/>
<path d="M65.4316 69.0566C65.9321 69.0566 66.3379 68.6509 66.3379 68.1504C66.3379 67.6499 65.9321 67.2441 65.4316 67.2441C64.9311 67.2441 64.5254 67.6499 64.5254 68.1504C64.5254 68.6509 64.9311 69.0566 65.4316 69.0566Z" fill="#428BC1"/>
<path d="M67.7871 66.7002C68.2876 66.7002 68.6934 66.2945 68.6934 65.7939C68.6934 65.2934 68.2876 64.8877 67.7871 64.8877C67.2866 64.8877 66.8809 65.2934 66.8809 65.7939C66.8809 66.2945 67.2866 66.7002 67.7871 66.7002Z" fill="#428BC1"/>
<path d="M69.418 63.8008C69.9185 63.8008 70.3242 63.395 70.3242 62.8945C70.3242 62.394 69.9185 61.9883 69.418 61.9883C68.9175 61.9883 68.5117 62.394 68.5117 62.8945C68.5117 63.395 68.9175 63.8008 69.418 63.8008Z" fill="#428BC1"/>
<path d="M70.3242 60.5371C70.8247 60.5371 71.2305 60.1314 71.2305 59.6309C71.2305 59.1304 70.8247 58.7246 70.3242 58.7246C69.8237 58.7246 69.418 59.1304 69.418 59.6309C69.418 60.1314 69.8237 60.5371 70.3242 60.5371Z" fill="#428BC1"/>
<path d="M70.3238 57.2754C69.7801 57.2754 69.4176 56.9129 69.2363 56.5504C69.2363 56.0066 69.5988 55.6441 69.9613 55.4629C70.5051 55.4629 70.8676 55.8254 71.0488 56.1879C71.2301 56.7316 70.8676 57.0941 70.3238 57.2754Z" fill="#428BC1"/>
<path d="M69.418 54.0127C69.9185 54.0127 70.3242 53.607 70.3242 53.1064C70.3242 52.6059 69.9185 52.2002 69.418 52.2002C68.9175 52.2002 68.5117 52.6059 68.5117 53.1064C68.5117 53.607 68.9175 54.0127 69.418 54.0127Z" fill="#428BC1"/>
<path d="M67.7871 51.1123C68.2876 51.1123 68.6934 50.7066 68.6934 50.2061C68.6934 49.7055 68.2876 49.2998 67.7871 49.2998C67.2866 49.2998 66.8809 49.7055 66.8809 50.2061C66.8809 50.7066 67.2866 51.1123 67.7871 51.1123Z" fill="#428BC1"/>
<path d="M65.4316 48.7559C65.9321 48.7559 66.3379 48.3501 66.3379 47.8496C66.3379 47.3491 65.9321 46.9434 65.4316 46.9434C64.9311 46.9434 64.5254 47.3491 64.5254 47.8496C64.5254 48.3501 64.9311 48.7559 65.4316 48.7559Z" fill="#428BC1"/>
<path d="M63.4371 46.5815C63.2559 47.1253 62.7121 47.3065 62.1684 47.1253C61.6246 46.944 61.4434 46.4003 61.6246 45.8565C61.8059 45.3128 62.3496 45.1315 62.8934 45.3128C63.4371 45.6753 63.6184 46.219 63.4371 46.5815ZM60.1746 45.494C60.1746 46.0378 59.6309 46.4003 59.0871 46.219C58.5434 46.219 58.1809 45.6753 58.3621 45.1315C58.3621 44.5878 58.9059 44.2253 59.4496 44.4065C59.9934 44.5878 60.3559 45.1315 60.1746 45.494ZM56.9121 45.3128C56.9121 45.8565 56.5496 46.219 56.1871 46.4003C55.6434 46.4003 55.2809 46.0378 55.0996 45.6753C55.0996 45.1315 55.4621 44.769 55.8246 44.5878C56.3684 44.4065 56.9121 44.769 56.9121 45.3128Z" fill="#428BC1"/>
<path d="M57.6367 60.7188C59.1382 60.7188 60.3555 59.5015 60.3555 58C60.3555 56.4985 59.1382 55.2812 57.6367 55.2812C56.1352 55.2812 54.918 56.4985 54.918 58C54.918 59.5015 56.1352 60.7188 57.6367 60.7188Z" fill="#428BC1"/>
<path d="M57.6375 45.3125L57.275 53.1062L57.6375 58L58.1812 53.1062L57.6375 45.3125ZM54.375 45.675L56.0062 53.4688L57.6375 58L56.9125 53.1062L54.375 45.675Z" fill="#428BC1"/>
<path d="M51.2934 46.9434L54.9184 54.0121L57.6371 57.9996L55.6434 53.4684L51.2934 46.9434ZM48.7559 48.9371L54.0121 54.9184L57.6371 57.9996L54.5559 54.1934L48.7559 48.9371Z" fill="#428BC1"/>
<path d="M46.7617 51.6562L53.2867 56.0062L57.6367 58L53.6492 55.1L46.7617 51.6562Z" fill="#428BC1"/>
<path d="M45.493 54.7383L52.9242 57.0945L57.6367 58.0008L53.1055 56.3695L45.493 54.7383ZM44.9492 58.0008L52.9242 58.3633L57.6367 58.0008L52.9242 57.6383L44.9492 58.0008Z" fill="#428BC1"/>
<path d="M45.4941 61.2625L53.1066 59.6313L57.6379 58L52.9254 58.9062L45.4941 61.2625ZM46.7629 64.3438L53.6504 60.9L57.6379 58L53.2879 59.9937L46.7629 64.3438Z" fill="#428BC1"/>
<path d="M48.7559 66.8814L54.5559 61.8064L57.6371 58.0001L54.0121 61.0814L48.7559 66.8814ZM51.2934 69.0564L55.6434 62.3501L57.6371 58.0001L54.9184 61.9876L51.2934 69.0564Z" fill="#428BC1"/>
<path d="M54.375 70.325L56.9125 62.8938L57.6375 58L56.0062 62.5312L54.375 70.325ZM57.6375 70.6875L58.1812 62.8938L57.6375 58L57.275 62.8938L57.6375 70.6875ZM60.9 70.325L59.45 62.5312L57.6375 58L58.5437 62.8938L60.9 70.325Z" fill="#428BC1"/>
<path d="M63.9805 69.0562L60.5367 61.9875L57.6367 58L59.8117 62.5313L63.9805 69.0562ZM66.6992 66.8813L61.443 61.0813L57.6367 58L60.8992 61.8062L66.6992 66.8813Z" fill="#428BC1"/>
<path d="M68.693 64.3445L62.168 59.9945L57.6367 58.0008L61.6242 60.9008L68.693 64.3445ZM69.9617 61.2633L62.5305 58.907L57.6367 58.0008L62.3492 59.632L69.9617 61.2633ZM70.3242 58.0008L62.5305 57.457L57.6367 58.0008L62.5305 58.3633L70.3242 58.0008ZM69.9617 54.7383L62.3492 56.3695L57.6367 58.0008L62.5305 57.0945L69.9617 54.7383Z" fill="#428BC1"/>
<path d="M68.693 51.6566L61.6242 55.1004L57.6367 58.0004L62.168 56.0066L68.693 51.6566ZM66.6992 49.1191L60.8992 54.1941L57.6367 58.0004L61.443 54.9191L66.6992 49.1191Z" fill="#428BC1"/>
<path d="M63.9805 46.9434L59.8117 53.6496L57.6367 57.9996L60.5367 54.0121L63.9805 46.9434Z" fill="#428BC1"/>
<path d="M61.0805 45.6758L58.543 53.107L57.6367 58.0008L59.4492 53.4695L61.0805 45.6758Z" fill="#428BC1"/>
<rect x="2" y="2" width="112" height="112" rx="56" stroke="#F2F2F2" stroke-width="4"/>
</svg>
