<svg width="405" height="82" viewBox="0 0 405 82" fill="none" xmlns="http://www.w3.org/2000/svg">
<path d="M76.0059 0.605469V19.3376L25.8038 19.3376V32.2895H74.5074V51.4498H25.8038L25.8038 80.2438H0.328125L0.328125 0.605469L76.0059 0.605469Z" fill="#F2F2F2"/>
<path d="M134.916 81.4212C127.851 81.4212 121.786 80.779 116.719 79.4945C111.724 78.1387 107.514 76.3546 104.088 74.1425C100.663 71.9303 97.9512 69.397 95.9531 66.5426C93.9551 63.6168 92.4208 60.6197 91.3504 57.5512C90.28 54.4826 89.5664 51.4141 89.2096 48.3456C88.9241 45.2771 88.7814 42.4227 88.7814 39.7824V0.605469L114.257 0.605469V39.4613C114.257 41.7448 114.507 44.0997 115.006 46.526C115.506 48.9522 116.505 51.2001 118.004 53.2695C119.573 55.339 121.786 57.0516 124.64 58.4075C127.566 59.692 131.419 60.3342 136.2 60.3342H136.736C141.517 60.3342 145.335 59.692 148.189 58.4075C151.043 57.0516 153.22 55.339 154.719 53.2695C156.217 51.2001 157.18 48.9522 157.609 46.526C158.108 44.0997 158.358 41.7448 158.358 39.4613V0.605469L183.834 0.605469V39.7824C183.834 42.4227 183.655 45.2771 183.298 48.3456C182.942 51.4141 182.192 54.5183 181.051 57.6582C179.909 60.7267 178.303 63.6882 176.234 66.5426C174.164 69.397 171.417 71.9303 167.992 74.1425C164.638 76.3546 160.499 78.1387 155.575 79.4945C150.651 80.779 144.799 81.4212 138.02 81.4212H134.916Z" fill="#F2F2F2"/>
<path d="M223.833 31.6473V80.2438H198.893V0.605469L225.011 0.605469L269.754 48.3456V0.605469L294.587 0.605469V80.2438H269.861L223.833 31.6473Z" fill="#F2F2F2"/>
<path d="M310.249 80.2438V0.605469L335.724 0.605469V32.3966L370.727 0.605469L401.769 0.605469L361.414 36.7852L404.016 80.2438H371.262L335.724 43.7429V80.2438H310.249Z" fill="#F2F2F2"/>
</svg>
