<svg width="381" height="83" viewBox="0 0 381 83" fill="none" xmlns="http://www.w3.org/2000/svg">
<path d="M39.7375 82.7789C34.2434 82.7789 29.4272 82.2366 25.2888 81.1519C21.1505 79.995 17.6186 78.4765 14.6931 76.5964C11.7677 74.644 9.34179 72.4385 7.4153 69.98C5.56016 67.5214 4.09746 64.9544 3.02718 62.2789C1.95691 59.6034 1.20772 56.928 0.779614 54.2525C0.351506 51.5047 0.137451 48.9377 0.137451 46.5514L0.137451 46.0091H26.1451C26.2164 47.2384 26.4305 48.7569 26.7872 50.5646C27.2153 52.3724 27.9645 54.1079 29.0348 55.771C30.1051 57.4341 31.6034 58.8442 33.5299 60.0012C35.5278 61.1581 38.1321 61.7366 41.3429 61.7366H41.771C44.9105 61.7366 47.5148 61.2304 49.584 60.2181C51.7246 59.2057 53.4013 57.868 54.6143 56.2049C55.8986 54.5417 56.7905 52.5893 57.29 50.3477C57.7894 48.1061 58.0392 45.7922 58.0392 43.4059V0.778931L83.6187 0.778931V44.0567C83.6187 46.5876 83.4046 49.2992 82.9765 52.1916C82.6197 55.084 81.9062 57.9765 80.8359 60.8689C79.7657 63.689 78.2673 66.4368 76.3408 69.1123C74.4857 71.7877 72.0597 74.1378 69.063 76.1625C66.1376 78.1872 62.57 79.8142 58.3602 81.0435C54.1505 82.2004 49.2272 82.7789 43.5905 82.7789H39.7375Z" fill="#F2F2F2"/>
<path d="M139.487 19.5435L126.43 49.6969L152.865 49.6969L139.487 19.5435ZM160.678 67.4853H118.617L112.516 81.4773H86.9365L123.112 0.778931L156.825 0.778931L194.178 81.4773H166.886L160.678 67.4853Z" fill="#F2F2F2"/>
<path d="M198.867 81.4773V64.4482L246.387 21.062H199.188V0.778931L283.418 0.778931V17.6996L233.865 60.9773H283.846V81.4773L198.867 81.4773Z" fill="#F2F2F2"/>
<path d="M295.158 81.4773V64.4482L342.678 21.062L295.479 21.062V0.778931L379.709 0.778931V17.6996L330.156 60.9773H380.137V81.4773H295.158Z" fill="#F2F2F2"/>
</svg>
