<svg width="120" height="87" viewBox="0 0 120 87" fill="none" xmlns="http://www.w3.org/2000/svg">
<path d="M19.9468 46.558C18.822 49.8172 17.5059 53.0033 16.4727 56.2956C14.5281 62.4928 13.0913 68.8381 11.6286 75.1608C10.9788 77.9695 10.333 80.7804 9.64688 83.5805C9.49749 84.1902 10.708 81.9456 10.7234 81.921C16.8299 72.0926 23.7735 62.7973 30.3691 53.2938C34.8877 46.7831 39.9579 40.749 44.6569 34.3799C45.9451 32.6338 47.1964 30.8546 48.3023 28.9864C48.6356 28.4233 49.6923 27.1212 48.3267 27.6441C45.7705 28.6228 43.428 30.3139 41.036 31.6221C38.2567 33.1421 35.4251 34.6235 32.3753 35.5269C31.1122 35.9011 29.8084 36.1799 28.5831 36.674C28.2943 36.7904 27.9753 37.1132 27.6534 37.1132C26.9007 37.1132 28.1557 35.6879 28.5342 35.0388C31.4483 30.0419 34.8873 25.3128 37.9779 20.4202C40.473 16.4701 43.1471 12.6589 45.7823 8.80336C46.5317 7.70694 47.1057 6.40638 47.9108 5.36224C48.2721 4.89376 48.3965 4.30814 48.7427 3.82472C49.1181 3.30046 48.398 3.88766 47.9842 4.04437C44.7472 5.27019 41.5814 6.65131 38.1491 7.26584C35.4466 7.7497 32.6864 7.68072 29.9532 7.68072C28.6066 7.68072 27.2348 7.60776 25.8919 7.72953C25.6077 7.75531 24.4083 7.72075 24.1794 7.94918C24.1091 8.01925 24.0657 8.41099 24.0448 8.46169C23.5968 9.54699 22.8493 10.5689 22.2466 11.5611C18.8333 17.1801 15.6928 22.9604 12.8519 28.8887C10.3563 34.0964 8.0581 39.4004 5.9526 44.7764C5.10022 46.9528 4.10438 49.133 3.48159 51.3902C3.41322 51.638 2.9016 53.5481 2.96781 53.5135C3.64513 53.1587 4.27386 52.4474 4.87612 52.0003C6.18582 51.0281 7.58001 50.1992 9.03524 49.4622C11.6582 48.1338 14.6426 46.6179 17.5248 45.8991" stroke="#9C65F2" stroke-width="4" stroke-linecap="round" stroke-linejoin="round"/>
<path d="M87.9468 46.558C86.822 49.8172 85.5059 53.0033 84.4727 56.2956C82.5281 62.4928 81.0913 68.8381 79.6286 75.1608C78.9788 77.9695 78.333 80.7804 77.6469 83.5805C77.4975 84.1902 78.708 81.9456 78.7234 81.921C84.8299 72.0926 91.7735 62.7973 98.3691 53.2938C102.888 46.7831 107.958 40.749 112.657 34.3799C113.945 32.6338 115.196 30.8546 116.302 28.9864C116.636 28.4233 117.692 27.1212 116.327 27.6441C113.771 28.6228 111.428 30.3139 109.036 31.6221C106.257 33.1421 103.425 34.6235 100.375 35.5269C99.1122 35.9011 97.8084 36.1799 96.5831 36.674C96.2943 36.7904 95.9753 37.1132 95.6534 37.1132C94.9007 37.1132 96.1557 35.6879 96.5342 35.0388C99.4483 30.0419 102.887 25.3128 105.978 20.4202C108.473 16.4701 111.147 12.6589 113.782 8.80336C114.532 7.70694 115.106 6.40638 115.911 5.36224C116.272 4.89376 116.397 4.30814 116.743 3.82472C117.118 3.30046 116.398 3.88766 115.984 4.04437C112.747 5.27019 109.581 6.65131 106.149 7.26584C103.447 7.7497 100.686 7.68072 97.9532 7.68072C96.6066 7.68072 95.2348 7.60776 93.8919 7.72953C93.6077 7.75531 92.4083 7.72075 92.1794 7.94918C92.1091 8.01925 92.0657 8.41099 92.0448 8.46169C91.5968 9.54699 90.8493 10.5689 90.2466 11.5611C86.8333 17.1801 83.6928 22.9604 80.8519 28.8887C78.3563 34.0964 76.0581 39.4004 73.9526 44.7764C73.1002 46.9528 72.1044 49.133 71.4816 51.3902C71.4132 51.638 70.9016 53.5481 70.9678 53.5135C71.6451 53.1587 72.2739 52.4474 72.8761 52.0003C74.1858 51.0281 75.58 50.1992 77.0352 49.4622C79.6582 48.1338 82.6426 46.6179 85.5248 45.8991" stroke="#9C65F2" stroke-width="4" stroke-linecap="round" stroke-linejoin="round"/>
</svg>
