<svg width="1844" height="112" viewBox="0 0 1844 112" fill="none" xmlns="http://www.w3.org/2000/svg">
<mask id="path-1-outside-1_1923_19278" maskUnits="userSpaceOnUse" x="0" y="0" width="1844" height="112" fill="black">
<rect fill="white" width="1844" height="112"/>
<path d="M2 26.7706H37.167L60.9373 77.7431L85.2503 26.7706H118.681V108.679H93.2823V56.3853L69.0779 108.679H51.0602L26.9643 56.3853V108.679H2V26.7706Z"/>
<path d="M181.849 45.8165L168.607 76.422H195.416L181.849 45.8165ZM203.34 94.4771H160.683L154.496 108.679H128.555L165.242 26.7706H199.432L237.313 108.679H209.635L203.34 94.4771Z"/>
<path d="M273.111 83.3578V108.679H247.169V26.7706H304.045C310.991 26.7706 316.744 27.4679 321.302 28.8624C325.933 30.1835 329.588 32.055 332.265 34.4771C335.015 36.8991 336.932 39.7982 338.018 43.1743C339.175 46.4771 339.754 50.1468 339.754 54.1835V55.5046C339.754 59.4679 339.175 63.1743 338.018 66.6239C336.932 70 335.015 72.9358 332.265 75.4312C329.515 77.9266 325.825 79.8716 321.194 81.2661C316.635 82.6605 310.919 83.3578 304.045 83.3578H273.111ZM273.111 63.7615H301.874C305.926 63.7615 308.748 62.9908 310.34 61.4495C312.004 59.8349 312.836 57.7431 312.836 55.1743V54.844C312.836 52.422 312.004 50.4404 310.34 48.8991C308.748 47.2844 305.926 46.4771 301.874 46.4771H273.111V63.7615Z"/>
<path d="M424.224 56.4954L380.591 108.679H354.65V26.7706H380.591V78.9541L424.224 26.7706H450.057V108.679H424.224V56.4954Z"/>
<path d="M469.126 26.7706H495.067V56.3853H537.94V26.7706H563.881V108.679H537.94V76.7523H495.067V108.679H469.126V26.7706Z"/>
<path d="M608.907 52.2018H640.383C647.185 52.2018 652.866 52.8991 657.424 54.2936C661.983 55.6147 665.601 57.4862 668.278 59.9083C670.956 62.3303 672.837 65.2294 673.922 68.6055C675.08 71.9817 675.659 75.6881 675.659 79.7248V80.9358C675.659 84.8257 675.08 88.4587 673.922 91.8349C672.765 95.211 670.811 98.1468 668.061 100.642C665.384 103.138 661.766 105.119 657.207 106.587C652.721 107.982 647.113 108.679 640.383 108.679H582.966V26.7706H608.907V52.2018ZM638.213 89.1927C641.686 89.1927 644.291 88.422 646.028 86.8807C647.764 85.3395 648.633 83.2844 648.633 80.7156V79.945C648.633 77.4495 647.764 75.4679 646.028 74C644.291 72.4587 641.686 71.6881 638.213 71.6881H608.907V89.1927H638.213ZM709.958 108.679H684.017V26.7706H709.958V108.679Z"/>
<path d="M823.339 78.9541C819.938 79.3945 816.429 79.7615 812.811 80.055C809.193 80.3486 805.647 80.4954 802.174 80.4954C795.01 80.4954 788.642 80.0551 783.071 79.1743C777.571 78.2202 772.904 76.5688 769.069 74.2202C765.306 71.7982 762.448 68.4954 760.494 64.3119C758.541 60.1284 757.564 54.7706 757.564 48.2385V26.7706H783.505V44.3853C783.505 47.6881 783.939 50.4037 784.807 52.5321C785.676 54.5872 787.014 56.2385 788.823 57.4862C790.705 58.6606 793.129 59.5046 796.095 60.0183C799.062 60.4587 802.644 60.6789 806.841 60.6789C808.216 60.6789 809.699 60.6422 811.291 60.5688C812.955 60.4954 814.547 60.422 816.067 60.3486C817.586 60.2018 818.961 60.055 820.191 59.9083C821.494 59.7615 822.543 59.6147 823.339 59.4679V26.7706H849.172V108.679H823.339V78.9541Z"/>
<path d="M926.702 90.5138C924.966 93.5229 923.193 96.1651 921.384 98.4404C919.647 100.716 917.621 102.624 915.306 104.165C913.062 105.633 910.457 106.771 907.491 107.578C904.596 108.312 901.087 108.679 896.962 108.679H877.425V88.5321H891.752C893.2 88.5321 893.923 87.945 893.923 86.7706V86.6606C893.923 86.0734 893.778 85.4862 893.489 84.8991C893.272 84.3119 892.874 83.5413 892.295 82.5872L857.888 26.7706H887.302L912.158 68.6055L935.494 26.7706H963.715L926.702 90.5138Z"/>
<path d="M972.29 26.7706H1061.29V108.679H1035.35V46.2569H998.231V108.679H972.29V26.7706Z"/>
<path d="M1106.35 83.3578V108.679H1080.41V26.7706H1137.28C1144.23 26.7706 1149.98 27.4679 1154.54 28.8624C1159.17 30.1835 1162.82 32.055 1165.5 34.4771C1168.25 36.8991 1170.17 39.7982 1171.25 43.1743C1172.41 46.4771 1172.99 50.1468 1172.99 54.1835V55.5046C1172.99 59.4679 1172.41 63.1743 1171.25 66.6239C1170.17 70 1168.25 72.9358 1165.5 75.4312C1162.75 77.9266 1159.06 79.8716 1154.43 81.2661C1149.87 82.6605 1144.16 83.3578 1137.28 83.3578H1106.35ZM1106.35 63.7615H1135.11C1139.16 63.7615 1141.98 62.9908 1143.58 61.4495C1145.24 59.8349 1146.07 57.7431 1146.07 55.1743V54.844C1146.07 52.422 1145.24 50.4404 1143.58 48.8991C1141.98 47.2844 1139.16 46.4771 1135.11 46.4771H1106.35V63.7615Z"/>
<path d="M1257.46 56.4954L1213.83 108.679H1187.89V26.7706H1213.83V78.9541L1257.46 26.7706H1283.29V108.679H1257.46V56.4954Z"/>
<path d="M1328.2 71.1376V108.679H1302.36V26.7706H1328.2V59.4679L1363.69 26.7706H1395.16L1354.24 63.9817L1397.44 108.679H1364.23L1328.2 71.1376Z"/>
<path d="M1451.75 25.4495C1458.48 25.4495 1464.38 26.0367 1469.45 27.211C1474.58 28.3853 1479 30 1482.69 32.055C1486.45 34.1101 1489.56 36.4954 1492.02 39.211C1494.48 41.8532 1496.44 44.6789 1497.88 47.6881C1499.4 50.6239 1500.45 53.6697 1501.03 56.8257C1501.68 59.9817 1502.01 62.9908 1502.01 65.8532V69.156C1502.01 73.4862 1501.28 78.0367 1499.84 82.8073C1498.39 87.578 1495.78 91.9817 1492.02 96.0183C1488.33 100.055 1483.23 103.394 1476.72 106.037C1470.21 108.679 1461.88 110 1451.75 110H1446.87C1440.14 110 1434.21 109.413 1429.07 108.239C1424 106.991 1419.59 105.339 1415.83 103.284C1412.14 101.156 1409.06 98.7339 1406.6 96.0183C1404.14 93.3027 1402.15 90.4404 1400.63 87.4312C1399.18 84.3486 1398.13 81.2661 1397.48 78.1835C1396.9 75.0275 1396.62 72.0183 1396.62 69.156V65.8532C1396.62 62.9174 1396.9 59.9083 1397.48 56.8257C1398.13 53.6697 1399.18 50.6239 1400.63 47.6881C1402.15 44.6789 1404.14 41.8532 1406.6 39.211C1409.06 36.4954 1412.14 34.1101 1415.83 32.055C1419.59 30 1424 28.3853 1429.07 27.211C1434.21 26.0367 1440.14 25.4495 1446.87 25.4495H1451.75ZM1474.98 66.7339C1474.98 64.5321 1474.66 62.2202 1474 59.7982C1473.35 57.3028 1472.09 55.0275 1470.21 52.9725C1468.4 50.9174 1465.79 49.2294 1462.39 47.9083C1459.06 46.5872 1454.72 45.9266 1449.37 45.9266C1443.94 45.9266 1439.56 46.5872 1436.23 47.9083C1432.9 49.2294 1430.3 50.9174 1428.42 52.9725C1426.54 55.0275 1425.27 57.3028 1424.62 59.7982C1423.97 62.2202 1423.64 64.5321 1423.64 66.7339V68.1651C1423.64 70.367 1423.97 72.7156 1424.62 75.211C1425.34 77.7064 1426.64 80.0183 1428.53 82.1468C1430.48 84.2018 1433.12 85.9266 1436.45 87.3211C1439.78 88.6422 1444.08 89.3028 1449.37 89.3028C1454.72 89.3028 1459.06 88.6422 1462.39 87.3211C1465.79 85.9266 1468.4 84.2018 1470.21 82.1468C1472.09 80.0183 1473.35 77.7064 1474 75.211C1474.66 72.7156 1474.98 70.367 1474.98 68.1651V66.7339Z"/>
<path d="M1517.54 26.7706H1580.81C1586.6 26.7706 1591.38 27.3211 1595.14 28.422C1598.98 29.5229 1602.02 30.9908 1604.26 32.8257C1606.5 34.5872 1608.06 36.6422 1608.93 38.9908C1609.87 41.2661 1610.34 43.6147 1610.34 46.0367V47.0275C1610.34 49.6697 1609.83 51.9817 1608.82 53.9633C1607.8 55.945 1606.5 57.5963 1604.91 58.9174C1603.39 60.2385 1601.73 61.2661 1599.92 62C1598.18 62.7339 1596.55 63.211 1595.03 63.4312C1597.2 63.7982 1599.45 64.422 1601.76 65.3027C1604.08 66.1101 1606.18 67.3211 1608.06 68.9358C1610.01 70.5505 1611.57 72.5688 1612.72 74.9908C1613.95 77.4128 1614.57 80.3119 1614.57 83.6881V84.789C1614.57 87.8716 1614.03 90.844 1612.94 93.7064C1611.93 96.5688 1610.16 99.1376 1607.62 101.413C1605.09 103.615 1601.65 105.376 1597.31 106.697C1592.97 108.018 1587.54 108.679 1581.03 108.679H1517.54V26.7706ZM1543.48 44.9358V58.1468H1574.95C1578.21 58.1468 1580.42 57.5229 1581.57 56.2752C1582.8 55.0275 1583.42 53.4862 1583.42 51.6514V51.4312C1583.42 49.5229 1582.8 47.9816 1581.57 46.8073C1580.42 45.5596 1578.21 44.9358 1574.95 44.9358H1543.48ZM1543.48 75.1009V89.633H1577.02C1578.97 89.633 1580.56 89.4128 1581.79 88.9725C1583.02 88.5321 1584 87.9817 1584.72 87.3211C1585.44 86.5872 1585.92 85.7798 1586.13 84.8991C1586.42 84.0183 1586.57 83.1376 1586.57 82.2569V81.8165C1586.57 80.9358 1586.42 80.0917 1586.13 79.2844C1585.92 78.4037 1585.44 77.6697 1584.72 77.0826C1584 76.4954 1583.02 76.0183 1581.79 75.6514C1580.56 75.2844 1578.97 75.1009 1577.02 75.1009H1543.48Z"/>
<path d="M1680.81 25.4495C1687.54 25.4495 1693.44 26.0367 1698.5 27.211C1703.64 28.3853 1708.06 30 1711.75 32.055C1715.51 34.1101 1718.62 36.4954 1721.08 39.211C1723.54 41.8532 1725.49 44.6789 1726.94 47.6881C1728.46 50.6239 1729.51 53.6697 1730.09 56.8257C1730.74 59.9817 1731.07 62.9908 1731.07 65.8532V69.156C1731.07 73.4862 1730.34 78.0367 1728.9 82.8073C1727.45 87.578 1724.84 91.9817 1721.08 96.0183C1717.39 100.055 1712.29 103.394 1705.78 106.037C1699.26 108.679 1690.94 110 1680.81 110H1675.93C1669.2 110 1663.26 109.413 1658.13 108.239C1653.06 106.991 1648.65 105.339 1644.88 103.284C1641.19 101.156 1638.12 98.7339 1635.66 96.0183C1633.2 93.3027 1631.21 90.4404 1629.69 87.4312C1628.24 84.3486 1627.19 81.2661 1626.54 78.1835C1625.96 75.0275 1625.67 72.0183 1625.67 69.156V65.8532C1625.67 62.9174 1625.96 59.9083 1626.54 56.8257C1627.19 53.6697 1628.24 50.6239 1629.69 47.6881C1631.21 44.6789 1633.2 41.8532 1635.66 39.211C1638.12 36.4954 1641.19 34.1101 1644.88 32.055C1648.65 30 1653.06 28.3853 1658.13 27.211C1663.26 26.0367 1669.2 25.4495 1675.93 25.4495H1680.81ZM1704.04 66.7339C1704.04 64.5321 1703.71 62.2202 1703.06 59.7982C1702.41 57.3028 1701.15 55.0275 1699.26 52.9725C1697.45 50.9174 1694.85 49.2294 1691.45 47.9083C1688.12 46.5872 1683.78 45.9266 1678.42 45.9266C1673 45.9266 1668.62 46.5872 1665.29 47.9083C1661.96 49.2294 1659.36 50.9174 1657.48 52.9725C1655.59 55.0275 1654.33 57.3028 1653.68 59.7982C1653.03 62.2202 1652.7 64.5321 1652.7 66.7339V68.1651C1652.7 70.367 1653.03 72.7156 1653.68 75.211C1654.4 77.7064 1655.7 80.0183 1657.58 82.1468C1659.54 84.2018 1662.18 85.9266 1665.51 87.3211C1668.84 88.6422 1673.14 89.3028 1678.42 89.3028C1683.78 89.3028 1688.12 88.6422 1691.45 87.3211C1694.85 85.9266 1697.45 84.2018 1699.26 82.1468C1701.15 80.0183 1702.41 77.7064 1703.06 75.211C1703.71 72.7156 1704.04 70.367 1704.04 68.1651V66.7339Z"/>
<path d="M1816.17 56.4954L1772.53 108.679H1746.59V26.7706H1772.53V78.9541L1816.17 26.7706H1842V108.679H1816.17V56.4954ZM1792.72 21.0459C1787.95 21.0459 1784.08 20.3853 1781.11 19.0642C1778.21 17.6697 1775.97 16.0183 1774.38 14.1101C1772.79 12.1284 1771.7 10.0734 1771.12 7.94496C1770.62 5.74312 1770.36 3.83486 1770.36 2.22018V2H1787.62C1787.69 2.51376 1787.8 3.13761 1787.95 3.87156C1788.16 4.53211 1788.49 5.19266 1788.92 5.85321C1789.43 6.44037 1790.08 6.95413 1790.88 7.3945C1791.75 7.83486 1792.87 8.05505 1794.24 8.05505H1794.35C1795.65 8.05505 1796.7 7.83486 1797.5 7.3945C1798.29 6.95413 1798.91 6.44037 1799.34 5.85321C1799.78 5.19266 1800.07 4.53211 1800.21 3.87156C1800.43 3.13761 1800.57 2.51376 1800.65 2H1817.8V2.22018C1817.8 3.83486 1817.43 5.74312 1816.71 7.94496C1816.06 10.0734 1814.9 12.1284 1813.24 14.1101C1811.57 16.0183 1809.29 17.6697 1806.4 19.0642C1803.58 20.3853 1799.96 21.0459 1795.54 21.0459H1792.72Z"/>
</mask>
<path d="M2 26.7706H37.167L60.9373 77.7431L85.2503 26.7706H118.681V108.679H93.2823V56.3853L69.0779 108.679H51.0602L26.9643 56.3853V108.679H2V26.7706Z" stroke="#F2F2F2" stroke-width="4" mask="url(#path-1-outside-1_1923_19278)"/>
<path d="M181.849 45.8165L168.607 76.422H195.416L181.849 45.8165ZM203.34 94.4771H160.683L154.496 108.679H128.555L165.242 26.7706H199.432L237.313 108.679H209.635L203.34 94.4771Z" stroke="#F2F2F2" stroke-width="4" mask="url(#path-1-outside-1_1923_19278)"/>
<path d="M273.111 83.3578V108.679H247.169V26.7706H304.045C310.991 26.7706 316.744 27.4679 321.302 28.8624C325.933 30.1835 329.588 32.055 332.265 34.4771C335.015 36.8991 336.932 39.7982 338.018 43.1743C339.175 46.4771 339.754 50.1468 339.754 54.1835V55.5046C339.754 59.4679 339.175 63.1743 338.018 66.6239C336.932 70 335.015 72.9358 332.265 75.4312C329.515 77.9266 325.825 79.8716 321.194 81.2661C316.635 82.6605 310.919 83.3578 304.045 83.3578H273.111ZM273.111 63.7615H301.874C305.926 63.7615 308.748 62.9908 310.34 61.4495C312.004 59.8349 312.836 57.7431 312.836 55.1743V54.844C312.836 52.422 312.004 50.4404 310.34 48.8991C308.748 47.2844 305.926 46.4771 301.874 46.4771H273.111V63.7615Z" stroke="#F2F2F2" stroke-width="4" mask="url(#path-1-outside-1_1923_19278)"/>
<path d="M424.224 56.4954L380.591 108.679H354.65V26.7706H380.591V78.9541L424.224 26.7706H450.057V108.679H424.224V56.4954Z" stroke="#F2F2F2" stroke-width="4" mask="url(#path-1-outside-1_1923_19278)"/>
<path d="M469.126 26.7706H495.067V56.3853H537.94V26.7706H563.881V108.679H537.94V76.7523H495.067V108.679H469.126V26.7706Z" stroke="#F2F2F2" stroke-width="4" mask="url(#path-1-outside-1_1923_19278)"/>
<path d="M608.907 52.2018H640.383C647.185 52.2018 652.866 52.8991 657.424 54.2936C661.983 55.6147 665.601 57.4862 668.278 59.9083C670.956 62.3303 672.837 65.2294 673.922 68.6055C675.08 71.9817 675.659 75.6881 675.659 79.7248V80.9358C675.659 84.8257 675.08 88.4587 673.922 91.8349C672.765 95.211 670.811 98.1468 668.061 100.642C665.384 103.138 661.766 105.119 657.207 106.587C652.721 107.982 647.113 108.679 640.383 108.679H582.966V26.7706H608.907V52.2018ZM638.213 89.1927C641.686 89.1927 644.291 88.422 646.028 86.8807C647.764 85.3395 648.633 83.2844 648.633 80.7156V79.945C648.633 77.4495 647.764 75.4679 646.028 74C644.291 72.4587 641.686 71.6881 638.213 71.6881H608.907V89.1927H638.213ZM709.958 108.679H684.017V26.7706H709.958V108.679Z" stroke="#F2F2F2" stroke-width="4" mask="url(#path-1-outside-1_1923_19278)"/>
<path d="M823.339 78.9541C819.938 79.3945 816.429 79.7615 812.811 80.055C809.193 80.3486 805.647 80.4954 802.174 80.4954C795.01 80.4954 788.642 80.0551 783.071 79.1743C777.571 78.2202 772.904 76.5688 769.069 74.2202C765.306 71.7982 762.448 68.4954 760.494 64.3119C758.541 60.1284 757.564 54.7706 757.564 48.2385V26.7706H783.505V44.3853C783.505 47.6881 783.939 50.4037 784.807 52.5321C785.676 54.5872 787.014 56.2385 788.823 57.4862C790.705 58.6606 793.129 59.5046 796.095 60.0183C799.062 60.4587 802.644 60.6789 806.841 60.6789C808.216 60.6789 809.699 60.6422 811.291 60.5688C812.955 60.4954 814.547 60.422 816.067 60.3486C817.586 60.2018 818.961 60.055 820.191 59.9083C821.494 59.7615 822.543 59.6147 823.339 59.4679V26.7706H849.172V108.679H823.339V78.9541Z" stroke="#F2F2F2" stroke-width="4" mask="url(#path-1-outside-1_1923_19278)"/>
<path d="M926.702 90.5138C924.966 93.5229 923.193 96.1651 921.384 98.4404C919.647 100.716 917.621 102.624 915.306 104.165C913.062 105.633 910.457 106.771 907.491 107.578C904.596 108.312 901.087 108.679 896.962 108.679H877.425V88.5321H891.752C893.2 88.5321 893.923 87.945 893.923 86.7706V86.6606C893.923 86.0734 893.778 85.4862 893.489 84.8991C893.272 84.3119 892.874 83.5413 892.295 82.5872L857.888 26.7706H887.302L912.158 68.6055L935.494 26.7706H963.715L926.702 90.5138Z" stroke="#F2F2F2" stroke-width="4" mask="url(#path-1-outside-1_1923_19278)"/>
<path d="M972.29 26.7706H1061.29V108.679H1035.35V46.2569H998.231V108.679H972.29V26.7706Z" stroke="#F2F2F2" stroke-width="4" mask="url(#path-1-outside-1_1923_19278)"/>
<path d="M1106.35 83.3578V108.679H1080.41V26.7706H1137.28C1144.23 26.7706 1149.98 27.4679 1154.54 28.8624C1159.17 30.1835 1162.82 32.055 1165.5 34.4771C1168.25 36.8991 1170.17 39.7982 1171.25 43.1743C1172.41 46.4771 1172.99 50.1468 1172.99 54.1835V55.5046C1172.99 59.4679 1172.41 63.1743 1171.25 66.6239C1170.17 70 1168.25 72.9358 1165.5 75.4312C1162.75 77.9266 1159.06 79.8716 1154.43 81.2661C1149.87 82.6605 1144.16 83.3578 1137.28 83.3578H1106.35ZM1106.35 63.7615H1135.11C1139.16 63.7615 1141.98 62.9908 1143.58 61.4495C1145.24 59.8349 1146.07 57.7431 1146.07 55.1743V54.844C1146.07 52.422 1145.24 50.4404 1143.58 48.8991C1141.98 47.2844 1139.16 46.4771 1135.11 46.4771H1106.35V63.7615Z" stroke="#F2F2F2" stroke-width="4" mask="url(#path-1-outside-1_1923_19278)"/>
<path d="M1257.46 56.4954L1213.83 108.679H1187.89V26.7706H1213.83V78.9541L1257.46 26.7706H1283.29V108.679H1257.46V56.4954Z" stroke="#F2F2F2" stroke-width="4" mask="url(#path-1-outside-1_1923_19278)"/>
<path d="M1328.2 71.1376V108.679H1302.36V26.7706H1328.2V59.4679L1363.69 26.7706H1395.16L1354.24 63.9817L1397.44 108.679H1364.23L1328.2 71.1376Z" stroke="#F2F2F2" stroke-width="4" mask="url(#path-1-outside-1_1923_19278)"/>
<path d="M1451.75 25.4495C1458.48 25.4495 1464.38 26.0367 1469.45 27.211C1474.58 28.3853 1479 30 1482.69 32.055C1486.45 34.1101 1489.56 36.4954 1492.02 39.211C1494.48 41.8532 1496.44 44.6789 1497.88 47.6881C1499.4 50.6239 1500.45 53.6697 1501.03 56.8257C1501.68 59.9817 1502.01 62.9908 1502.01 65.8532V69.156C1502.01 73.4862 1501.28 78.0367 1499.84 82.8073C1498.39 87.578 1495.78 91.9817 1492.02 96.0183C1488.33 100.055 1483.23 103.394 1476.72 106.037C1470.21 108.679 1461.88 110 1451.75 110H1446.87C1440.14 110 1434.21 109.413 1429.07 108.239C1424 106.991 1419.59 105.339 1415.83 103.284C1412.14 101.156 1409.06 98.7339 1406.6 96.0183C1404.14 93.3027 1402.15 90.4404 1400.63 87.4312C1399.18 84.3486 1398.13 81.2661 1397.48 78.1835C1396.9 75.0275 1396.62 72.0183 1396.62 69.156V65.8532C1396.62 62.9174 1396.9 59.9083 1397.48 56.8257C1398.13 53.6697 1399.18 50.6239 1400.63 47.6881C1402.15 44.6789 1404.14 41.8532 1406.6 39.211C1409.06 36.4954 1412.14 34.1101 1415.83 32.055C1419.59 30 1424 28.3853 1429.07 27.211C1434.21 26.0367 1440.14 25.4495 1446.87 25.4495H1451.75ZM1474.98 66.7339C1474.98 64.5321 1474.66 62.2202 1474 59.7982C1473.35 57.3028 1472.09 55.0275 1470.21 52.9725C1468.4 50.9174 1465.79 49.2294 1462.39 47.9083C1459.06 46.5872 1454.72 45.9266 1449.37 45.9266C1443.94 45.9266 1439.56 46.5872 1436.23 47.9083C1432.9 49.2294 1430.3 50.9174 1428.42 52.9725C1426.54 55.0275 1425.27 57.3028 1424.62 59.7982C1423.97 62.2202 1423.64 64.5321 1423.64 66.7339V68.1651C1423.64 70.367 1423.97 72.7156 1424.62 75.211C1425.34 77.7064 1426.64 80.0183 1428.53 82.1468C1430.48 84.2018 1433.12 85.9266 1436.45 87.3211C1439.78 88.6422 1444.08 89.3028 1449.37 89.3028C1454.72 89.3028 1459.06 88.6422 1462.39 87.3211C1465.79 85.9266 1468.4 84.2018 1470.21 82.1468C1472.09 80.0183 1473.35 77.7064 1474 75.211C1474.66 72.7156 1474.98 70.367 1474.98 68.1651V66.7339Z" stroke="#F2F2F2" stroke-width="4" mask="url(#path-1-outside-1_1923_19278)"/>
<path d="M1517.54 26.7706H1580.81C1586.6 26.7706 1591.38 27.3211 1595.14 28.422C1598.98 29.5229 1602.02 30.9908 1604.26 32.8257C1606.5 34.5872 1608.06 36.6422 1608.93 38.9908C1609.87 41.2661 1610.34 43.6147 1610.34 46.0367V47.0275C1610.34 49.6697 1609.83 51.9817 1608.82 53.9633C1607.8 55.945 1606.5 57.5963 1604.91 58.9174C1603.39 60.2385 1601.73 61.2661 1599.92 62C1598.18 62.7339 1596.55 63.211 1595.03 63.4312C1597.2 63.7982 1599.45 64.422 1601.76 65.3027C1604.08 66.1101 1606.18 67.3211 1608.06 68.9358C1610.01 70.5505 1611.57 72.5688 1612.72 74.9908C1613.95 77.4128 1614.57 80.3119 1614.57 83.6881V84.789C1614.57 87.8716 1614.03 90.844 1612.94 93.7064C1611.93 96.5688 1610.16 99.1376 1607.62 101.413C1605.09 103.615 1601.65 105.376 1597.31 106.697C1592.97 108.018 1587.54 108.679 1581.03 108.679H1517.54V26.7706ZM1543.48 44.9358V58.1468H1574.95C1578.21 58.1468 1580.42 57.5229 1581.57 56.2752C1582.8 55.0275 1583.42 53.4862 1583.42 51.6514V51.4312C1583.42 49.5229 1582.8 47.9816 1581.57 46.8073C1580.42 45.5596 1578.21 44.9358 1574.95 44.9358H1543.48ZM1543.48 75.1009V89.633H1577.02C1578.97 89.633 1580.56 89.4128 1581.79 88.9725C1583.02 88.5321 1584 87.9817 1584.72 87.3211C1585.44 86.5872 1585.92 85.7798 1586.13 84.8991C1586.42 84.0183 1586.57 83.1376 1586.57 82.2569V81.8165C1586.57 80.9358 1586.42 80.0917 1586.13 79.2844C1585.92 78.4037 1585.44 77.6697 1584.72 77.0826C1584 76.4954 1583.02 76.0183 1581.79 75.6514C1580.56 75.2844 1578.97 75.1009 1577.02 75.1009H1543.48Z" stroke="#F2F2F2" stroke-width="4" mask="url(#path-1-outside-1_1923_19278)"/>
<path d="M1680.81 25.4495C1687.54 25.4495 1693.44 26.0367 1698.5 27.211C1703.64 28.3853 1708.06 30 1711.75 32.055C1715.51 34.1101 1718.62 36.4954 1721.08 39.211C1723.54 41.8532 1725.49 44.6789 1726.94 47.6881C1728.46 50.6239 1729.51 53.6697 1730.09 56.8257C1730.74 59.9817 1731.07 62.9908 1731.07 65.8532V69.156C1731.07 73.4862 1730.34 78.0367 1728.9 82.8073C1727.45 87.578 1724.84 91.9817 1721.08 96.0183C1717.39 100.055 1712.29 103.394 1705.78 106.037C1699.26 108.679 1690.94 110 1680.81 110H1675.93C1669.2 110 1663.26 109.413 1658.13 108.239C1653.06 106.991 1648.65 105.339 1644.88 103.284C1641.19 101.156 1638.12 98.7339 1635.66 96.0183C1633.2 93.3027 1631.21 90.4404 1629.69 87.4312C1628.24 84.3486 1627.19 81.2661 1626.54 78.1835C1625.96 75.0275 1625.67 72.0183 1625.67 69.156V65.8532C1625.67 62.9174 1625.96 59.9083 1626.54 56.8257C1627.19 53.6697 1628.24 50.6239 1629.69 47.6881C1631.21 44.6789 1633.2 41.8532 1635.66 39.211C1638.12 36.4954 1641.19 34.1101 1644.88 32.055C1648.65 30 1653.06 28.3853 1658.13 27.211C1663.26 26.0367 1669.2 25.4495 1675.93 25.4495H1680.81ZM1704.04 66.7339C1704.04 64.5321 1703.71 62.2202 1703.06 59.7982C1702.41 57.3028 1701.15 55.0275 1699.26 52.9725C1697.45 50.9174 1694.85 49.2294 1691.45 47.9083C1688.12 46.5872 1683.78 45.9266 1678.42 45.9266C1673 45.9266 1668.62 46.5872 1665.29 47.9083C1661.96 49.2294 1659.36 50.9174 1657.48 52.9725C1655.59 55.0275 1654.33 57.3028 1653.68 59.7982C1653.03 62.2202 1652.7 64.5321 1652.7 66.7339V68.1651C1652.7 70.367 1653.03 72.7156 1653.68 75.211C1654.4 77.7064 1655.7 80.0183 1657.58 82.1468C1659.54 84.2018 1662.18 85.9266 1665.51 87.3211C1668.84 88.6422 1673.14 89.3028 1678.42 89.3028C1683.78 89.3028 1688.12 88.6422 1691.45 87.3211C1694.85 85.9266 1697.45 84.2018 1699.26 82.1468C1701.15 80.0183 1702.41 77.7064 1703.06 75.211C1703.71 72.7156 1704.04 70.367 1704.04 68.1651V66.7339Z" stroke="#F2F2F2" stroke-width="4" mask="url(#path-1-outside-1_1923_19278)"/>
<path d="M1816.17 56.4954L1772.53 108.679H1746.59V26.7706H1772.53V78.9541L1816.17 26.7706H1842V108.679H1816.17V56.4954ZM1792.72 21.0459C1787.95 21.0459 1784.08 20.3853 1781.11 19.0642C1778.21 17.6697 1775.97 16.0183 1774.38 14.1101C1772.79 12.1284 1771.7 10.0734 1771.12 7.94496C1770.62 5.74312 1770.36 3.83486 1770.36 2.22018V2H1787.62C1787.69 2.51376 1787.8 3.13761 1787.95 3.87156C1788.16 4.53211 1788.49 5.19266 1788.92 5.85321C1789.43 6.44037 1790.08 6.95413 1790.88 7.3945C1791.75 7.83486 1792.87 8.05505 1794.24 8.05505H1794.35C1795.65 8.05505 1796.7 7.83486 1797.5 7.3945C1798.29 6.95413 1798.91 6.44037 1799.34 5.85321C1799.78 5.19266 1800.07 4.53211 1800.21 3.87156C1800.43 3.13761 1800.57 2.51376 1800.65 2H1817.8V2.22018C1817.8 3.83486 1817.43 5.74312 1816.71 7.94496C1816.06 10.0734 1814.9 12.1284 1813.24 14.1101C1811.57 16.0183 1809.29 17.6697 1806.4 19.0642C1803.58 20.3853 1799.96 21.0459 1795.54 21.0459H1792.72Z" stroke="#F2F2F2" stroke-width="4" mask="url(#path-1-outside-1_1923_19278)"/>
</svg>
