<svg width="359" height="26" viewBox="0 0 359 26" fill="none" xmlns="http://www.w3.org/2000/svg">
<path d="M16.1887 12.0921L15.4303 15.7801H19.5852V19.0765H14.8038L13.5507 25.5386H10.0224L11.2754 19.0765H8.14277L6.92269 25.5386H3.46029L4.6474 19.0765H0.822266V15.7801H5.27393L6.03236 12.0921H1.9764V8.76315H6.62591L7.87897 2.26837H11.4073L10.1543 8.76315H13.3529L14.6059 2.26837H18.0683L16.8153 8.76315H20.6734V12.0921H16.1887ZM8.7693 15.7801H11.9349L12.6934 12.0921H9.52773L8.7693 15.7801Z" fill="#0F0C0C"/>
<path d="M23.3274 1.25662H34.0113L41.2329 16.3676L48.6194 1.25662H58.7758V25.5386H51.0596V10.036L43.7061 25.5386H38.2322L30.9117 10.036V25.5386H23.3274V1.25662Z" fill="#0F0C0C"/>
<path d="M81.3301 20.1535C80.8025 21.0456 80.2639 21.8289 79.7143 22.5034C79.1867 23.1779 78.5711 23.7436 77.8677 24.2005C77.1862 24.6356 76.3948 24.9729 75.4934 25.2122C74.6141 25.4298 73.5479 25.5386 72.2948 25.5386H66.3593V19.566H70.712C71.1517 19.566 71.3715 19.392 71.3715 19.0438V19.0112C71.3715 18.8371 71.3276 18.6631 71.2396 18.489C71.1737 18.3149 71.0528 18.0865 70.8769 17.8036L60.4238 1.25662H69.36L76.9114 13.6587L84.0011 1.25662H92.5746L81.3301 20.1535Z" fill="#0F0C0C"/>
<path d="M121.555 18.5543C121.555 19.8598 121.236 20.9803 120.599 21.9159C119.961 22.8297 119.027 23.5913 117.796 24.2005C116.587 24.8097 115.103 25.2558 113.344 25.5386C111.607 25.8215 109.618 25.9629 107.376 25.9629H106.584C104.584 25.9629 102.682 25.8106 100.88 25.506C99.0988 25.2014 97.538 24.7118 96.197 24.0373C94.856 23.341 93.7898 22.4272 92.9984 21.2958C92.207 20.1644 91.8113 18.7719 91.8113 17.1182V16.8245H100.154C100.154 18.2605 100.759 19.2614 101.968 19.8271C103.199 20.3928 105.045 20.6757 107.508 20.6757C109.508 20.6757 110.981 20.4581 111.926 20.0229C112.872 19.566 113.344 18.8806 113.344 17.9668C113.344 17.1182 112.981 16.5199 112.256 16.1718C111.552 15.8019 110.442 15.6169 108.925 15.6169H102.33V10.4929H108.464C109.013 10.4929 109.53 10.4712 110.014 10.4276C110.519 10.3624 110.948 10.2645 111.3 10.1339C111.673 9.9816 111.959 9.78578 112.157 9.54644C112.377 9.28534 112.487 8.95897 112.487 8.56733C112.487 7.71876 112.058 7.10954 111.201 6.73965C110.343 6.34801 108.882 6.15218 106.815 6.15218C105.914 6.15218 105.078 6.20658 104.309 6.31537C103.54 6.4024 102.858 6.57647 102.264 6.83756C101.693 7.0769 101.231 7.41415 100.88 7.84931C100.55 8.26272 100.374 8.79579 100.352 9.44853H92.0092V9.05689C92.0092 7.57734 92.3829 6.32625 93.1303 5.30362C93.8997 4.25923 94.933 3.42155 96.23 2.79057C97.549 2.13782 99.0659 1.67003 100.781 1.38717C102.517 1.10432 104.364 0.962891 106.32 0.962891H107.376C111.618 0.962891 114.894 1.49596 117.202 2.56211C119.533 3.60649 120.698 5.15131 120.698 7.19657V7.42503C120.698 8.20832 120.566 8.8937 120.302 9.48117C120.06 10.0469 119.719 10.5364 119.28 10.9498C118.862 11.3415 118.367 11.6787 117.796 11.9616C117.246 12.2227 116.653 12.4403 116.015 12.6143C116.675 12.7449 117.334 12.9516 117.994 13.2344C118.653 13.5173 119.247 13.8872 119.774 14.3441C120.302 14.801 120.731 15.3558 121.06 16.0086C121.39 16.6396 121.555 17.3793 121.555 18.2279V18.5543Z" fill="#0F0C0C"/>
<path d="M132.834 8.79579H142.397C144.463 8.79579 146.189 9.00249 147.574 9.41589C148.959 9.80754 150.058 10.3624 150.872 11.0804C151.685 11.7984 152.256 12.6578 152.586 13.6587C152.938 14.6596 153.114 15.7584 153.114 16.9551V17.3141C153.114 18.4672 152.938 19.5443 152.586 20.5451C152.235 21.546 151.641 22.4163 150.806 23.1561C149.992 23.8959 148.893 24.4833 147.508 24.9185C146.145 25.3319 144.441 25.5386 142.397 25.5386H124.953V1.25662H132.834V8.79579ZM141.737 19.7618C142.793 19.7618 143.584 19.5334 144.112 19.0765C144.639 18.6195 144.903 18.0103 144.903 17.2488V17.0203C144.903 16.2806 144.639 15.6931 144.112 15.2579C143.584 14.801 142.793 14.5726 141.737 14.5726H132.834V19.7618H141.737ZM163.534 25.5386H155.653V1.25662H163.534V25.5386Z" fill="#0F0C0C"/>
<path d="M176.187 14.4094V25.5386H168.339V1.25662H176.187V10.9498L186.97 1.25662H196.532L184.101 12.288L197.225 25.5386H187.135L176.187 14.4094Z" fill="#0F0C0C"/>
<path d="M212.263 6.90284L208.24 15.9759H216.385L212.263 6.90284ZM218.793 21.3284H205.833L203.954 25.5386H196.073L207.218 1.25662H217.605L229.114 25.5386H220.705L218.793 21.3284Z" fill="#0F0C0C"/>
<path d="M231.119 1.25662H239V10.036H252.025V1.25662H259.907V25.5386H252.025V16.0739H239V25.5386H231.119V1.25662Z" fill="#0F0C0C"/>
<path d="M272.992 7.39239H263.33V1.25662H290.502V7.39239H280.84V25.5386H272.992V7.39239Z" fill="#0F0C0C"/>
<path d="M304.518 6.90284L300.495 15.9759H308.64L304.518 6.90284ZM311.047 21.3284H298.088L296.208 25.5386H288.327L299.473 1.25662H309.86L321.369 25.5386H312.96L311.047 21.3284Z" fill="#0F0C0C"/>
<path d="M323.374 1.25662H334.058L341.279 16.3676L348.666 1.25662H358.822V25.5386H351.106V10.036L343.753 25.5386H338.279L330.958 10.036V25.5386H323.374V1.25662Z" fill="#0F0C0C"/>
</svg>
