<svg width="308" height="83" viewBox="0 0 308 83" fill="none" xmlns="http://www.w3.org/2000/svg">
<path d="M25.9983 56.5793L25.9983 81.1987H0.415527L0.415527 1.56037L56.5049 1.56037C63.3555 1.56037 69.0286 2.23829 73.5244 3.59414C78.0914 4.87863 81.6951 6.69833 84.3355 9.05322C87.0472 11.4081 88.9382 14.2269 90.0086 17.5094C91.1504 20.7207 91.7213 24.2887 91.7213 28.2135V29.498C91.7213 33.3515 91.1504 36.9552 90.0086 40.3091C88.9382 43.5917 87.0472 46.4461 84.3355 48.8724C81.6238 51.2986 77.9844 53.1897 73.4173 54.5455C68.9216 55.9014 63.2841 56.5793 56.5049 56.5793H25.9983ZM25.9983 37.5261H54.3641C58.3603 37.5261 61.1433 36.7768 62.7132 35.2782C64.3545 33.7083 65.1752 31.6745 65.1752 29.1769V28.8558C65.1752 26.5009 64.3545 24.5741 62.7132 23.0756C61.1433 21.5056 58.3603 20.7207 54.3641 20.7207H25.9983V37.5261Z" fill="#F2F2F2"/>
<path d="M154.044 0.275879C160.681 0.275879 166.497 0.846764 171.492 1.98853C176.558 3.1303 180.911 4.70023 184.551 6.69832C188.261 8.69642 191.33 11.0156 193.756 13.656C196.182 16.225 198.109 18.9723 199.536 21.8981C201.035 24.7525 202.07 27.714 202.641 30.7825C203.283 33.851 203.604 36.7768 203.604 39.5598V42.7711C203.604 46.9813 202.89 51.4057 201.463 56.0441C200.036 60.6825 197.467 64.9642 193.756 68.889C190.117 72.8138 185.086 76.0607 178.663 78.6297C172.241 81.1987 164.035 82.4832 154.044 82.4832H149.227C142.591 82.4832 136.739 81.9123 131.673 80.7705C126.677 79.5574 122.324 77.9518 118.614 75.9537C114.974 73.8842 111.941 71.5293 109.515 68.889C107.089 66.2487 105.126 63.4656 103.628 60.5398C102.201 57.5427 101.166 54.5455 100.524 51.5484C99.9528 48.4799 99.6674 45.5541 99.6674 42.7711V39.5598C99.6674 36.7054 99.9528 33.7796 100.524 30.7825C101.166 27.714 102.201 24.7525 103.628 21.8981C105.126 18.9723 107.089 16.225 109.515 13.656C111.941 11.0156 114.974 8.69642 118.614 6.69832C122.324 4.70023 126.677 3.1303 131.673 1.98853C136.739 0.846764 142.591 0.275879 149.227 0.275879L154.044 0.275879ZM176.951 40.4162C176.951 38.2753 176.63 36.0275 175.987 33.6726C175.345 31.2463 174.096 29.0342 172.241 27.0361C170.457 25.038 167.888 23.3967 164.534 22.1122C161.251 20.8277 156.97 20.1855 151.689 20.1855C146.337 20.1855 142.02 20.8277 138.737 22.1122C135.455 23.3967 132.886 25.038 131.03 27.0361C129.175 29.0342 127.926 31.2463 127.284 33.6726C126.642 36.0275 126.321 38.2753 126.321 40.4162V41.8077C126.321 43.9485 126.642 46.232 127.284 48.6583C127.998 51.0846 129.282 53.3324 131.137 55.4019C133.064 57.4 135.669 59.0769 138.951 60.4328C142.234 61.7173 146.48 62.3595 151.689 62.3595C156.97 62.3595 161.251 61.7173 164.534 60.4328C167.888 59.0769 170.457 57.4 172.241 55.4019C174.096 53.3324 175.345 51.0846 175.987 48.6583C176.63 46.232 176.951 43.9485 176.951 41.8077V40.4162Z" fill="#F2F2F2"/>
<path d="M241.288 56.5793V81.1987H215.705V1.56037L271.795 1.56037C278.645 1.56037 284.319 2.23829 288.814 3.59414C293.381 4.87863 296.985 6.69833 299.625 9.05322C302.337 11.4081 304.228 14.2269 305.299 17.5094C306.44 20.7207 307.011 24.2887 307.011 28.2135V29.498C307.011 33.3515 306.44 36.9552 305.299 40.3091C304.228 43.5917 302.337 46.4461 299.625 48.8724C296.914 51.2986 293.274 53.1897 288.707 54.5455C284.211 55.9014 278.574 56.5793 271.795 56.5793H241.288ZM241.288 37.5261H269.654C273.65 37.5261 276.433 36.7768 278.003 35.2782C279.644 33.7083 280.465 31.6745 280.465 29.1769V28.8558C280.465 26.5009 279.644 24.5741 278.003 23.0756C276.433 21.5056 273.65 20.7207 269.654 20.7207H241.288V37.5261Z" fill="#F2F2F2"/>
</svg>
