<svg width="2612" height="225" viewBox="0 0 2612 225" fill="none" xmlns="http://www.w3.org/2000/svg">
<path d="M0 3.51563H239.902V221.484H169.979V55.3711H69.9227V221.484H0V3.51563Z" fill="#F2F2F2"/>
<path d="M352.566 154.102V221.484H282.644V3.51563H435.947C454.671 3.51563 470.177 5.3711 482.465 9.08204C494.947 12.5977 504.797 17.5781 512.014 24.0234C519.425 30.4688 524.594 38.1836 527.519 47.168C530.64 55.957 532.2 65.7227 532.2 76.4648V79.9805C532.2 90.5273 530.64 100.391 527.519 109.57C524.594 118.555 519.425 126.367 512.014 133.008C504.602 139.648 494.655 144.824 482.172 148.535C469.884 152.246 454.476 154.102 435.947 154.102H352.566ZM352.566 101.953H430.096C441.018 101.953 448.625 99.9023 452.916 95.8008C457.402 91.5039 459.645 85.9375 459.645 79.1016V78.2227C459.645 71.7773 457.402 66.5039 452.916 62.4023C448.625 58.1055 441.018 55.957 430.096 55.957H352.566V101.953Z" fill="#F2F2F2"/>
<path d="M702.541 0C720.68 0 736.576 1.5625 750.229 4.68751C764.077 7.8125 775.974 12.1094 785.922 17.5781C796.064 23.0469 804.451 29.3945 811.082 36.6211C817.714 43.6523 822.98 51.1719 826.88 59.1797C830.976 66.9922 833.804 75.0977 835.365 83.4961C837.12 91.8945 837.998 99.9023 837.998 107.52V116.309C837.998 127.832 836.047 139.941 832.147 152.637C828.246 165.332 821.224 177.051 811.082 187.793C801.135 198.535 787.384 207.422 769.831 214.453C752.277 221.484 729.847 225 702.541 225H689.376C671.237 225 655.243 223.437 641.395 220.312C627.742 216.992 615.845 212.598 605.702 207.129C595.755 201.465 587.466 195.02 580.835 187.793C574.203 180.566 568.839 172.949 564.744 164.941C560.843 156.738 558.015 148.535 556.259 140.332C554.699 131.934 553.919 123.926 553.919 116.309V107.52C553.919 99.707 554.699 91.6992 556.259 83.4961C558.015 75.0977 560.843 66.9922 564.744 59.1797C568.839 51.1719 574.203 43.6523 580.835 36.6211C587.466 29.3945 595.755 23.0469 605.702 17.5781C615.845 12.1094 627.742 7.8125 641.395 4.68751C655.243 1.5625 671.237 0 689.376 0H702.541ZM765.15 109.863C765.15 104.004 764.272 97.8516 762.516 91.4062C760.761 84.7656 757.348 78.7109 752.277 73.2422C747.401 67.7734 740.379 63.2812 731.212 59.7656C722.24 56.25 710.538 54.4922 696.105 54.4922C681.476 54.4922 669.676 56.25 660.704 59.7656C651.732 63.2812 644.711 67.7734 639.64 73.2422C634.569 78.7109 631.155 84.7656 629.4 91.4062C627.645 97.8516 626.767 104.004 626.767 109.863V113.672C626.767 119.531 627.645 125.781 629.4 132.422C631.35 139.062 634.861 145.215 639.932 150.879C645.198 156.348 652.318 160.937 661.289 164.648C670.261 168.164 681.866 169.922 696.105 169.922C710.538 169.922 722.24 168.164 731.212 164.648C740.379 160.937 747.401 156.348 752.277 150.879C757.348 145.215 760.761 139.062 762.516 132.422C764.272 125.781 765.15 119.531 765.15 113.672V109.863Z" fill="#F2F2F2"/>
<path d="M871.074 3.51563H1062.12V55.3711H940.996V221.484H871.074V3.51563Z" fill="#F2F2F2"/>
<path d="M1155.64 154.102V221.484H1085.72V3.51563H1239.02C1257.75 3.51563 1273.25 5.3711 1285.54 9.08204C1298.02 12.5977 1307.87 17.5781 1315.09 24.0234C1322.5 30.4688 1327.67 38.1836 1330.59 47.168C1333.72 55.957 1335.28 65.7227 1335.28 76.4648V79.9805C1335.28 90.5273 1333.72 100.391 1330.59 109.57C1327.67 118.555 1322.5 126.367 1315.09 133.008C1307.68 139.648 1297.73 144.824 1285.25 148.535C1272.96 152.246 1257.55 154.102 1239.02 154.102H1155.64ZM1155.64 101.953H1233.17C1244.09 101.953 1251.7 99.9023 1255.99 95.8008C1260.48 91.5039 1262.72 85.9375 1262.72 79.1016V78.2227C1262.72 71.7773 1260.48 66.5039 1255.99 62.4023C1251.7 58.1055 1244.09 55.957 1233.17 55.957H1155.64V101.953Z" fill="#F2F2F2"/>
<path d="M1462 54.1992L1426.31 135.645H1498.57L1462 54.1992ZM1519.93 183.691H1404.95L1388.28 221.484H1318.35L1417.24 3.51563H1509.4L1611.5 221.484H1536.9L1519.93 183.691Z" fill="#F2F2F2"/>
<path d="M1629.29 3.51563H1724.08L1788.16 139.16L1853.69 3.51563H1943.8V221.484H1875.34V82.3242L1810.1 221.484H1761.53L1696.58 82.3242V221.484H1629.29V3.51563Z" fill="#F2F2F2"/>
<path d="M1986.51 3.51563H2081.3L2145.37 139.16L2210.9 3.51563H2301.01V221.484H2232.55V82.3242L2167.31 221.484H2118.74L2053.8 82.3242V221.484H1986.51V3.51563Z" fill="#F2F2F2"/>
<path d="M2462.5 54.1992L2426.81 135.645H2499.07L2462.5 54.1992ZM2520.43 183.691H2405.45L2388.77 221.484H2318.85L2417.74 3.51563H2509.9L2612 221.484H2537.4L2520.43 183.691Z" fill="#F2F2F2"/>
</svg>
