<svg width="604" height="83" viewBox="0 0 604 83" fill="none" xmlns="http://www.w3.org/2000/svg">
<path d="M25.8091 36.0022H55.8875C57.957 36.0022 59.6339 35.8238 60.9184 35.467C62.2743 35.0388 63.3447 34.4679 64.1297 33.7543C64.9146 33.0407 65.4498 32.2201 65.7353 31.2924C66.0207 30.3647 66.1634 29.4013 66.1634 28.4023V28.1882C66.1634 27.2605 66.0207 26.3685 65.7353 25.5122C65.4498 24.5845 64.9146 23.7995 64.1297 23.1573C63.3447 22.4437 62.2743 21.9085 60.9184 21.5517C59.6339 21.1235 57.957 20.9094 55.8875 20.9094H25.8091V36.0022ZM75.476 43.1739C78.1163 43.6734 80.5426 44.4227 82.7547 45.4217C84.9669 46.4208 86.858 47.741 88.4279 49.3823C89.9978 50.9522 91.211 52.8789 92.0673 55.1625C92.995 57.3746 93.4588 59.9793 93.4588 62.9764V73.3594C93.4588 75.857 93.5659 77.6053 93.7799 78.6044C94.0654 79.6034 94.3865 80.3884 94.7433 80.9593V81.4945H68.3042C68.1615 81.209 68.0188 80.6738 67.8761 79.8889C67.7334 79.1039 67.662 77.8908 67.662 76.2495V69.613C67.662 67.044 67.4122 64.8675 66.9127 63.0835C66.4132 61.2995 65.5569 59.8722 64.3437 58.8018C63.202 57.6601 61.6677 56.8394 59.741 56.3399C57.8143 55.8404 55.4594 55.5906 52.6763 55.5906H25.8091L25.8091 81.4945H0.226318L0.226318 1.85616L59.3128 1.85616C66.7343 1.85616 72.6572 2.53409 77.0816 3.88994C81.5059 5.24579 84.8599 6.95844 87.1434 9.02789C89.4983 11.0973 91.0326 13.4166 91.7462 15.9855C92.4598 18.5545 92.8166 21.0165 92.8166 23.3714V24.3347C92.8166 26.9751 92.3527 29.3656 91.425 31.5065C90.4974 33.5759 89.2486 35.3956 87.6786 36.9655C86.1087 38.5355 84.2533 39.8556 82.1125 40.926C80.043 41.9251 77.8309 42.6744 75.476 43.1739Z" fill="#F2F2F2"/>
<path d="M182.989 1.85616V20.1601H132.038V31.7205H181.384V50.6667H132.038V62.9764H183.631V81.4945H106.669V1.85616L182.989 1.85616Z" fill="#F2F2F2"/>
<path d="M240.465 82.6719C231.474 82.6719 223.981 81.4231 217.987 78.9255C212.064 76.4279 207.282 73.2523 203.643 69.3989C200.075 65.5454 197.542 61.2638 196.043 56.554C194.545 51.7728 193.795 47.1344 193.795 42.6387V40.0697C193.795 37.2153 194.116 34.2538 194.759 31.1853C195.401 28.1168 196.436 25.1197 197.863 22.1939C199.361 19.2681 201.324 16.5207 203.75 13.9518C206.176 11.3114 209.209 9.02789 212.849 7.10116C216.488 5.10306 220.77 3.53313 225.693 2.39137C230.617 1.2496 236.29 0.678711 242.713 0.678711L246.352 0.678711C255.915 0.678711 263.764 1.6064 269.901 3.46177C276.11 5.31715 280.998 7.67204 284.566 10.5265C288.205 13.3809 290.739 16.4851 292.166 19.839C293.593 23.1929 294.307 26.4042 294.307 29.4727V29.7938H267.653C267.439 29.2943 267.011 28.545 266.369 27.5459C265.798 26.4755 264.692 25.4051 263.051 24.3347C261.409 23.2643 259.126 22.3366 256.2 21.5517C253.274 20.7667 249.421 20.3742 244.64 20.3742C239.93 20.3742 236.005 20.9808 232.865 22.1939C229.725 23.3357 227.228 24.8699 225.372 26.7967C223.517 28.652 222.197 30.7928 221.412 33.2191C220.698 35.6454 220.341 38.1073 220.341 40.6049V41.8894C220.341 44.3157 220.734 46.7776 221.519 49.2752C222.375 51.7728 223.731 54.0564 225.586 56.1258C227.513 58.1239 230.046 59.7652 233.186 61.0497C236.398 62.3342 240.358 62.9764 245.068 62.9764C249.564 62.9764 253.239 62.5483 256.093 61.6919C258.947 60.7643 261.195 59.6938 262.837 58.4807C264.549 57.2676 265.727 56.0545 266.369 54.8413C267.011 53.6282 267.404 52.7005 267.546 52.0583H245.282V37.5007H295.27V81.4945H276.217C276.145 80.7809 276.003 79.9602 275.789 79.0325C275.574 78.1049 275.289 77.1415 274.932 76.1424C274.647 75.1434 274.326 74.18 273.969 73.2523C273.612 72.3247 273.291 71.5397 273.005 70.8974C272.435 71.5397 271.436 72.5387 270.008 73.8946C268.581 75.1791 266.619 76.4636 264.121 77.7481C261.695 79.0325 258.662 80.1743 255.023 81.1734C251.455 82.1724 247.209 82.6719 242.285 82.6719H240.465Z" fill="#F2F2F2"/>
<path d="M352.762 82.6719C343.77 82.6719 336.277 81.4231 330.283 78.9255C324.36 76.4279 319.579 73.2523 315.94 69.3989C312.372 65.5454 309.838 61.2638 308.34 56.554C306.841 51.7728 306.092 47.1344 306.092 42.6387V40.0697C306.092 37.2153 306.413 34.2538 307.055 31.1853C307.698 28.1168 308.732 25.1197 310.159 22.1939C311.658 19.2681 313.62 16.5207 316.047 13.9518C318.473 11.3114 321.506 9.02789 325.145 7.10116C328.785 5.10306 333.066 3.53313 337.99 2.39137C342.914 1.2496 348.587 0.678711 355.01 0.678711L358.649 0.678711C368.211 0.678711 376.061 1.6064 382.198 3.46177C388.406 5.31715 393.294 7.67204 396.863 10.5265C400.502 13.3809 403.035 16.4851 404.462 19.839C405.89 23.1929 406.603 26.4042 406.603 29.4727V29.7938H379.95C379.736 29.2943 379.308 28.545 378.666 27.5459C378.095 26.4755 376.989 25.4051 375.347 24.3347C373.706 23.2643 371.422 22.3366 368.497 21.5517C365.571 20.7667 361.717 20.3742 356.936 20.3742C352.227 20.3742 348.302 20.9808 345.162 22.1939C342.022 23.3357 339.524 24.8699 337.669 26.7967C335.814 28.652 334.493 30.7928 333.708 33.2191C332.995 35.6454 332.638 38.1073 332.638 40.6049V41.8894C332.638 44.3157 333.031 46.7776 333.815 49.2752C334.672 51.7728 336.028 54.0564 337.883 56.1258C339.81 58.1239 342.343 59.7652 345.483 61.0497C348.694 62.3342 352.655 62.9764 357.364 62.9764C361.86 62.9764 365.535 62.5483 368.39 61.6919C371.244 60.7643 373.492 59.6938 375.133 58.4807C376.846 57.2676 378.023 56.0545 378.666 54.8413C379.308 53.6282 379.7 52.7005 379.843 52.0583H357.579V37.5007L407.567 37.5007V81.4945H388.513C388.442 80.7809 388.299 79.9602 388.085 79.0325C387.871 78.1049 387.586 77.1415 387.229 76.1424C386.943 75.1434 386.622 74.18 386.265 73.2523C385.909 72.3247 385.588 71.5397 385.302 70.8974C384.731 71.5397 383.732 72.5387 382.305 73.8946C380.878 75.1791 378.915 76.4636 376.418 77.7481C373.991 79.0325 370.959 80.1743 367.319 81.1734C363.751 82.1724 359.505 82.6719 354.581 82.6719H352.762Z" fill="#F2F2F2"/>
<path d="M465.379 20.3742L452.32 50.1315H478.76L465.379 20.3742ZM486.574 67.6862H444.507L438.405 81.4945H412.822L449.002 1.85616L482.72 1.85616L520.077 81.4945H492.782L486.574 67.6862Z" fill="#F2F2F2"/>
<path d="M602.907 1.85616V20.1601L551.955 20.1601V31.7205L601.301 31.7205V50.6667H551.955V62.9764H603.549V81.4945H526.587V1.85616L602.907 1.85616Z" fill="#F2F2F2"/>
</svg>
