<svg width="103" height="157" viewBox="0 0 103 157" fill="none" xmlns="http://www.w3.org/2000/svg">
<g clip-path="url(#clip0_1923_19424)">
<path fill-rule="evenodd" clip-rule="evenodd" d="M11.7479 20.209C6.96371 28.1459 6.55004 40.1392 10.2721 54.0303C11.9002 60.1064 14.3218 66.5486 17.5135 73.1684C28.0638 95.0563 45.571 115.696 65.8694 130.281C56.1343 125.765 47.4982 127.71 38.4188 130.657C37.755 130.871 37.3845 131.576 37.5647 132.248C37.5709 132.271 37.5767 132.293 37.5841 132.316C37.8075 133.008 38.5459 133.389 39.232 133.167C49.999 129.673 62.2027 125.714 78.8886 143.618C79.3847 144.149 80.2097 144.178 80.734 143.68C81.2583 143.181 81.285 142.354 80.7856 141.815C66.4446 126.426 66.9072 119.083 67.4958 109.791C67.5585 108.81 67.6215 107.81 67.6696 106.78C67.6981 106.059 67.1466 105.433 66.4256 105.394C65.7062 105.356 65.0941 105.914 65.0607 106.642C65.0126 107.657 64.9509 108.642 64.8898 109.608L64.8888 109.624C64.5108 115.617 64.1649 121.1 67.7168 128.373C23.7169 96.9897 0.999467 43.1351 13.9832 21.5985C22.1178 8.1041 42.715 9.7749 71.984 26.3033C72.6156 26.6607 73.4112 26.4338 73.7607 25.7943C74.1072 25.1585 73.8801 24.3513 73.2457 23.9933C31.8442 0.616042 16.9442 11.5885 11.7479 20.209ZM70.0235 132.467C69.9893 132.481 69.9545 132.494 69.9193 132.504C69.9911 132.55 70.0631 132.596 70.1351 132.642C70.0976 132.584 70.0605 132.525 70.0235 132.467Z" fill="#0F0C0C"/>
</g>
<defs>
<clipPath id="clip0_1923_19424">
<rect width="144" height="67" fill="white" transform="translate(64.7354) rotate(75)"/>
</clipPath>
</defs>
</svg>
