<svg width="422" height="84" viewBox="0 0 422 84" fill="none" xmlns="http://www.w3.org/2000/svg">
<path d="M26.1965 36.3226H56.275C58.3444 36.3226 60.0214 36.1442 61.3059 35.7874C62.6617 35.3592 63.7321 34.7883 64.5171 34.0747C65.3021 33.3611 65.8373 32.5405 66.1227 31.6128C66.4082 30.6851 66.5509 29.7217 66.5509 28.7227V28.5086C66.5509 27.5809 66.4082 26.6889 66.1227 25.8326C65.8373 24.9049 65.3021 24.1199 64.5171 23.4777C63.7321 22.7641 62.6617 22.2289 61.3059 21.8721C60.0214 21.4439 58.3444 21.2298 56.275 21.2298H26.1965V36.3226ZM75.8634 43.4943C78.5038 43.9938 80.93 44.7431 83.1422 45.7422C85.3544 46.7412 87.2454 48.0614 88.8153 49.7027C90.3853 51.2726 91.5984 53.1993 92.4547 55.4829C93.3824 57.695 93.8463 60.2997 93.8463 63.2968V73.6798C93.8463 76.1774 93.9533 77.9257 94.1674 78.9248C94.4528 79.9238 94.774 80.7088 95.1308 81.2797V81.8149H68.6917C68.549 81.5294 68.4062 80.9943 68.2635 80.2093C68.1208 79.4243 68.0494 78.2112 68.0494 76.5699V69.9334C68.0494 67.3644 67.7997 65.1879 67.3002 63.4039C66.8006 61.6199 65.9443 60.1927 64.7312 59.1223C63.5894 57.9805 62.0552 57.1598 60.1284 56.6603C58.2017 56.1608 55.8468 55.911 53.0637 55.911H26.1965L26.1965 81.8149H0.61377L0.61377 2.17658L59.7003 2.17658C67.1218 2.17658 73.0447 2.85451 77.469 4.21035C81.8934 5.5662 85.2473 7.27885 87.5309 9.34831C89.8858 11.4178 91.42 13.737 92.1336 16.306C92.8472 18.8749 93.204 21.3369 93.204 23.6918V24.6551C93.204 27.2955 92.7402 29.6861 91.8125 31.8269C90.8848 33.8963 89.636 35.716 88.0661 37.2859C86.4961 38.8559 84.6408 40.176 82.4999 41.2465C80.4305 42.2455 78.2183 42.9948 75.8634 43.4943Z" fill="#F2F2F2"/>
<path d="M157.901 0.89209C164.537 0.89209 170.353 1.46297 175.349 2.60475C180.415 3.74651 184.768 5.31644 188.408 7.31453C192.118 9.31263 195.187 11.6318 197.613 14.2722C200.039 16.8412 201.966 19.5885 203.393 22.5143C204.892 25.3687 205.927 28.3302 206.497 31.3987C207.14 34.4672 207.461 37.393 207.461 40.176V43.3873C207.461 47.5975 206.747 52.0219 205.32 56.6603C203.893 61.2988 201.324 65.5804 197.613 69.5052C193.974 73.43 188.943 76.6769 182.52 79.2459C176.098 81.8149 167.891 83.0994 157.901 83.0994H153.084C146.448 83.0994 140.596 82.5285 135.529 81.3867C130.534 80.1736 126.181 78.568 122.47 76.5699C118.831 74.5004 115.798 72.1455 113.372 69.5052C110.946 66.8649 108.983 64.0818 107.485 61.156C106.058 58.1589 105.023 55.1617 104.381 52.1646C103.81 49.0961 103.524 46.1703 103.524 43.3873V40.176C103.524 37.3216 103.81 34.3958 104.381 31.3987C105.023 28.3302 106.058 25.3687 107.485 22.5143C108.983 19.5885 110.946 16.8412 113.372 14.2722C115.798 11.6318 118.831 9.31263 122.47 7.31453C126.181 5.31644 130.534 3.74651 135.529 2.60475C140.596 1.46297 146.448 0.89209 153.084 0.89209L157.901 0.89209ZM180.808 41.0324C180.808 38.8916 180.487 36.6437 179.844 34.2888C179.202 31.8625 177.953 29.6504 176.098 27.6523C174.314 25.6542 171.745 24.0129 168.391 22.7284C165.108 21.4439 160.827 20.8017 155.546 20.8017C150.194 20.8017 145.877 21.4439 142.594 22.7284C139.312 24.0129 136.743 25.6542 134.887 27.6523C133.032 29.6504 131.783 31.8625 131.141 34.2888C130.499 36.6437 130.177 38.8916 130.177 41.0324V42.4239C130.177 44.5647 130.499 46.8482 131.141 49.2745C131.854 51.7008 133.139 53.9486 134.994 56.0181C136.921 58.0162 139.526 59.6931 142.808 61.049C146.091 62.3335 150.337 62.9757 155.546 62.9757C160.827 62.9757 165.108 62.3335 168.391 61.049C171.745 59.6931 174.314 58.0162 176.098 56.0181C177.953 53.9486 179.202 51.7008 179.844 49.2745C180.487 46.8482 180.808 44.5647 180.808 42.4239V41.0324Z" fill="#F2F2F2"/>
<path d="M263.984 83.0994C257.49 83.0994 251.782 82.4928 246.858 81.2797C242.005 80.0666 237.795 78.4253 234.227 76.3558C230.73 74.2864 227.804 71.9315 225.45 69.2911C223.095 66.5794 221.204 63.7607 219.776 60.8349C218.421 57.8378 217.457 54.8406 216.886 51.8435C216.315 48.8463 216.03 46.0276 216.03 43.3873V40.176C216.03 37.4643 216.315 34.6456 216.886 31.7198C217.457 28.7227 218.421 25.7612 219.776 22.8354C221.204 19.9097 223.059 17.1266 225.342 14.4863C227.697 11.8459 230.659 9.52671 234.227 7.52862C237.795 5.45916 242.005 3.85355 246.858 2.71178C251.782 1.49865 257.49 0.89209 263.984 0.89209L268.908 0.89209C278.328 0.89209 286.07 1.89114 292.136 3.88923C298.202 5.88732 302.983 8.4563 306.479 11.5962C310.047 14.736 312.509 18.2327 313.865 22.0862C315.221 25.8683 315.899 29.5433 315.899 33.1114V33.6466H289.567C289.496 33.147 289.21 32.2193 288.711 30.8635C288.211 29.4363 287.141 28.0091 285.499 26.5819C283.929 25.0833 281.646 23.7631 278.649 22.6214C275.652 21.4796 271.584 20.9087 266.446 20.9087C261.736 20.9087 257.847 21.5153 254.779 22.7284C251.71 23.9415 249.284 25.5115 247.5 27.4382C245.716 29.3649 244.467 31.5414 243.753 33.9677C243.04 36.3226 242.683 38.6418 242.683 40.9253V42.3169C242.683 44.4577 243.04 46.7412 243.753 49.1675C244.467 51.5937 245.716 53.8416 247.5 55.911C249.355 57.9091 251.817 59.5861 254.886 60.942C257.954 62.2264 261.843 62.8687 266.553 62.8687C271.691 62.8687 275.759 62.2978 278.756 61.156C281.753 60.0143 284.036 58.6941 285.606 57.1955C287.176 55.6969 288.211 54.2697 288.711 52.9139C289.21 51.4867 289.496 50.4876 289.567 49.9168H315.899V50.559C315.899 52.7712 315.614 55.1261 315.043 57.6237C314.472 60.1213 313.508 62.5832 312.153 65.0095C310.797 67.4358 308.941 69.755 306.586 71.9672C304.303 74.108 301.413 75.999 297.916 77.6403C294.419 79.2816 290.281 80.6018 285.499 81.6008C280.718 82.5999 275.188 83.0994 268.908 83.0994H263.984Z" fill="#F2F2F2"/>
<path d="M327.782 81.8149V2.17658L353.258 2.17658V33.9677L388.26 2.17658L419.302 2.17658L378.948 38.3564L421.55 81.8149H388.795L353.258 45.314V81.8149H327.782Z" fill="#F2F2F2"/>
</svg>
