<svg width="32" height="32" viewBox="0 0 32 32" fill="none" xmlns="http://www.w3.org/2000/svg">
<path d="M2.6665 18.6667V13.3334C2.6665 12.9798 2.80698 12.6406 3.05703 12.3906C3.30708 12.1405 3.64622 12.0001 3.99984 12.0001H7.59584C7.85921 12.0001 8.11671 11.9222 8.33584 11.7761L13.9265 8.04805C14.1275 7.91396 14.3611 7.83699 14.6025 7.82539C14.8438 7.81379 15.0838 7.86798 15.2967 7.98218C15.5096 8.09638 15.6875 8.26629 15.8114 8.47376C15.9352 8.68122 16.0004 8.91844 15.9998 9.16005V22.8401C15.9999 23.0814 15.9344 23.3183 15.8103 23.5254C15.6863 23.7325 15.5084 23.902 15.2955 24.0159C15.0827 24.1298 14.8429 24.1837 14.6018 24.172C14.3607 24.1603 14.1273 24.0834 13.9265 23.9494L8.33584 20.2227C8.11656 20.0771 7.85908 19.9996 7.59584 20.0001H3.99984C3.64622 20.0001 3.30708 19.8596 3.05703 19.6095C2.80698 19.3595 2.6665 19.0203 2.6665 18.6667Z" fill="#F2F2F2"/>
<path d="M22 10C22 10 24 12 24 15.3333C24 18.6667 22 20.6667 22 20.6667M26 6C26 6 29.3333 9.33333 29.3333 15.3333C29.3333 21.3333 26 24.6667 26 24.6667" stroke="#F2F2F2" stroke-width="1.5" stroke-linecap="round" stroke-linejoin="round"/>
</svg>
