<svg width="299" height="30" viewBox="0 0 299 30" fill="none" xmlns="http://www.w3.org/2000/svg">
<path d="M16.2372 12.2864L15.4763 16.006H19.6443V19.3307H14.8478L13.5908 25.8482H10.0513L11.3084 19.3307H8.16584L6.94191 25.8482H3.4686L4.65945 19.3307H0.822266V16.006H5.28795L6.04877 12.2864H1.98004V8.92884H6.6442L7.9012 2.37833H11.4407L10.1837 8.92884H13.3923L14.6494 2.37833H18.1227L16.8657 8.92884H20.7359V12.2864H16.2372ZM8.79434 16.006H11.9699L12.7308 12.2864H9.55516L8.79434 16.006Z" fill="#0F0C0C"/>
<path d="M23.3983 1.3579H50.5232V25.8482H42.6173V7.18423H31.3042V25.8482H23.3983V1.3579Z" fill="#0F0C0C"/>
<path d="M78.9413 1.3579V6.98673H63.1956V10.5418H78.4451V16.3681H63.1956V20.1536H79.1397V25.8482H55.3558V1.3579H78.9413Z" fill="#0F0C0C"/>
<path d="M83.7693 20.0219C84.1662 19.2319 84.5191 18.3541 84.8278 17.3885C85.1365 16.423 85.3901 15.238 85.5886 13.8335C85.8092 12.4071 85.9746 10.6954 86.0848 8.69842C86.2171 6.6795 86.2833 4.23266 86.2833 1.3579H111.357V20.0219H115.327V29.9629H107.983V25.8482H88.4004V29.9629H81.0568V20.0219H83.7693ZM103.484 20.0219V7.18423H93.6269C93.6269 8.87398 93.5607 10.3882 93.4284 11.7268C93.3181 13.0654 93.1638 14.2614 92.9653 15.3148C92.7668 16.3681 92.5353 17.2788 92.2706 18.0469C92.028 18.815 91.7744 19.4733 91.5098 20.0219H103.484Z" fill="#0F0C0C"/>
<path d="M131.506 7.05256L127.47 16.2035H135.641L131.506 7.05256ZM138.056 21.6019H125.055L123.17 25.8482H115.264L126.445 1.3579H136.865L148.409 25.8482H139.974L138.056 21.6019Z" fill="#0F0C0C"/>
<path d="M150.421 1.3579H172.022V7.18423H158.327V25.8482H150.421V1.3579Z" fill="#0F0C0C"/>
<path d="M190.403 0.962891C192.454 0.962891 194.251 1.13845 195.795 1.48957C197.36 1.84068 198.706 2.32347 199.83 2.93792C200.977 3.55237 201.925 4.26558 202.675 5.07753C203.425 5.86754 204.02 6.71242 204.461 7.61215C204.925 8.48994 205.244 9.40065 205.421 10.3443C205.619 11.2879 205.718 12.1876 205.718 13.0435V14.031C205.718 15.3257 205.498 16.6863 205.057 18.1127C204.616 19.5391 203.822 20.8558 202.675 22.0628C201.55 23.2697 199.996 24.2682 198.011 25.0582C196.026 25.8482 193.49 26.2433 190.403 26.2433H188.914C186.863 26.2433 185.055 26.0677 183.489 25.7166C181.946 25.3435 180.6 24.8498 179.454 24.2353C178.329 23.5989 177.392 22.8747 176.642 22.0628C175.892 21.2508 175.286 20.395 174.822 19.4952C174.381 18.5736 174.062 17.6519 173.863 16.7302C173.687 15.7866 173.599 14.8868 173.599 14.031V13.0435C173.599 12.1657 173.687 11.266 173.863 10.3443C174.062 9.40065 174.381 8.48994 174.822 7.61215C175.286 6.71242 175.892 5.86754 176.642 5.07753C177.392 4.26558 178.329 3.55237 179.454 2.93792C180.6 2.32347 181.946 1.84068 183.489 1.48957C185.055 1.13845 186.863 0.962891 188.914 0.962891H190.403ZM197.482 13.3068C197.482 12.6485 197.382 11.9572 197.184 11.233C196.986 10.4869 196.6 9.80663 196.026 9.19218C195.475 8.57772 194.681 8.07299 193.645 7.67799C192.63 7.28298 191.307 7.08548 189.675 7.08548C188.021 7.08548 186.687 7.28298 185.672 7.67799C184.658 8.07299 183.864 8.57772 183.291 9.19218C182.717 9.80663 182.331 10.4869 182.133 11.233C181.934 11.9572 181.835 12.6485 181.835 13.3068V13.7347C181.835 14.3931 181.934 15.0953 182.133 15.8414C182.353 16.5876 182.75 17.2788 183.324 17.9152C183.919 18.5297 184.724 19.0454 185.739 19.4623C186.753 19.8573 188.065 20.0548 189.675 20.0548C191.307 20.0548 192.63 19.8573 193.645 19.4623C194.681 19.0454 195.475 18.5297 196.026 17.9152C196.6 17.2788 196.986 16.5876 197.184 15.8414C197.382 15.0953 197.482 14.3931 197.482 13.7347V13.3068Z" fill="#0F0C0C"/>
<path d="M209.458 1.3579H231.059V7.18423H217.364V25.8482H209.458V1.3579Z" fill="#0F0C0C"/>
<path d="M244.347 7.05256L240.311 16.2035H248.482L244.347 7.05256ZM250.897 21.6019H237.897L236.011 25.8482H228.105L239.286 1.3579H249.706L261.251 25.8482H252.815L250.897 21.6019Z" fill="#0F0C0C"/>
<path d="M263.262 1.3579H273.98L281.224 16.5985L288.634 1.3579H298.822V25.8482H291.082V10.2126L283.705 25.8482H278.214L270.87 10.2126V25.8482H263.262V1.3579Z" fill="#0F0C0C"/>
</svg>
