<svg width="607" height="82" viewBox="0 0 607 82" fill="none" xmlns="http://www.w3.org/2000/svg">
<path d="M31.3639 21.3542H0V1.28125H88.2042V21.3542H56.8403V80.7188H31.3639V21.3542Z" fill="#F2F2F2"/>
<path d="M124.922 35.3411H155.001C157.071 35.3411 158.748 35.1632 160.032 34.8073C161.388 34.3802 162.459 33.8108 163.244 33.099C164.029 32.3872 164.564 31.5686 164.849 30.6432C165.135 29.7179 165.277 28.7569 165.277 27.7604V27.5469C165.277 26.6215 165.135 25.7318 164.849 24.8776C164.564 23.9523 164.029 23.1693 163.244 22.5286C162.459 21.8168 161.388 21.283 160.032 20.9271C158.748 20.5 157.071 20.2865 155.001 20.2865H124.922V35.3411ZM174.59 42.4948C177.231 42.9931 179.657 43.7405 181.869 44.737C184.082 45.7335 185.973 47.0504 187.543 48.6875C189.113 50.2535 190.326 52.1754 191.182 54.4531C192.11 56.6597 192.574 59.2578 192.574 62.2474V72.6042C192.574 75.0955 192.681 76.8394 192.895 77.8359C193.18 78.8325 193.501 79.6154 193.858 80.1849V80.7188H167.418C167.276 80.434 167.133 79.9002 166.99 79.1172C166.847 78.3342 166.776 77.1241 166.776 75.487V68.8672C166.776 66.3047 166.526 64.1337 166.027 62.3542C165.527 60.5747 164.671 59.151 163.458 58.0833C162.316 56.9444 160.782 56.1259 158.855 55.6276C156.928 55.1293 154.573 54.8802 151.79 54.8802H124.922V80.7188H99.3384V1.28125H158.427C165.848 1.28125 171.771 1.95747 176.196 3.3099C180.62 4.66233 183.974 6.37066 186.258 8.4349C188.613 10.4991 190.147 12.8125 190.861 15.375C191.575 17.9375 191.931 20.3932 191.931 22.7422V23.7031C191.931 26.3368 191.468 28.7214 190.54 30.8568C189.612 32.921 188.363 34.7361 186.793 36.3021C185.223 37.8681 183.368 39.1849 181.227 40.2526C179.158 41.2491 176.945 41.9965 174.59 42.4948Z" fill="#F2F2F2"/>
<path d="M249.244 19.7526L236.185 49.4349H262.625L249.244 19.7526ZM270.439 66.9453H228.371L222.269 80.7188H196.686L232.867 1.28125H266.585L303.944 80.7188H276.647L270.439 66.9453Z" fill="#F2F2F2"/>
<path d="M335.395 32.2448V80.7188H310.453V1.28125H336.572L381.316 48.901V1.28125H406.151V80.7188H381.423L335.395 32.2448Z" fill="#F2F2F2"/>
<path d="M466.236 82C459.742 82 454.033 81.395 449.109 80.1849C444.256 78.9748 440.046 77.3377 436.477 75.2734C432.981 73.2092 430.055 70.8602 427.7 68.2266C425.345 65.5217 423.454 62.7101 422.026 59.7917C420.671 56.8021 419.707 53.8125 419.136 50.8229C418.565 47.8333 418.28 45.0217 418.28 42.388V39.1849C418.28 36.48 418.565 33.6684 419.136 30.75C419.707 27.7604 420.671 24.8064 422.026 21.888C423.454 18.9696 425.309 16.1936 427.593 13.5599C429.948 10.9262 432.909 8.61285 436.477 6.6198C440.046 4.55556 444.256 2.95399 449.109 1.81511C454.033 0.605035 459.742 0 466.236 0H471.16C480.579 0 488.322 0.996528 494.388 2.98958C500.454 4.98264 505.235 7.54514 508.732 10.6771C512.3 13.809 514.762 17.2969 516.118 21.1406C517.474 24.9132 518.152 28.579 518.152 32.138V32.6719H491.819C491.748 32.1736 491.462 31.2483 490.963 29.8958C490.463 28.4722 489.393 27.0486 487.751 25.625C486.181 24.1302 483.898 22.8134 480.901 21.6745C477.903 20.5356 473.836 19.9661 468.698 19.9661C463.988 19.9661 460.098 20.5712 457.03 21.7812C453.961 22.9913 451.535 24.5573 449.751 26.4792C447.967 28.401 446.718 30.572 446.004 32.9922C445.291 35.3411 444.934 37.6545 444.934 39.9323V41.3203C444.934 43.4557 445.291 45.7335 446.004 48.1536C446.718 50.5738 447.967 52.816 449.751 54.8802C451.606 56.8733 454.068 58.546 457.137 59.8984C460.205 61.1797 464.095 61.8203 468.805 61.8203C473.943 61.8203 478.01 61.2509 481.008 60.112C484.005 58.9731 486.288 57.6562 487.858 56.1615C489.428 54.6667 490.463 53.2431 490.963 51.8906C491.462 50.467 491.748 49.4705 491.819 48.901H518.152V49.5417C518.152 51.7483 517.866 54.0972 517.296 56.5885C516.725 59.0799 515.761 61.5356 514.405 63.9557C513.049 66.3759 511.194 68.6892 508.839 70.8958C506.555 73.0313 503.665 74.9175 500.169 76.5547C496.672 78.1918 492.533 79.5087 487.751 80.5052C482.97 81.5017 477.44 82 471.16 82H466.236Z" fill="#F2F2F2"/>
<path d="M606.358 1.28125V19.5391H555.405V31.0703H604.752V49.9688H555.405V62.2474H607V80.7188H530.035V1.28125H606.358Z" fill="#F2F2F2"/>
</svg>
