<svg width="47" height="77" viewBox="0 0 47 77" fill="none" xmlns="http://www.w3.org/2000/svg">
<path fill-rule="evenodd" clip-rule="evenodd" d="M36.9599 3.02705C36.7832 2.97969 36.6129 2.95865 36.4529 2.96371C35.2901 3.00615 34.8261 5.20617 34.6813 6.15069C34.0091 10.5185 32.5799 18.1386 30.7846 26.7853C33.5669 26.1567 36.4145 25.3168 39.343 24.0279C44.7204 21.6608 44.3428 16.1747 43.6398 13.115C42.4766 8.06367 39.1347 3.60979 36.9599 3.02705M27.718 29.8196C26.4834 30.0431 25.2804 30.2407 24.1126 30.4305C16.5265 31.6711 9.97374 32.7411 4.90937 39.1549C0.424721 44.8329 2.94862 51.3157 4.8524 54.6775C7.87363 60.0067 13.1047 64.507 18.4862 66.9311C19.9057 62.5472 21.8448 55.5996 24.4262 44.5884C24.8757 42.6722 25.3207 40.7313 25.7571 38.7906C20.4983 38.8971 15.1833 40.8384 12.723 43.171C12.2481 43.6214 11.4976 43.6035 11.0436 43.1266C10.5915 42.6514 10.6109 41.8995 11.0873 41.4482C14.3277 38.3758 20.4131 36.3274 26.2936 36.3888C26.7826 34.1783 27.2602 31.9782 27.718 29.8196M20.7032 67.8066C23.2884 68.6849 25.8456 69.0481 28.1425 68.7528C33.1818 68.1069 36.7243 64.4578 38.3855 58.2027C40.6409 49.7075 39.2181 43.6648 34.2707 40.7314C32.4783 39.6672 30.3711 39.0842 28.173 38.8775C27.6656 41.1384 27.1467 43.4011 26.6213 45.6326C24.1036 56.3327 22.1801 63.2771 20.7032 67.8066M15.4519 76.6028C15.1156 76.5127 14.8221 76.2768 14.6713 75.9352C14.4106 75.3429 14.6702 74.6541 15.2529 74.38C15.4847 74.2172 16.2345 73.3881 17.7175 69.2031C11.8028 66.6116 6.12762 61.7439 2.7853 55.8457C-1.00974 49.1488 -0.917332 42.6983 3.04416 37.6828C8.67966 30.5469 15.9904 29.3518 23.7283 28.0867C25.218 27.8431 26.7241 27.5976 28.2469 27.3087C30.1348 18.2799 31.6449 10.266 32.3324 5.7905C33.0127 1.36955 35.1518 0.634903 36.3656 0.590154C40.2411 0.44491 44.6262 6.80329 45.9557 12.5838C47.4319 19.006 45.3713 23.9691 40.3008 26.2008C36.8564 27.7166 33.4709 28.6495 30.2512 29.3269C29.7542 31.6865 29.2318 34.1044 28.6948 36.5356C31.149 36.8146 33.4889 37.5068 35.4834 38.689C39.6374 41.1541 43.9116 46.6457 40.6821 58.8132C38.2442 67.9896 32.6821 70.564 28.4466 71.107C25.7814 71.4499 22.8616 71.0535 19.9327 70.0622C17.8713 75.8228 16.8296 76.2812 16.2382 76.5419C15.9801 76.6559 15.7044 76.6705 15.4519 76.6028" fill="#F2F2F2"/>
</svg>
