<svg width="47" height="48" viewBox="0 0 47 48" fill="none" xmlns="http://www.w3.org/2000/svg">
<path d="M34.2705 0H12.7071C5.71176 0 0 5.74572 0 12.7826V34.4743C0 41.5112 5.71176 47.2569 12.7071 47.2569H34.2705C41.2658 47.2569 46.9776 41.5112 46.9776 34.4743V12.7826C46.9776 5.74572 41.2658 0 34.2705 0ZM23.4888 36.5402C16.4293 36.5402 10.6534 30.7299 10.6534 23.6285C10.6534 16.527 16.4293 10.7167 23.4888 10.7167C30.5483 10.7167 36.3242 16.527 36.3242 23.6285C36.3242 30.7299 30.5483 36.5402 23.4888 36.5402ZM36.6451 13.751C34.5273 13.751 32.8586 12.0079 32.8586 9.94203C32.8586 7.81159 34.5914 6.13307 36.6451 6.13307C38.7629 6.13307 40.4315 7.87615 40.4315 9.94203C40.4315 12.0725 38.6988 13.751 36.6451 13.751Z" fill="#EA0905"/>
<path d="M23.4888 13.4927C17.9054 13.4927 13.413 18.0763 13.413 23.6284C13.413 29.245 17.9695 33.7641 23.4888 33.7641C29.0722 33.7641 33.5646 29.1804 33.5646 23.6284C33.5646 18.0118 29.0722 13.4927 23.4888 13.4927Z" fill="#EA0905"/>
<path d="M36.6451 8.90918C36.0675 8.90918 35.6183 9.36109 35.6183 9.94212C35.6183 10.5231 36.0675 10.9751 36.6451 10.9751C37.2227 10.9751 37.672 10.5231 37.672 9.94212C37.672 9.36109 37.2227 8.90918 36.6451 8.90918Z" fill="#EA0905"/>
</svg>
