<svg width="47" height="48" viewBox="0 0 47 48" fill="none" xmlns="http://www.w3.org/2000/svg">
<path d="M34.2705 0H12.7071C5.71176 0 0 5.74572 0 12.7826V34.4743C0 41.5112 5.71176 47.2569 12.7071 47.2569H34.2705C41.2658 47.2569 46.9776 41.5112 46.9776 34.4743V12.7826C46.9776 5.74572 41.2658 0 34.2705 0ZM23.4888 36.5402C16.4293 36.5402 10.6534 30.7299 10.6534 23.6285C10.6534 16.527 16.4293 10.7167 23.4888 10.7167C30.5483 10.7167 36.3242 16.527 36.3242 23.6285C36.3242 30.7299 30.5483 36.5402 23.4888 36.5402ZM36.6451 13.751C34.5273 13.751 32.8586 12.0079 32.8586 9.94203C32.8586 7.81159 34.5914 6.13307 36.6451 6.13307C38.7629 6.13307 40.4315 7.87615 40.4315 9.94203C40.4315 12.0725 38.6988 13.751 36.6451 13.751Z" fill="white"/>
<path d="M23.4889 13.4927C17.9055 13.4927 13.4131 18.0763 13.4131 23.6284C13.4131 29.245 17.9697 33.7641 23.4889 33.7641C29.0723 33.7641 33.5647 29.1804 33.5647 23.6284C33.5647 18.0118 29.0723 13.4927 23.4889 13.4927Z" fill="white"/>
<path d="M36.645 8.90918C36.0674 8.90918 35.6182 9.36109 35.6182 9.94212C35.6182 10.5231 36.0674 10.9751 36.645 10.9751C37.2226 10.9751 37.6718 10.5231 37.6718 9.94212C37.6718 9.36109 37.2226 8.90918 36.645 8.90918Z" fill="white"/>
</svg>
