<svg width="56" height="56" viewBox="0 0 56 56" fill="none" xmlns="http://www.w3.org/2000/svg">
<path d="M28 0C12.5563 0 0 12.5563 0 28C0 43.4437 12.5563 56 28 56C43.4437 56 56 43.4437 56 28C56 12.5563 43.4437 0 28 0Z" fill="#0E7BCB"/>
<path d="M42.1969 22.0609L27.0266 37.2313C26.5672 37.6906 25.9766 37.9203 25.375 37.9203C24.7734 37.9203 24.1828 37.6906 23.7234 37.2313L16.1438 29.6516C15.2359 28.7438 15.2359 27.2672 16.1438 26.3484C17.0516 25.4406 18.5281 25.4406 19.4469 26.3484L25.375 32.2875L38.8938 18.7688C39.8016 17.8609 41.2781 17.8609 42.1969 18.7688C43.1047 19.6766 43.1047 21.1531 42.1969 22.0609Z" fill="#FAFAFA"/>
</svg>
