<svg width="49" height="49" viewBox="0 0 49 49" fill="none" xmlns="http://www.w3.org/2000/svg">
<path d="M21.2427 28.9867L29.1364 24.403L21.2427 19.8193V28.9867Z" fill="white"/>
<path d="M24.2589 0C10.9101 0 0 10.9104 0 24.4032C0 37.8959 10.8459 48.8063 24.2589 48.8063C37.6077 48.8063 48.5178 37.8959 48.5178 24.4032C48.5178 10.9104 37.6077 0 24.2589 0ZM39.3405 24.4032C39.3405 24.4032 39.3405 29.3742 38.6987 31.6983C38.3778 32.9895 37.351 34.0224 36.0033 34.4097C33.6288 35.0553 24.1306 35.0553 24.1306 35.0553C24.1306 35.0553 14.6965 35.0553 12.2578 34.4097C10.9743 34.087 9.94743 33.054 9.56237 31.6983C8.9206 29.3096 8.9206 24.4032 8.9206 24.4032C8.9206 24.4032 8.9206 19.4321 9.56237 17.108C9.88326 15.8169 10.9743 14.7194 12.2578 14.3966C14.6324 13.751 24.1306 13.751 24.1306 13.751C24.1306 13.751 33.6288 13.751 36.0033 14.3966C37.2868 14.7194 38.3137 15.7523 38.6987 17.108C39.4047 19.4321 39.3405 24.4032 39.3405 24.4032Z" fill="white"/>
</svg>
